<svg xmlns="http://www.w3.org/2000/svg" width="56" height="56" fill="none"><path fill="url(#a)" d="m45.103 13.251-14.63-7.887a5.17 5.17 0 0 0-4.946 0l-14.63 7.887c-1.074.583-1.727 1.703-1.727 2.987 0 1.26.653 2.403 1.727 2.986l14.63 7.887c.77.42 1.633.63 2.473.63.84 0 1.703-.21 2.473-.63l14.63-7.887c1.074-.583 1.727-1.703 1.727-2.986 0-1.284-.653-2.404-1.727-2.987Z"/><path fill="#009640" fill-opacity=".65" d="M23.123 29.846 9.496 23.033c-1.05-.514-2.263-.467-3.243.14a3.325 3.325 0 0 0-1.587 2.846v12.857a5.839 5.839 0 0 0 3.22 5.227l13.603 6.813a3.364 3.364 0 0 0 3.243-.14 3.297 3.297 0 0 0 1.587-2.847V35.073a5.725 5.725 0 0 0-3.196-5.227Zm26.623-6.672c-1.003-.606-2.216-.676-3.243-.14L32.9 29.848a5.813 5.813 0 0 0-3.22 5.226v12.857c0 1.167.583 2.24 1.586 2.847a3.364 3.364 0 0 0 3.244.14l13.603-6.814a5.813 5.813 0 0 0 3.22-5.226V26.02a3.325 3.325 0 0 0-1.587-2.847Z" opacity=".3"/><defs><linearGradient id="a" x1="28" x2="28" y1="4.734" y2="27.741" gradientUnits="userSpaceOnUse"><stop stop-color="#009640" stop-opacity=".2"/><stop offset="1" stop-color="#009640"/></linearGradient></defs></svg>