<svg xmlns="http://www.w3.org/2000/svg" width="56" height="56" fill="none"><path fill="#009640" fill-opacity=".65" d="m50.54 24.36-2.287 9.752c-1.96 8.424-5.833 11.83-13.113 11.13a24.522 24.522 0 0 1-3.78-.63l-3.92-.933c-9.73-2.31-12.74-7.117-10.454-16.87l2.287-9.777C19.74 15.05 20.3 13.322 21 11.9c2.73-5.646 7.373-7.163 15.166-5.32l3.897.91c9.777 2.287 12.763 7.117 10.477 16.87Z" opacity=".3"/><path fill="url(#a)" d="M35.14 45.242c-1.446.98-3.266 1.796-5.483 2.52l-3.686 1.213c-9.264 2.987-14.14.49-17.15-8.773l-2.987-9.217c-2.987-9.263-.513-14.163 8.75-17.15l3.687-1.213c.956-.304 1.866-.56 2.73-.724-.7 1.424-1.26 3.15-1.727 5.134l-2.287 9.776c-2.286 9.754.724 14.56 10.454 16.87l3.92.934a24.68 24.68 0 0 0 3.78.63Z"/><path fill="#009640" d="M40.81 24.525c-.14 0-.28-.023-.444-.047l-11.317-2.87a1.749 1.749 0 0 1-1.26-2.123 1.749 1.749 0 0 1 2.124-1.26l11.316 2.87a1.749 1.749 0 0 1 1.26 2.123c-.186.77-.91 1.307-1.68 1.307Zm-6.836 7.888c-.14 0-.28-.024-.443-.047l-6.79-1.727a1.749 1.749 0 0 1-1.26-2.123 1.749 1.749 0 0 1 2.123-1.26l6.79 1.727a1.749 1.749 0 0 1 1.26 2.123c-.187.793-.887 1.307-1.68 1.307Z"/><defs><linearGradient id="a" x1="19.888" x2="19.888" y1="11.898" y2="50.17" gradientUnits="userSpaceOnUse"><stop stop-color="#009640" stop-opacity=".2"/><stop offset="1" stop-color="#009640"/></linearGradient></defs></svg>