<svg xmlns="http://www.w3.org/2000/svg" width="56" height="56" fill="none"><path fill="#009640" fill-opacity=".65" d="M46.666 28.47v3.966c0 7.35-4.2 10.5-10.5 10.5h-21c-6.3 0-10.5-3.15-10.5-10.5v-12.6c0-7.35 4.2-10.5 10.5-10.5h6.3a8.994 8.994 0 0 0-.467 2.917v9.1c0 2.263.747 4.176 2.077 5.506s3.243 2.077 5.507 2.077v3.243c0 1.19 1.353 1.914 2.356 1.26l6.744-4.503h6.066c1.05 0 2.03-.163 2.917-.467Z" opacity=".3"/><path fill="url(#a)" d="M51.333 12.247v9.1c0 3.477-1.773 6.09-4.666 7.117a8.992 8.992 0 0 1-2.917.467h-6.067l-6.743 4.503c-1.003.654-2.357-.07-2.357-1.26v-3.243c-2.263 0-4.176-.747-5.506-2.077S21 23.611 21 21.348v-9.1c0-1.05.163-2.03.467-2.917 1.026-2.894 3.64-4.667 7.116-4.667H43.75c4.55 0 7.583 3.033 7.583 7.583Z"/><path fill="url(#b)" d="M34.068 49.587h-6.65v-6.65c0-.956-.794-1.75-1.75-1.75-.957 0-1.75.794-1.75 1.75v6.65h-6.65c-.957 0-1.75.794-1.75 1.75 0 .957.793 1.75 1.75 1.75h16.8c.956 0 1.75-.793 1.75-1.75 0-.956-.794-1.75-1.75-1.75Z" opacity=".4"/><path fill="#fff" d="M36.027 18.664c-.98 0-1.75-.793-1.75-1.75s.794-1.75 1.75-1.75c.957 0 1.75.793 1.75 1.75s-.793 1.75-1.75 1.75Zm6.557 0c-.98 0-1.75-.793-1.75-1.75s.793-1.75 1.75-1.75 1.75.793 1.75 1.75-.793 1.75-1.75 1.75Zm-13.137 0c-.98 0-1.75-.793-1.75-1.75s.794-1.75 1.75-1.75c.957 0 1.75.793 1.75 1.75s-.77 1.75-1.75 1.75Z"/><defs><linearGradient id="a" x1="36.167" x2="36.167" y1="4.664" y2="33.681" gradientUnits="userSpaceOnUse"><stop stop-color="#009640" stop-opacity=".2"/><stop offset="1" stop-color="#009640"/></linearGradient><linearGradient id="b" x1="25.668" x2="25.668" y1="41.188" y2="53.087" gradientUnits="userSpaceOnUse"><stop stop-color="#009640" stop-opacity=".5"/><stop offset="1" stop-color="#009640" stop-opacity=".7"/></linearGradient></defs></svg>