<svg xmlns="http://www.w3.org/2000/svg" width="56" height="56" fill="none"><path fill="url(#a)" d="M25.667 46.43V9.565c0-3.5-1.493-4.9-5.203-4.9h-9.427c-3.71 0-5.203 1.4-5.203 4.9v36.867c0 3.5 1.493 4.9 5.203 4.9h9.427c3.71 0 5.203-1.4 5.203-4.9Z"/><path fill="#009640" fill-opacity=".65" d="M50.167 25.43V9.565c0-3.5-1.493-4.9-5.203-4.9h-9.427c-3.71 0-5.203 1.4-5.203 4.9v15.867c0 3.5 1.493 4.9 5.203 4.9h9.427c3.71 0 5.203-1.4 5.203-4.9Zm0 21.003V39.9c0-3.5-1.493-4.9-5.203-4.9h-9.427c-3.71 0-5.203 1.4-5.203 4.9v6.533c0 3.5 1.493 4.9 5.203 4.9h9.427c3.71 0 5.203-1.4 5.203-4.9Z" opacity=".3"/><defs><linearGradient id="a" x1="15.751" x2="15.751" y1="4.664" y2="51.331" gradientUnits="userSpaceOnUse"><stop stop-color="#009640" stop-opacity=".2"/><stop offset="1" stop-color="#009640"/></linearGradient></defs></svg>