<svg xmlns="http://www.w3.org/2000/svg" width="20" height="20" fill="none"><g clip-path="url(#a)"><path fill="#009640" d="M17.5 10H10a2.5 2.5 0 0 0-2.5 2.5v5A2.5 2.5 0 0 0 10 20h7.5a2.5 2.5 0 0 0 2.5-2.5v-5a2.5 2.5 0 0 0-2.5-2.5Zm-6.25 7c.342 0 .632-.23.722-.544.018-.066.056-.623.696-.623.639 0 .675.588.665.67a2.099 2.099 0 0 1-2.083 1.83 2.083 2.083 0 0 1-2.083-2.083v-2.5c0-1.15.932-2.083 2.083-2.083 1.068 0 1.962.802 2.083 1.836.01.081.002.664-.67.664-.671 0-.674-.562-.694-.63a.751.751 0 0 0-1.47.213v2.5c.001.413.338.75.751.75Zm6.255.02c-.105.54-.486 1.313-1.357 1.313-.87 0-1.258-.808-1.348-1.275l-.893-4.378a.667.667 0 0 1 1.306-.267l.894 4.378c.01.054.026.097.041.132a.751.751 0 0 0 .048-.156l.877-4.352a.667.667 0 1 1 1.307.263l-.876 4.343h.001ZM11.667 5c0-2.757-2.243-5-5-5-2.758 0-5 2.243-5 5 0 2.758 2.242 5 5 5 2.757 0 5-2.242 5-5Zm-5 3.333A3.337 3.337 0 0 1 3.333 5a3.337 3.337 0 0 1 3.334-3.333A3.337 3.337 0 0 1 10 5a3.337 3.337 0 0 1-3.333 3.333Zm-.869 4.171a.832.832 0 0 1-.56 1.036 5.03 5.03 0 0 0-3.571 4.793v.834a.833.833 0 1 1-1.667 0v-.834c0-2.928 1.958-5.555 4.763-6.39.44-.13.904.12 1.035.561Z"/></g><defs><clipPath id="a"><path fill="#fff" d="M0 0h20v20H0z"/></clipPath></defs></svg>