<svg xmlns="http://www.w3.org/2000/svg" xml:space="preserve" width="512" height="512" fill-rule="evenodd" style="enable-background:new 0 0 512 512" viewBox="0 0 32 32"><path fill="#009640" d="M15 18a1 1 0 0 0-1-1H7a1 1 0 0 0-1 1v7a1 1 0 0 0 1 1h7a1 1 0 0 0 1-1zm11 0a1 1 0 0 0-1-1h-7a1 1 0 0 0-1 1v7a1 1 0 0 0 1 1h7a1 1 0 0 0 1-1zm0-11a1 1 0 0 0-1-1h-7a1 1 0 0 0-1 1v7a1 1 0 0 0 1 1h7a1 1 0 0 0 1-1zM15 7a1 1 0 0 0-1-1H7a1 1 0 0 0-1 1v7a1 1 0 0 0 1 1h7a1 1 0 0 0 1-1z" data-original="#000000"/></svg>