<svg xmlns="http://www.w3.org/2000/svg" width="186" height="58" fill="none"><rect width="184" height="56" x="1" y="1" stroke="#fff" stroke-width="2" rx="12"/><path fill="#fff" d="M69.934 42.074h-6.116L62.806 45h-3.234l5.522-15.378h3.586L74.202 45h-3.256l-1.012-2.926Zm-.836-2.464-2.222-6.424-2.222 6.424h4.444Zm10.248-5.038c.396-.557.939-1.02 1.628-1.386.704-.381 1.503-.572 2.398-.572 1.041 0 1.98.257 2.816.77.85.513 1.518 1.247 2.002 2.2.499.939.748 2.031.748 3.278 0 1.247-.25 2.354-.748 3.322-.484.953-1.151 1.694-2.002 2.222-.836.528-1.775.792-2.816.792-.895 0-1.687-.183-2.376-.55a5.11 5.11 0 0 1-1.65-1.386v7.546h-3.08V32.812h3.08v1.76Zm6.446 4.29c0-.733-.154-1.364-.462-1.892a3.01 3.01 0 0 0-1.188-1.232 3.119 3.119 0 0 0-1.584-.418 3.08 3.08 0 0 0-1.584.44c-.484.279-.88.69-1.188 1.232-.293.543-.44 1.18-.44 1.914 0 .733.147 1.371.44 1.914.308.543.704.96 1.188 1.254a3.198 3.198 0 0 0 1.584.418 3 3 0 0 0 1.584-.44 3.161 3.161 0 0 0 1.188-1.254c.308-.543.462-1.188.462-1.936Zm8.464-4.29c.396-.557.939-1.02 1.628-1.386.704-.381 1.504-.572 2.398-.572 1.041 0 1.98.257 2.816.77.851.513 1.518 1.247 2.002 2.2.499.939.748 2.031.748 3.278 0 1.247-.249 2.354-.748 3.322-.484.953-1.151 1.694-2.002 2.222-.836.528-1.775.792-2.816.792-.894 0-1.686-.183-2.376-.55a5.107 5.107 0 0 1-1.65-1.386v7.546h-3.08V32.812h3.08v1.76Zm6.446 4.29c0-.733-.154-1.364-.462-1.892a3.008 3.008 0 0 0-1.188-1.232 3.119 3.119 0 0 0-1.584-.418 3.08 3.08 0 0 0-1.584.44c-.484.279-.88.69-1.188 1.232-.293.543-.44 1.18-.44 1.914 0 .733.147 1.371.44 1.914.308.543.704.96 1.188 1.254a3.198 3.198 0 0 0 1.584.418 3 3 0 0 0 1.584-.44 3.16 3.16 0 0 0 1.188-1.254c.308-.543.462-1.188.462-1.936Zm15.929 6.292c-1.071 0-2.039-.183-2.904-.55-.851-.367-1.526-.895-2.024-1.584-.499-.69-.756-1.503-.77-2.442h3.3c.044.63.264 1.13.66 1.496.41.367.968.55 1.672.55.718 0 1.283-.169 1.694-.506.41-.352.616-.807.616-1.364 0-.455-.14-.829-.418-1.122a2.804 2.804 0 0 0-1.056-.682c-.411-.176-.983-.367-1.716-.572-.998-.293-1.812-.58-2.442-.858a4.52 4.52 0 0 1-1.606-1.298c-.44-.587-.66-1.364-.66-2.332 0-.91.227-1.701.682-2.376.454-.675 1.092-1.188 1.914-1.54.821-.367 1.76-.55 2.816-.55 1.584 0 2.867.389 3.85 1.166.997.763 1.547 1.833 1.65 3.212h-3.388a1.717 1.717 0 0 0-.682-1.298c-.411-.352-.961-.528-1.65-.528-.602 0-1.086.154-1.452.462-.352.308-.528.755-.528 1.342 0 .41.132.755.396 1.034.278.264.616.484 1.012.66.41.161.982.352 1.716.572.997.293 1.811.587 2.442.88.63.293 1.173.733 1.628 1.32.454.587.682 1.357.682 2.31 0 .821-.213 1.584-.638 2.288-.426.704-1.049 1.269-1.87 1.694-.822.41-1.797.616-2.926.616Zm11.69-9.812v5.896c0 .41.095.711.286.902.205.176.542.264 1.012.264h1.43V45h-1.936c-2.596 0-3.894-1.261-3.894-3.784v-5.874h-1.452v-2.53h1.452v-3.014h3.102v3.014h2.728v2.53h-2.728Zm10.355 9.856c-1.173 0-2.229-.257-3.168-.77a5.776 5.776 0 0 1-2.222-2.222c-.528-.953-.792-2.053-.792-3.3 0-1.247.271-2.347.814-3.3a5.732 5.732 0 0 1 2.266-2.2c.953-.528 2.017-.792 3.19-.792s2.237.264 3.19.792a5.588 5.588 0 0 1 2.244 2.2c.557.953.836 2.053.836 3.3 0 1.247-.286 2.347-.858 3.3a5.844 5.844 0 0 1-2.288 2.222c-.953.513-2.024.77-3.212.77Zm0-2.684c.557 0 1.078-.132 1.562-.396.499-.279.895-.69 1.188-1.232.293-.543.44-1.203.44-1.98 0-1.159-.308-2.046-.924-2.662-.601-.63-1.342-.946-2.222-.946-.88 0-1.621.315-2.222.946-.587.616-.88 1.503-.88 2.662s.286 2.053.858 2.684c.587.616 1.32.924 2.2.924Zm11.697-7.81a4.365 4.365 0 0 1 1.54-1.518c.646-.367 1.379-.55 2.2-.55v3.234h-.814c-.968 0-1.701.227-2.2.682-.484.455-.726 1.247-.726 2.376V45h-3.08V32.812h3.08v1.892Zm17.145 3.938c0 .44-.029.836-.088 1.188h-8.91c.073.88.381 1.57.924 2.068.543.499 1.21.748 2.002.748 1.144 0 1.958-.491 2.442-1.474h3.322c-.352 1.173-1.027 2.141-2.024 2.904-.997.748-2.222 1.122-3.674 1.122-1.173 0-2.229-.257-3.168-.77a5.668 5.668 0 0 1-2.178-2.222c-.513-.953-.77-2.053-.77-3.3 0-1.261.257-2.369.77-3.322a5.37 5.37 0 0 1 2.156-2.2c.924-.513 1.987-.77 3.19-.77 1.159 0 2.193.25 3.102.748a5.162 5.162 0 0 1 2.134 2.134c.513.91.77 1.958.77 3.146Zm-3.19-.88c-.015-.792-.301-1.423-.858-1.892-.557-.484-1.239-.726-2.046-.726-.763 0-1.408.235-1.936.704-.513.455-.829 1.093-.946 1.914h5.786ZM62.926 13.965c.962 0 1.803.186 2.522.559a3.855 3.855 0 0 1 1.677 1.586c.399.685.598 1.486.598 2.405 0 .919-.2 1.716-.598 2.392a3.898 3.898 0 0 1-1.677 1.56c-.72.355-1.56.533-2.522.533h-2.951v-9.035h2.951Zm0 7.826c1.057 0 1.868-.286 2.431-.858.563-.572.845-1.378.845-2.418 0-1.049-.282-1.868-.845-2.457-.563-.59-1.374-.884-2.431-.884h-1.469v6.617h1.469Zm9.373 1.326a3.71 3.71 0 0 1-1.833-.455 3.373 3.373 0 0 1-1.287-1.3c-.312-.563-.468-1.213-.468-1.95 0-.728.16-1.374.48-1.937.322-.563.76-.997 1.314-1.3a3.81 3.81 0 0 1 1.859-.455 3.81 3.81 0 0 1 1.859.455c.555.303.992.737 1.313 1.3.32.563.48 1.209.48 1.937s-.164 1.374-.493 1.937a3.454 3.454 0 0 1-1.352 1.313 3.885 3.885 0 0 1-1.872.455Zm0-1.287c.381 0 .736-.091 1.066-.273.338-.182.61-.455.819-.819.208-.364.312-.806.312-1.326s-.1-.958-.3-1.313a2.01 2.01 0 0 0-.792-.819 2.169 2.169 0 0 0-1.066-.273c-.381 0-.737.091-1.066.273-.32.182-.577.455-.767.819-.19.355-.286.793-.286 1.313 0 .771.195 1.37.585 1.794.398.416.897.624 1.495.624Zm14.803-5.993L84.879 23h-1.56l-1.443-5.291L80.433 23h-1.56l-2.236-7.163h1.508l1.495 5.759 1.52-5.759h1.548l1.456 5.733 1.482-5.733h1.456Zm4.721-.117c.564 0 1.066.117 1.508.351.451.234.802.58 1.053 1.04.252.46.377 1.014.377 1.664V23h-1.469v-4.004c0-.641-.16-1.131-.48-1.469-.321-.347-.759-.52-1.314-.52-.554 0-.996.173-1.326.52-.32.338-.48.828-.48 1.469V23h-1.483v-7.163h1.482v.819c.243-.295.55-.524.923-.689a3.017 3.017 0 0 1 1.21-.247Zm6.31-2.34V23h-1.481v-9.62h1.482Zm5.053 9.737a3.71 3.71 0 0 1-1.833-.455 3.373 3.373 0 0 1-1.287-1.3c-.312-.563-.468-1.213-.468-1.95 0-.728.16-1.374.481-1.937a3.329 3.329 0 0 1 1.313-1.3 3.813 3.813 0 0 1 1.859-.455 3.81 3.81 0 0 1 1.859.455c.555.303.993.737 1.313 1.3.321.563.481 1.209.481 1.937s-.164 1.374-.494 1.937a3.452 3.452 0 0 1-1.352 1.313 3.883 3.883 0 0 1-1.872.455Zm0-1.287c.382 0 .737-.091 1.066-.273.338-.182.611-.455.819-.819.208-.364.312-.806.312-1.326s-.099-.958-.299-1.313a2.003 2.003 0 0 0-.793-.819 2.166 2.166 0 0 0-1.066-.273c-.381 0-.736.091-1.066.273a1.96 1.96 0 0 0-.767.819c-.19.355-.286.793-.286 1.313 0 .771.195 1.37.585 1.794.399.416.897.624 1.495.624Zm4.69-2.444c0-.72.147-1.356.442-1.911a3.294 3.294 0 0 1 2.938-1.755c.563 0 1.053.113 1.469.338.424.217.762.49 1.014.819v-1.04h1.495V23h-1.495v-1.066c-.252.338-.594.62-1.027.845a3.173 3.173 0 0 1-1.482.338 3.18 3.18 0 0 1-1.69-.468 3.466 3.466 0 0 1-1.222-1.326c-.295-.572-.442-1.218-.442-1.937Zm5.863.026c0-.494-.104-.923-.312-1.287a2.107 2.107 0 0 0-.793-.832 2.094 2.094 0 0 0-1.066-.286c-.382 0-.737.095-1.066.286a2.09 2.09 0 0 0-.806.819c-.2.355-.299.78-.299 1.274s.099.927.299 1.3c.208.373.476.659.806.858a2.137 2.137 0 0 0 2.132 0c.329-.19.593-.468.793-.832.208-.373.312-.806.312-1.3Zm2.947-.026c0-.72.147-1.356.442-1.911a3.3 3.3 0 0 1 2.951-1.755c.468 0 .927.104 1.378.312.459.2.823.468 1.092.806V13.38h1.495V23h-1.495v-1.079a2.767 2.767 0 0 1-1.014.858c-.425.225-.914.338-1.469.338a3.273 3.273 0 0 1-1.716-.468 3.474 3.474 0 0 1-1.222-1.326c-.295-.572-.442-1.218-.442-1.937Zm5.863.026c0-.494-.104-.923-.312-1.287a2.1 2.1 0 0 0-.793-.832 2.091 2.091 0 0 0-1.066-.286c-.381 0-.737.095-1.066.286a2.096 2.096 0 0 0-.806.819c-.199.355-.299.78-.299 1.274s.1.927.299 1.3c.208.373.477.659.806.858a2.137 2.137 0 0 0 2.132 0 2.1 2.1 0 0 0 .793-.832c.208-.373.312-.806.312-1.3Zm9.926 3.705a3.71 3.71 0 0 1-1.833-.455 3.373 3.373 0 0 1-1.287-1.3c-.312-.563-.468-1.213-.468-1.95 0-.728.16-1.374.481-1.937.32-.563.758-.997 1.313-1.3a3.808 3.808 0 0 1 1.859-.455c.684 0 1.304.152 1.859.455.554.303.992.737 1.313 1.3.32.563.481 1.209.481 1.937s-.165 1.374-.494 1.937a3.46 3.46 0 0 1-1.352 1.313 3.889 3.889 0 0 1-1.872.455Zm0-1.287c.381 0 .736-.091 1.066-.273.338-.182.611-.455.819-.819.208-.364.312-.806.312-1.326s-.1-.958-.299-1.313a2.015 2.015 0 0 0-.793-.819 2.171 2.171 0 0 0-1.066-.273c-.382 0-.737.091-1.066.273a1.947 1.947 0 0 0-.767.819c-.191.355-.286.793-.286 1.313 0 .771.195 1.37.585 1.794.398.416.897.624 1.495.624Zm8.797-6.11c.563 0 1.066.117 1.508.351.45.234.801.58 1.053 1.04.251.46.377 1.014.377 1.664V23h-1.469v-4.004c0-.641-.161-1.131-.481-1.469-.321-.347-.759-.52-1.313-.52-.555 0-.997.173-1.326.52-.321.338-.481.828-.481 1.469V23h-1.482v-7.163h1.482v.819c.242-.295.55-.524.923-.689a3.014 3.014 0 0 1 1.209-.247Zm9.934 1.326v3.965c0 .269.061.464.182.585.13.113.347.169.65.169h.91V23h-1.17c-.667 0-1.179-.156-1.534-.468-.355-.312-.533-.819-.533-1.521v-3.965h-.845v-1.209h.845v-1.781h1.495v1.781h1.742v1.209h-1.742Zm6.813-1.326c.546 0 1.031.117 1.456.351.433.234.771.58 1.014 1.04.251.46.377 1.014.377 1.664V23h-1.469v-4.004c0-.641-.16-1.131-.481-1.469-.321-.347-.758-.52-1.313-.52-.555 0-.997.173-1.326.52-.321.338-.481.828-.481 1.469V23h-1.482v-9.62h1.482v3.289c.251-.303.568-.537.949-.702.39-.165.815-.247 1.274-.247Zm11.302 3.523c0 .269-.017.511-.052.728h-5.473c.044.572.256 1.031.637 1.378.382.347.85.52 1.404.52.798 0 1.361-.334 1.69-1.001h1.599a3.244 3.244 0 0 1-1.183 1.625c-.563.416-1.265.624-2.106.624-.684 0-1.3-.152-1.846-.455a3.403 3.403 0 0 1-1.274-1.3c-.303-.563-.455-1.213-.455-1.95 0-.737.148-1.382.442-1.937a3.204 3.204 0 0 1 1.261-1.3c.546-.303 1.17-.455 1.872-.455.676 0 1.279.147 1.807.442.529.295.941.71 1.235 1.248.295.529.442 1.14.442 1.833Zm-1.547-.468c-.008-.546-.203-.984-.585-1.313-.381-.33-.853-.494-1.417-.494a1.89 1.89 0 0 0-1.313.494c-.364.32-.58.758-.65 1.313h3.965Z"/><path fill="#fff" fill-rule="evenodd" d="M40.89 27.225c-.046-4.814 3.934-7.134 4.114-7.244-2.235-3.276-5.722-3.725-6.963-3.777-2.964-.298-5.785 1.747-7.29 1.747-1.5 0-3.824-1.702-6.28-1.654-3.234.046-6.213 1.878-7.878 4.77-3.356 5.827-.858 14.456 2.414 19.183 1.597 2.308 3.506 4.912 6.01 4.818 2.414-.095 3.323-1.558 6.236-1.558 2.914 0 3.733 1.558 6.286 1.51 2.592-.047 4.24-2.358 5.826-4.675C45.2 37.66 45.956 35.062 46 34.926c-.056-.02-5.057-1.94-5.11-7.7ZM36.101 13.08c1.33-1.612 2.223-3.849 1.978-6.08-1.914.076-4.236 1.278-5.607 2.885-1.233 1.427-2.312 3.704-2.02 5.889 2.136.166 4.318-1.084 5.65-2.693Z" clip-rule="evenodd"/></svg>