<svg xmlns="http://www.w3.org/2000/svg" width="21" height="24" fill="none"><path fill="#000" d="M15.369 0h.17c.137 1.693-.509 2.957-1.294 3.873-.77.91-1.825 1.792-3.531 1.658-.114-1.669.533-2.84 1.317-3.753.727-.852 2.06-1.61 3.338-1.778Zm5.165 17.617v.047c-.48 1.452-1.164 2.697-1.998 3.852-.762 1.049-1.696 2.46-3.363 2.46-1.441 0-2.398-.927-3.874-.952C9.737 23 8.878 23.8 7.449 24h-.486c-1.049-.152-1.895-.982-2.511-1.73-1.818-2.212-3.223-5.067-3.485-8.722v-1.074C1.078 9.858 2.35 7.73 4.038 6.7c.892-.548 2.118-1.015 3.482-.807.585.091 1.183.291 1.707.49.496.19 1.117.528 1.705.51.398-.011.794-.219 1.196-.365 1.176-.425 2.33-.912 3.849-.683 1.826.276 3.122 1.087 3.923 2.34-1.545.983-2.766 2.464-2.557 4.995.185 2.298 1.521 3.643 3.19 4.436Z"/></svg>