<svg xmlns="http://www.w3.org/2000/svg" width="101" height="100" fill="none"><g clip-path="url(#a)"><path fill="#FFB6B6" d="M51.395 65.279c8.964 0 16.23-7.267 16.23-16.231 0-8.964-7.266-16.231-16.23-16.231s-16.231 7.267-16.231 16.23c0 8.965 7.267 16.232 16.23 16.232Z"/><path fill="#FFB6B6" d="m42.077 67.679-.733-7.412 14.643-2.738 8.646 21.052-15.037 17.293-10.714-21.052 3.195-7.143Z"/><path fill="#2F2E41" d="m41.109 63.977 3.201.723s-2.517-7.98-1.662-8.742c.854-.762 2.947.439 2.947.439l2.2 2.466 2.679-2.728s2.909-3.617 4.048-4.633c1.139-1.016-.69-4.786-.69-4.786S70.727 42.16 64.44 33.964c0 0-3.687-6.425-4.887-4.332-1.2 2.093-2.632-1.232-2.632-1.232l-4.37.832s-8.628-5.087-16.815 5.795c-8.188 10.881 5.372 28.95 5.372 28.95Z"/><path fill="#EEE" d="M81.921 88.9C73.051 96.092 62.077 100 50.5 100c-10.572 0-20.641-3.26-29.064-9.3.015-.159.03-.315.043-.47.224-2.444.423-4.82.555-6.79.51-7.649 18.353-12.746 18.353-12.746s.081.08.243.221c.985.865 4.983 4 11.994 4.876 6.252.782 8.31-2.926 8.932-4.703a5.8 5.8 0 0 0 .245-.904l18.353 8.668c1.198 1.71 1.666 5.394 1.758 9.535.003.171.007.34.009.513Z"/></g><defs><clipPath id="a"><path fill="#fff" d="M.5 0h100v100H.5z"/></clipPath></defs></svg>