<svg width="21" height="20" viewBox="0 0 21 20" fill="none" xmlns="http://www.w3.org/2000/svg">
<g clip-path="url(#clip0_109_4456)">
<path d="M19.9164 9.16667C19.6954 9.16667 19.4834 9.07887 19.3272 8.92259C19.1709 8.76631 19.0831 8.55435 19.0831 8.33333C19.0813 6.56577 18.3784 4.8711 17.1285 3.62124C15.8787 2.37138 14.184 1.66843 12.4164 1.66667C12.1954 1.66667 11.9834 1.57887 11.8272 1.42259C11.6709 1.26631 11.5831 1.05435 11.5831 0.833335C11.5831 0.612321 11.6709 0.40036 11.8272 0.244079C11.9834 0.0877989 12.1954 1.54413e-06 12.4164 1.54413e-06C14.6258 0.00242788 16.744 0.881181 18.3063 2.44346C19.8686 4.00574 20.7473 6.12394 20.7498 8.33333C20.7498 8.55435 20.662 8.76631 20.5057 8.92259C20.3494 9.07887 20.1374 9.16667 19.9164 9.16667ZM17.4164 8.33333C17.4164 7.00725 16.8896 5.73548 15.952 4.7978C15.0143 3.86012 13.7425 3.33333 12.4164 3.33333C12.1954 3.33333 11.9834 3.42113 11.8272 3.57741C11.6709 3.73369 11.5831 3.94565 11.5831 4.16667C11.5831 4.38768 11.6709 4.59964 11.8272 4.75592C11.9834 4.9122 12.1954 5 12.4164 5C13.3005 5 14.1483 5.35119 14.7734 5.97631C15.3986 6.60143 15.7498 7.44928 15.7498 8.33333C15.7498 8.55435 15.8376 8.76631 15.9938 8.92259C16.1501 9.07887 16.3621 9.16667 16.5831 9.16667C16.8041 9.16667 17.0161 9.07887 17.1723 8.92259C17.3286 8.76631 17.4164 8.55435 17.4164 8.33333ZM19.2356 18.47L19.9939 17.5958C20.4766 17.1116 20.7476 16.4558 20.7476 15.7721C20.7476 15.0884 20.4766 14.4326 19.9939 13.9483C19.9681 13.9225 17.9631 12.38 17.9631 12.38C17.4819 11.9219 16.8427 11.6669 16.1783 11.6678C15.514 11.6687 14.8755 11.9256 14.3956 12.385L12.8073 13.7233C11.5107 13.1867 10.333 12.3993 9.34166 11.4063C8.35033 10.4132 7.56494 9.23411 7.03059 7.93667L8.36392 6.35333C8.82369 5.87348 9.08084 5.2349 9.08193 4.57034C9.08301 3.90578 8.82795 3.26636 8.36976 2.785C8.36976 2.785 6.82559 0.782502 6.79976 0.756668C6.3243 0.278125 5.67966 0.00585322 5.00511 -0.00131947C4.33057 -0.00849216 3.68028 0.25001 3.19476 0.718335L2.23642 1.55167C-3.42524 8.12 8.76642 20.2175 15.5514 20C16.2366 20.004 16.9156 19.8706 17.5483 19.6078C18.1811 19.3451 18.7548 18.9582 19.2356 18.47Z" fill="#2196F3"/>
</g>
<defs>
<clipPath id="clip0_109_4456">
<rect width="20" height="20" fill="white" transform="translate(0.75)"/>
</clipPath>
</defs>
</svg>
