<svg xmlns="http://www.w3.org/2000/svg" width="21" height="20" fill="none"><g clip-path="url(#a)"><path fill="#2196F3" d="M19.916 9.167a.833.833 0 0 1-.833-.834 6.673 6.673 0 0 0-6.667-6.666.833.833 0 1 1 0-1.667 8.343 8.343 0 0 1 8.334 8.333.833.833 0 0 1-.834.834Zm-2.5-.834a5 5 0 0 0-5-5 .833.833 0 1 0 0 1.667 3.333 3.333 0 0 1 3.334 3.333.834.834 0 0 0 1.666 0Zm1.82 10.137.758-.874a2.583 2.583 0 0 0 0-3.648c-.026-.026-2.03-1.568-2.03-1.568a2.583 2.583 0 0 0-3.568.005l-1.589 1.338a10.653 10.653 0 0 1-5.776-5.786l1.333-1.584a2.583 2.583 0 0 0 .006-3.568S6.826.783 6.8.757A2.568 2.568 0 0 0 3.195.718l-.959.834C-3.425 8.12 8.766 20.218 15.551 20a5.128 5.128 0 0 0 3.685-1.53Z"/></g><defs><clipPath id="a"><path fill="#fff" d="M.75 0h20v20h-20z"/></clipPath></defs></svg>