<svg xmlns="http://www.w3.org/2000/svg" viewBox="0 0 24 24"><circle cx="12" cy="13" r="4.5" fill="none" stroke="#303c42" stroke-linecap="round" stroke-linejoin="round"/><path fill="none" stroke="#303c42" stroke-linecap="round" stroke-linejoin="round" d="M9.5 13c0-1.4 1.1-2.5 2.5-2.5"/><circle cx="20" cy="9" r=".5" fill="none" stroke="#303c42" stroke-linecap="round" stroke-linejoin="round"/><path fill="none" stroke="#303c42" stroke-linecap="round" stroke-linejoin="round" d="M22 5.5h-4.7c-.5 0-1-.2-1.4-.6l-.8-.8c-.4-.4-.9-.6-1.4-.6h-3.4c-.5 0-1 .2-1.4.6l-.8.8c-.4.4-.9.6-1.4.6H2C1.2 5.5.5 6.2.5 7v12c0 .8.7 1.5 1.5 1.5h20c.8 0 1.5-.7 1.5-1.5V7c0-.8-.7-1.5-1.5-1.5z"/><path fill="none" stroke="#303c42" stroke-linecap="round" stroke-linejoin="round" d="M.5 8.5H2c.8 0 1.5.7 1.5 1.5v6c0 .8-.7 1.5-1.5 1.5H.5"/></svg>