<svg width="49" height="34" fill="none" xmlns="http://www.w3.org/2000/svg"><path d="M29.51 6.479a5.26 5.26 0 1 1-10.52 0 5.26 5.26 0 0 1 10.52 0ZM30.296 14.944a2.093 2.093 0 0 0-1.503.174 9.683 9.683 0 0 1-4.543 1.13 9.683 9.683 0 0 1-4.543-1.13 2.093 2.093 0 0 0-1.503-.174 6.014 6.014 0 0 0-4.475 5.814v9.018a3.006 3.006 0 0 0 3.006 3.006h15.03a3.006 3.006 0 0 0 3.006-3.006v-9.018c0-2.79-1.9-5.135-4.475-5.814ZM42.286 10.988a3.758 3.758 0 1 1-7.515 0 3.758 3.758 0 0 1 7.515 0ZM37.777 29.776h7.515a2.254 2.254 0 0 0 2.255-2.255v-3.757a6.007 6.007 0 0 0-4.844-5.892 2.743 2.743 0 0 0-1.506.135 7.436 7.436 0 0 1-3.42.458M6.214 10.988a3.758 3.758 0 1 0 7.515 0 3.758 3.758 0 0 0-7.515 0ZM10.723 29.776H3.208A2.254 2.254 0 0 1 .953 27.52v-3.757a6.007 6.007 0 0 1 4.844-5.892 2.743 2.743 0 0 1 1.506.135 7.436 7.436 0 0 0 3.42.458" stroke="#009640" stroke-width="2" stroke-miterlimit="10" stroke-linecap="round" stroke-linejoin="round"/></svg>