<svg xmlns="http://www.w3.org/2000/svg" width="246" height="104" fill="none"><g filter="url(#a)"><g filter="url(#b)"><rect width="198" height="56" x="24" y="16" fill="url(#c)" rx="6"/></g><path fill="#FF7243" d="m31.929 37.632 17.503 9.103a1.232 1.232 0 0 0 1.136 0l17.504-9.101v15.812a5.34 5.34 0 0 1-5.038 5.332l-.302.008H37.268a5.34 5.34 0 0 1-5.331-5.037l-.008-.303V37.632Zm5.339-8.418h25.464a5.34 5.34 0 0 1 5.331 5.037l.008.303v.302L50 44.253l-18.071-9.397v-.302a5.34 5.34 0 0 1 5.037-5.332l.302-.008h25.464-25.464Z"/><path fill="#3D3D3D" d="M82.27 41.12c-1.05 0-2-.23-2.85-.69-.84-.47-1.5-1.11-1.98-1.92-.48-.82-.72-1.74-.72-2.76 0-1.02.24-1.935.72-2.745a5.05 5.05 0 0 1 1.995-1.92c.85-.47 1.8-.705 2.85-.705.82 0 1.57.14 2.25.42.68.27 1.26.675 1.74 1.215l-.975.945c-.79-.83-1.775-1.245-2.955-1.245-.78 0-1.485.175-2.115.525-.63.35-1.125.835-1.485 1.455-.35.61-.525 1.295-.525 2.055 0 .76.175 1.45.525 2.07.36.61.855 1.09 1.485 1.44.63.35 1.335.525 2.115.525 1.17 0 2.155-.42 2.955-1.26l.975.945c-.48.54-1.065.95-1.755 1.23-.68.28-1.43.42-2.25.42Zm9.003-.03c-.79 0-1.5-.175-2.13-.525a3.877 3.877 0 0 1-1.485-1.44c-.35-.62-.525-1.32-.525-2.1s.175-1.475.525-2.085c.36-.62.855-1.1 1.485-1.44.63-.35 1.34-.525 2.13-.525.79 0 1.495.175 2.115.525.63.34 1.12.82 1.47 1.44.36.61.54 1.305.54 2.085s-.18 1.48-.54 2.1a3.77 3.77 0 0 1-1.47 1.44c-.62.35-1.325.525-2.115.525Zm0-1.26c.51 0 .965-.115 1.365-.345.41-.24.73-.57.96-.99.23-.43.345-.92.345-1.47 0-.55-.115-1.035-.345-1.455-.23-.43-.55-.76-.96-.99-.4-.23-.855-.345-1.365-.345s-.97.115-1.38.345c-.4.23-.72.56-.96.99-.23.42-.345.905-.345 1.455s.115 1.04.345 1.47c.24.42.56.75.96.99.41.23.87.345 1.38.345Zm10.361-6.855c1.01 0 1.81.295 2.4.885.6.58.9 1.435.9 2.565V41h-1.44v-4.41c0-.77-.185-1.35-.555-1.74-.37-.39-.9-.585-1.59-.585-.78 0-1.395.23-1.845.69-.45.45-.675 1.1-.675 1.95V41h-1.44v-7.95h1.38v1.2c.29-.41.68-.725 1.17-.945.5-.22 1.065-.33 1.695-.33Zm13.614.075v6.87c0 1.39-.345 2.415-1.035 3.075-.69.67-1.72 1.005-3.09 1.005-.75 0-1.465-.105-2.145-.315-.68-.2-1.23-.49-1.65-.87l.69-1.11c.37.32.825.57 1.365.75.55.19 1.115.285 1.695.285.93 0 1.615-.22 2.055-.66.45-.44.675-1.11.675-2.01v-.63c-.34.41-.76.72-1.26.93-.49.2-1.025.3-1.605.3-.76 0-1.45-.16-2.07-.48a3.71 3.71 0 0 1-1.44-1.365c-.35-.59-.525-1.26-.525-2.01 0-.75.175-1.415.525-1.995.35-.59.83-1.045 1.44-1.365.62-.32 1.31-.48 2.07-.48.6 0 1.155.11 1.665.33.52.22.945.545 1.275.975v-1.23h1.365Zm-4.14 6.36c.52 0 .985-.11 1.395-.33.42-.22.745-.525.975-.915.24-.4.36-.85.36-1.35 0-.77-.255-1.39-.765-1.86-.51-.48-1.165-.72-1.965-.72-.81 0-1.47.24-1.98.72-.51.47-.765 1.09-.765 1.86 0 .5.115.95.345 1.35.24.39.565.695.975.915.42.22.895.33 1.425.33Zm8.272-5.025c.25-.46.62-.81 1.11-1.05.49-.24 1.085-.36 1.785-.36v1.395c-.08-.01-.19-.015-.33-.015-.78 0-1.395.235-1.845.705-.44.46-.66 1.12-.66 1.98V41H118v-7.95h1.38v1.335Zm7.55-1.41c1.1 0 1.94.27 2.52.81.59.54.885 1.345.885 2.415V41h-1.365v-1.05c-.24.37-.585.655-1.035.855-.44.19-.965.285-1.575.285-.89 0-1.605-.215-2.145-.645-.53-.43-.795-.995-.795-1.695 0-.7.255-1.26.765-1.68.51-.43 1.32-.645 2.43-.645h2.28v-.285c0-.62-.18-1.095-.54-1.425-.36-.33-.89-.495-1.59-.495-.47 0-.93.08-1.38.24-.45.15-.83.355-1.14.615l-.6-1.08c.41-.33.9-.58 1.47-.75.57-.18 1.175-.27 1.815-.27Zm-.33 7.005c.55 0 1.025-.12 1.425-.36.4-.25.69-.6.87-1.05v-1.11h-2.22c-1.22 0-1.83.41-1.83 1.23 0 .4.155.715.465.945.31.23.74.345 1.29.345Zm10.87.555c-.21.18-.47.32-.78.42-.31.09-.63.135-.96.135-.8 0-1.42-.215-1.86-.645-.44-.43-.66-1.045-.66-1.845v-4.365h-1.35V33.05h1.35v-1.74h1.44v1.74h2.28v1.185h-2.28v4.305c0 .43.105.76.315.99.22.23.53.345.93.345.44 0 .815-.125 1.125-.375l.45 1.035Zm9.151-7.485V41h-1.365v-1.2c-.29.41-.675.73-1.155.96-.47.22-.985.33-1.545.33-1.06 0-1.895-.29-2.505-.87-.61-.59-.915-1.455-.915-2.595V33.05h1.44v4.41c0 .77.185 1.355.555 1.755.37.39.9.585 1.59.585.76 0 1.36-.23 1.8-.69.44-.46.66-1.11.66-1.95v-4.11h1.44Zm2.741-3.18h1.44V41h-1.44V29.87Zm7.085 3.105c1.1 0 1.94.27 2.52.81.59.54.885 1.345.885 2.415V41h-1.365v-1.05c-.24.37-.585.655-1.035.855-.44.19-.965.285-1.575.285-.89 0-1.605-.215-2.145-.645-.53-.43-.795-.995-.795-1.695 0-.7.255-1.26.765-1.68.51-.43 1.32-.645 2.43-.645h2.28v-.285c0-.62-.18-1.095-.54-1.425-.36-.33-.89-.495-1.59-.495-.47 0-.93.08-1.38.24-.45.15-.83.355-1.14.615l-.6-1.08c.41-.33.9-.58 1.47-.75.57-.18 1.175-.27 1.815-.27Zm-.33 7.005c.55 0 1.025-.12 1.425-.36.4-.25.69-.6.87-1.05v-1.11h-2.22c-1.22 0-1.83.41-1.83 1.23 0 .4.155.715.465.945.31.23.74.345 1.29.345Zm10.869.555c-.21.18-.47.32-.78.42-.31.09-.63.135-.96.135-.8 0-1.42-.215-1.86-.645-.44-.43-.66-1.045-.66-1.845v-4.365h-1.35V33.05h1.35v-1.74h1.44v1.74h2.28v1.185h-2.28v4.305c0 .43.105.76.315.99.22.23.53.345.93.345.44 0 .815-.125 1.125-.375l.45 1.035Zm1.741-7.485h1.44V41h-1.44v-7.95Zm.72-1.53a.986.986 0 0 1-.705-.27.898.898 0 0 1-.27-.66c0-.26.09-.48.27-.66a.958.958 0 0 1 .705-.285c.28 0 .51.09.69.27.19.17.285.385.285.645 0 .27-.095.5-.285.69-.18.18-.41.27-.69.27Zm6.875 9.57c-.79 0-1.5-.175-2.13-.525a3.877 3.877 0 0 1-1.485-1.44c-.35-.62-.525-1.32-.525-2.1s.175-1.475.525-2.085c.36-.62.855-1.1 1.485-1.44.63-.35 1.34-.525 2.13-.525.79 0 1.495.175 2.115.525.63.34 1.12.82 1.47 1.44.36.61.54 1.305.54 2.085s-.18 1.48-.54 2.1a3.77 3.77 0 0 1-1.47 1.44c-.62.35-1.325.525-2.115.525Zm0-1.26c.51 0 .965-.115 1.365-.345.41-.24.73-.57.96-.99.23-.43.345-.92.345-1.47 0-.55-.115-1.035-.345-1.455-.23-.43-.55-.76-.96-.99-.4-.23-.855-.345-1.365-.345s-.97.115-1.38.345c-.4.23-.72.56-.96.99-.23.42-.345.905-.345 1.455s.115 1.04.345 1.47c.24.42.56.75.96.99.41.23.87.345 1.38.345Zm10.361-6.855c1.01 0 1.81.295 2.4.885.6.58.9 1.435.9 2.565V41h-1.44v-4.41c0-.77-.185-1.35-.555-1.74-.37-.39-.9-.585-1.59-.585-.78 0-1.395.23-1.845.69-.45.45-.675 1.1-.675 1.95V41h-1.44v-7.95h1.38v1.2c.29-.41.68-.725 1.17-.945.5-.22 1.065-.33 1.695-.33Zm5.77-2.475h1.695l-.285 7.185h-1.14l-.27-7.185Zm.855 10.59a.986.986 0 0 1-.705-.27.94.94 0 0 1-.285-.69c0-.27.095-.495.285-.675a.958.958 0 0 1 .705-.285c.28 0 .51.095.69.285.18.18.27.405.27.675s-.095.5-.285.69a.916.916 0 0 1-.675.27ZM78.238 53.145l1.524-2.856h.719l-1.907 3.496V56h-.672v-2.184L76 50.29h.727l1.511 2.855Zm6.63.71c0 .698-.177 1.244-.528 1.637-.352.39-.837.586-1.457.586a1.93 1.93 0 0 1-1.02-.27 1.779 1.779 0 0 1-.687-.773c-.162-.336-.242-.729-.242-1.18 0-.697.174-1.24.523-1.628.349-.391.833-.586 1.453-.586.6 0 1.074.199 1.426.597.354.399.531.938.531 1.617Zm-3.262 0c0 .547.109.964.328 1.25.218.287.54.43.964.43.425 0 .746-.142.965-.426.222-.286.332-.704.332-1.254 0-.544-.11-.957-.332-1.238-.219-.284-.543-.426-.972-.426-.425 0-.745.14-.961.418-.217.279-.325.694-.325 1.246Zm5.011-2.136v2.777c0 .35.08.61.239.781.158.172.407.258.746.258.447 0 .774-.122.98-.367.208-.245.313-.645.313-1.2v-2.25h.648V56h-.535l-.094-.574h-.035a1.29 1.29 0 0 1-.555.484 1.846 1.846 0 0 1-.805.168c-.52 0-.91-.124-1.171-.371-.258-.247-.387-.643-.387-1.188v-2.8h.656Zm6.258-.078c.19 0 .36.015.512.047l-.09.601a2.207 2.207 0 0 0-.469-.059c-.346 0-.643.141-.89.422-.245.282-.368.632-.368 1.051V56h-.648v-4.281h.535l.074.793h.031c.16-.279.35-.494.575-.645a1.3 1.3 0 0 1 .738-.226ZM99.953 56l-.71-1.816h-2.29L96.25 56h-.672l2.258-5.734h.558L100.641 56h-.688Zm-.918-2.414-.664-1.77a9.482 9.482 0 0 1-.265-.824 7.42 7.42 0 0 1-.247.824l-.671 1.77h1.847Zm5.207 1.84h-.035c-.299.435-.747.652-1.344.652-.56 0-.996-.191-1.308-.574-.31-.383-.465-.927-.465-1.633s.156-1.254.469-1.644c.312-.391.747-.586 1.304-.586.581 0 1.026.21 1.336.632h.051l-.027-.308-.016-.3v-1.743h.648V56h-.527l-.086-.574Zm-1.297.11c.443 0 .763-.12.961-.36.201-.242.301-.632.301-1.168v-.137c0-.607-.102-1.039-.305-1.297-.2-.26-.522-.39-.964-.39-.381 0-.672.148-.876.445-.2.294-.3.71-.3 1.25 0 .547.1.96.3 1.238.201.279.495.418.883.418Zm6.203-.11h-.035c-.299.435-.747.652-1.343.652-.56 0-.997-.191-1.309-.574-.31-.383-.465-.927-.465-1.633s.156-1.254.469-1.644c.312-.391.747-.586 1.305-.586.58 0 1.026.21 1.335.632h.051l-.027-.308-.016-.3v-1.743h.649V56h-.528l-.086-.574Zm-1.296.11c.442 0 .763-.12.96-.36.201-.242.301-.632.301-1.168v-.137c0-.607-.101-1.039-.304-1.297-.201-.26-.523-.39-.965-.39-.38 0-.672.148-.875.445-.201.294-.301.71-.301 1.25 0 .547.1.96.301 1.238.2.279.495.418.883.418Zm8.746.464v-2.785c0-.341-.073-.597-.219-.766-.146-.172-.372-.258-.68-.258-.403 0-.702.116-.894.348-.193.232-.289.589-.289 1.07V56h-.649v-2.785c0-.341-.073-.597-.219-.766-.145-.172-.373-.258-.683-.258-.406 0-.705.123-.895.368-.187.242-.281.64-.281 1.195V56h-.648v-4.281h.527l.105.586h.032c.122-.209.294-.371.515-.489.224-.117.474-.175.75-.175.67 0 1.107.242 1.313.726h.031a1.37 1.37 0 0 1 .555-.531 1.72 1.72 0 0 1 .828-.195c.484 0 .846.125 1.086.375.242.247.363.644.363 1.191V56h-.648Zm2.636 0h-.648v-4.281h.648V56Zm-.703-5.441c0-.149.037-.257.11-.325a.378.378 0 0 1 .273-.105c.104 0 .194.035.27.105.075.07.113.179.113.325 0 .145-.038.255-.113.328a.384.384 0 0 1-.27.105.378.378 0 0 1-.273-.105c-.073-.073-.11-.183-.11-.328Zm4.84 4.273c0 .398-.148.706-.445.922-.297.216-.714.324-1.25.324-.568 0-1.011-.09-1.328-.27v-.601c.205.104.425.186.66.246.237.06.465.09.683.09.339 0 .599-.053.782-.16a.54.54 0 0 0 .273-.496.53.53 0 0 0-.219-.426c-.143-.12-.424-.26-.843-.422-.399-.148-.683-.277-.852-.387a1.196 1.196 0 0 1-.375-.379.993.993 0 0 1-.121-.504c0-.348.142-.623.426-.824.284-.203.673-.304 1.168-.304.461 0 .911.093 1.351.28l-.23.528c-.43-.177-.819-.265-1.168-.265-.307 0-.539.048-.695.144a.446.446 0 0 0-.235.399c0 .114.029.212.086.293.06.08.155.157.285.23.13.073.38.178.75.316.508.185.85.371 1.028.559a.984.984 0 0 1 .269.707Zm3.82 0c0 .398-.148.706-.445.922-.297.216-.713.324-1.25.324-.568 0-1.01-.09-1.328-.27v-.601c.206.104.426.186.66.246.237.06.465.09.684.09.338 0 .599-.053.781-.16a.54.54 0 0 0 .273-.496.531.531 0 0 0-.218-.426c-.144-.12-.425-.26-.844-.422-.399-.148-.682-.277-.852-.387a1.218 1.218 0 0 1-.375-.379 1.003 1.003 0 0 1-.121-.504c0-.348.142-.623.426-.824.284-.203.673-.304 1.168-.304.461 0 .911.093 1.352.28l-.231.528c-.43-.177-.819-.265-1.168-.265-.307 0-.539.048-.695.144a.448.448 0 0 0-.235.399c0 .114.029.212.086.293.06.08.155.157.286.23.13.073.38.178.75.316.507.185.85.371 1.027.559a.98.98 0 0 1 .269.707ZM128.898 56h-.648v-4.281h.648V56Zm-.703-5.441c0-.149.037-.257.11-.325a.378.378 0 0 1 .273-.105c.104 0 .194.035.27.105.075.07.113.179.113.325 0 .145-.038.255-.113.328a.384.384 0 0 1-.27.105.378.378 0 0 1-.273-.105c-.073-.073-.11-.183-.11-.328Zm5.774 3.297c0 .697-.176 1.243-.528 1.636-.351.39-.837.586-1.457.586a1.93 1.93 0 0 1-1.019-.27 1.783 1.783 0 0 1-.688-.773c-.161-.336-.242-.729-.242-1.18 0-.697.175-1.24.524-1.628.349-.391.833-.586 1.453-.586.599 0 1.074.199 1.426.597.354.399.531.938.531 1.617Zm-3.262 0c0 .546.109.963.328 1.25.219.286.541.43.965.43.424 0 .746-.143.965-.427.221-.286.332-.704.332-1.254 0-.544-.111-.957-.332-1.238-.219-.284-.543-.426-.973-.426-.424 0-.745.14-.961.418-.216.279-.324.694-.324 1.246ZM138.039 56v-2.77c0-.348-.079-.609-.238-.78-.159-.173-.408-.259-.746-.259-.448 0-.776.121-.985.364-.208.242-.312.642-.312 1.199V56h-.649v-4.281h.528l.105.586h.031c.133-.211.319-.374.559-.489a1.8 1.8 0 0 1 .801-.175c.515 0 .903.125 1.164.375.26.247.391.644.391 1.191V56h-.649Zm4.16 0v-5.71h.664V56h-.664Zm4.899-1.168c0 .398-.149.706-.446.922-.297.216-.713.324-1.25.324-.567 0-1.01-.09-1.328-.27v-.601c.206.104.426.186.66.246.237.06.465.09.684.09.339 0 .599-.053.781-.16a.54.54 0 0 0 .274-.496.53.53 0 0 0-.219-.426c-.143-.12-.425-.26-.844-.422-.398-.148-.682-.277-.851-.387a1.196 1.196 0 0 1-.375-.379.993.993 0 0 1-.122-.504c0-.348.142-.623.426-.824.284-.203.673-.304 1.168-.304.461 0 .912.093 1.352.28l-.231.528c-.429-.177-.819-.265-1.168-.265-.307 0-.539.048-.695.144a.447.447 0 0 0-.234.399.49.49 0 0 0 .086.293c.06.08.155.157.285.23.13.073.38.178.75.316.508.185.85.371 1.027.559a.98.98 0 0 1 .27.707Zm5.679-4.031c-.627 0-1.123.21-1.488.629-.362.416-.543.988-.543 1.715 0 .747.175 1.325.524 1.734.351.406.851.61 1.5.61.398 0 .852-.072 1.363-.216v.582c-.396.149-.884.223-1.465.223-.841 0-1.491-.255-1.949-.766-.456-.51-.684-1.235-.684-2.175 0-.589.11-1.104.328-1.547a2.39 2.39 0 0 1 .953-1.024c.417-.24.907-.359 1.469-.359.599 0 1.123.11 1.57.328l-.281.57a3.023 3.023 0 0 0-1.297-.304Zm6.2 3.054c0 .698-.176 1.244-.528 1.637-.351.39-.837.586-1.457.586-.383 0-.722-.09-1.019-.27a1.783 1.783 0 0 1-.688-.773c-.161-.336-.242-.729-.242-1.18 0-.697.174-1.24.523-1.628.349-.391.834-.586 1.454-.586.598 0 1.074.199 1.425.597.354.399.532.938.532 1.617Zm-3.262 0c0 .547.109.964.328 1.25.219.287.54.43.965.43.424 0 .746-.142.965-.426.221-.286.332-.704.332-1.254 0-.544-.111-.957-.332-1.238-.219-.284-.543-.426-.973-.426-.424 0-.745.14-.961.418-.216.279-.324.694-.324 1.246ZM165.574 56v-2.785c0-.341-.073-.597-.219-.766-.145-.172-.372-.258-.679-.258-.404 0-.702.116-.895.348-.192.232-.289.589-.289 1.07V56h-.648v-2.785c0-.341-.073-.597-.219-.766-.146-.172-.374-.258-.684-.258-.406 0-.704.123-.894.368-.188.242-.281.64-.281 1.195V56h-.649v-4.281h.528l.105.586h.031c.123-.209.295-.371.516-.489.224-.117.474-.175.75-.175.669 0 1.107.242 1.312.726h.032a1.36 1.36 0 0 1 .554-.531c.243-.13.519-.195.828-.195.485 0 .847.125 1.086.375.243.247.364.644.364 1.191V56h-.649Zm3.981.078a1.89 1.89 0 0 1-.766-.152 1.454 1.454 0 0 1-.578-.477h-.047c.031.25.047.487.047.711v1.762h-.649v-6.203h.528l.09.586h.031a1.51 1.51 0 0 1 .582-.508 1.77 1.77 0 0 1 .762-.156c.567 0 1.005.194 1.312.582.31.388.465.932.465 1.633 0 .703-.158 1.25-.473 1.64-.312.388-.747.582-1.304.582Zm-.094-3.887c-.438 0-.754.121-.949.364-.196.242-.296.627-.301 1.156v.145c0 .601.1 1.032.301 1.292.2.258.522.387.965.387a1 1 0 0 0 .867-.45c.211-.299.316-.711.316-1.237 0-.534-.105-.943-.316-1.227-.209-.286-.503-.43-.883-.43ZM173.117 56h-.648v-6.078h.648V56Zm3.184.078c-.633 0-1.133-.193-1.5-.578-.365-.385-.547-.92-.547-1.605 0-.69.169-1.239.508-1.645.341-.406.798-.61 1.371-.61.536 0 .961.178 1.273.532.313.351.469.816.469 1.394v.41h-2.949c.013.503.139.885.379 1.145.242.26.582.39 1.019.39.461 0 .917-.096 1.367-.288v.578c-.229.099-.446.17-.652.21a3.517 3.517 0 0 1-.738.067Zm-.176-3.894c-.344 0-.618.112-.824.336-.203.223-.323.533-.36.93h2.239c0-.41-.091-.722-.274-.938-.182-.219-.442-.328-.781-.328Zm4.242 3.359c.115 0 .225-.008.332-.023.107-.019.192-.037.254-.055v.496c-.07.034-.174.061-.312.082a2.184 2.184 0 0 1-.368.035c-.828 0-1.242-.436-1.242-1.309v-2.546h-.613v-.313l.613-.27.274-.913h.375v.992h1.242v.504h-1.242v2.52c0 .257.061.455.183.593a.64.64 0 0 0 .504.207Zm3.254.535c-.633 0-1.133-.193-1.5-.578-.364-.385-.547-.92-.547-1.605 0-.69.169-1.239.508-1.645.341-.406.798-.61 1.371-.61.537 0 .961.178 1.274.532.312.351.468.816.468 1.394v.41h-2.949c.013.503.139.885.379 1.145.242.26.582.39 1.02.39.46 0 .916-.096 1.367-.288v.578a3.31 3.31 0 0 1-.653.21 3.517 3.517 0 0 1-.738.067Zm-.176-3.894c-.343 0-.618.112-.824.336-.203.223-.323.533-.359.93h2.238c0-.41-.091-.722-.273-.938-.183-.219-.443-.328-.782-.328Zm5.774 3.242h-.035c-.3.435-.748.652-1.344.652-.56 0-.996-.191-1.309-.574-.31-.383-.465-.927-.465-1.633s.157-1.254.469-1.644c.313-.391.748-.586 1.305-.586.581 0 1.026.21 1.336.632h.051l-.028-.308-.015-.3v-1.743h.648V56h-.527l-.086-.574Zm-1.297.11c.443 0 .763-.12.961-.36.2-.242.301-.632.301-1.168v-.137c0-.607-.102-1.039-.305-1.297-.201-.26-.522-.39-.965-.39-.38 0-.672.148-.875.445-.2.294-.301.71-.301 1.25 0 .547.101.96.301 1.238.201.279.495.418.883.418Z"/><path fill="#3CD278" fill-rule="evenodd" d="M205 30.5a5.5 5.5 0 1 0 0 11 5.5 5.5 0 0 0 0-11Zm2.384 4.57a.498.498 0 0 0-.056-.713.505.505 0 0 0-.561-.055.512.512 0 0 0-.151.128l-2.15 2.58-1.112-1.113a.502.502 0 0 0-.848.355.497.497 0 0 0 .141.351l1.5 1.5a.503.503 0 0 0 .575.095.499.499 0 0 0 .162-.128l2.5-3Z" clip-rule="evenodd"/></g><defs><filter id="a" width="246" height="104" x="0" y="0" color-interpolation-filters="sRGB" filterUnits="userSpaceOnUse"><feFlood flood-opacity="0" result="BackgroundImageFix"/><feColorMatrix in="SourceAlpha" result="hardAlpha" values="0 0 0 0 0 0 0 0 0 0 0 0 0 0 0 0 0 0 127 0"/><feOffset dy="8"/><feGaussianBlur stdDeviation="12"/><feColorMatrix values="0 0 0 0 0.1216 0 0 0 0 0.1216 0 0 0 0 0.1984 0 0 0 0.06 0"/><feBlend in2="BackgroundImageFix" result="effect1_dropShadow_20_234"/><feBlend in="SourceGraphic" in2="effect1_dropShadow_20_234" result="shape"/></filter><filter id="b" width="246" height="104" x="0" y="-8" color-interpolation-filters="sRGB" filterUnits="userSpaceOnUse"><feFlood flood-opacity="0" result="BackgroundImageFix"/><feGaussianBlur in="BackgroundImage" stdDeviation="12"/><feComposite in2="SourceAlpha" operator="in" result="effect1_backgroundBlur_20_234"/><feBlend in="SourceGraphic" in2="effect1_backgroundBlur_20_234" result="shape"/></filter><radialGradient id="c" cx="0" cy="0" r="1" gradientTransform="matrix(0 28 -99 0 123 44)" gradientUnits="userSpaceOnUse"><stop stop-color="#fff" stop-opacity=".49"/><stop offset="1" stop-color="#fff" stop-opacity=".79"/></radialGradient></defs></svg>