<svg xmlns="http://www.w3.org/2000/svg" xml:space="preserve" width="512" height="512" style="enable-background:new 0 0 512 512" viewBox="0 0 682.667 682.667"><defs><clipPath id="a" clipPathUnits="userSpaceOnUse"><path fill="#009640" d="M0 512h512V0H0Z" data-original="#000000"/></clipPath></defs><g fill="none" stroke="#009640" stroke-miterlimit="10" stroke-width="30" clip-path="url(#a)" transform="matrix(1.33333 0 0 -1.33333 0 682.667)"><path d="M0 0h-360v91c0 33.137 26.863 60 60 60h240c33.137 0 60-26.863 60-60z" data-original="#000000" style="stroke-linecap:butt;stroke-linejoin:miter;stroke-miterlimit:10;stroke-dasharray:none;stroke-opacity:1" transform="translate(436 15)"/><path d="M0 0c-18.78 13.237-30 25.917-30 45 0 41.421 53.726 76 120 76s120-34.579 120-76c0-19.083-11.22-31.763-30-45" data-original="#000000" style="stroke-linecap:butt;stroke-linejoin:miter;stroke-miterlimit:10;stroke-dasharray:none;stroke-opacity:1" transform="translate(166 376)"/><path d="M0 0c0-33.137-40.294-60-90-60s-90 26.863-90 60" data-original="#000000" style="stroke-linecap:butt;stroke-linejoin:miter;stroke-miterlimit:10;stroke-dasharray:none;stroke-opacity:1" transform="translate(346 361)"/><path d="M0 0c-49.705 0-90 40.294-90 90v90H90V90C90 40.294 49.706 0 0 0Z" data-original="#000000" style="stroke-linecap:butt;stroke-linejoin:miter;stroke-miterlimit:10;stroke-dasharray:none;stroke-opacity:1" transform="translate(256 196)"/><path d="M0 0c13.321 51.757 60.305 91 116.22 91S219.118 51.757 232.439 0" data-original="#000000" style="stroke-linecap:butt;stroke-linejoin:miter;stroke-miterlimit:10;stroke-dasharray:none;stroke-opacity:1" transform="translate(139.78 15)"/><path d="m0 0 150-151" data-original="#000000" style="stroke-linecap:butt;stroke-linejoin:miter;stroke-miterlimit:10;stroke-dasharray:none;stroke-opacity:1" transform="translate(136 166)"/></g></svg>