<svg xmlns="http://www.w3.org/2000/svg" width="20" height="20" fill="none"><g clip-path="url(#a)"><path fill="#009640" d="M7.5 10c2.758 0 5-2.242 5-5 0-2.757-2.242-5-5-5s-5 2.243-5 5c0 2.758 2.242 5 5 5Zm0-8.333A3.337 3.337 0 0 1 10.833 5 3.337 3.337 0 0 1 7.5 8.333 3.337 3.337 0 0 1 4.167 5 3.337 3.337 0 0 1 7.5 1.667Zm1.458 11.85a5.84 5.84 0 0 0-7.292 5.65.834.834 0 0 1-1.666 0c0-4.135 3.365-7.5 7.5-7.5.635 0 1.266.079 1.875.236a.834.834 0 0 1-.416 1.614Zm10.31-3.618c-.945-.945-2.592-.945-3.536 0l-5.59 5.59a3.313 3.313 0 0 0-.976 2.357v1.322c0 .46.373.833.833.833h1.322c.89 0 1.727-.348 2.357-.977l5.589-5.589c.472-.473.732-1.1.732-1.768 0-.669-.26-1.296-.732-1.768Zm-1.18 2.357-5.59 5.589a1.652 1.652 0 0 1-1.178.488h-.488v-.488c0-.445.173-.863.488-1.178l5.59-5.59a.853.853 0 0 1 1.178 0 .825.825 0 0 1 .244.59.826.826 0 0 1-.244.589Z"/></g><defs><clipPath id="a"><path fill="#fff" d="M0 0h20v20H0z"/></clipPath></defs></svg>