<svg width="15" height="16" fill="none" xmlns="http://www.w3.org/2000/svg"><path d="M11.582 1.21 4.104 8.689a3.046 3.046 0 0 0-.898 2.168v.824a.613.613 0 0 0 .613.614h.824a3.047 3.047 0 0 0 2.168-.898l7.478-7.478a1.917 1.917 0 0 0 0-2.707 1.959 1.959 0 0 0-2.707 0Zm1.84 1.84-7.478 7.478a1.853 1.853 0 0 1-1.3.539h-.211v-.21c.001-.488.195-.956.538-1.301l7.478-7.478a.704.704 0 0 1 .973 0 .689.689 0 0 1 0 .973Z" fill="#6C757D"/><path d="M14.246 6.147a.613.613 0 0 0-.613.614v3.08H11.18a1.84 1.84 0 0 0-1.84 1.84v2.453H3.206a1.84 1.84 0 0 1-1.84-1.84V3.707a1.84 1.84 0 0 1 1.84-1.84h5.546a.613.613 0 0 0 0-1.227H3.206A3.07 3.07 0 0 0 .14 3.707v8.587a3.07 3.07 0 0 0 3.066 3.066h6.957a3.047 3.047 0 0 0 2.17-.898l1.628-1.63a3.047 3.047 0 0 0 .899-2.168V6.76a.613.613 0 0 0-.614-.614Zm-2.781 7.448a1.825 1.825 0 0 1-.899.49V11.68a.613.613 0 0 1 .614-.613h2.407a1.85 1.85 0 0 1-.49.898l-1.632 1.63Z" fill="#6C757D"/></svg>