<svg xmlns="http://www.w3.org/2000/svg" width="17" height="16" fill="none"><path fill="#0D6EFD" d="M16.011 6.232C14.978 4.502 12.627 1.6 8.5 1.6 4.374 1.6 2.022 4.503.989 6.232A3.43 3.43 0 0 0 .5 8c0 .625.17 1.237.489 1.768C2.022 11.498 4.374 14.4 8.5 14.4c4.127 0 6.478-2.902 7.511-4.632.32-.531.489-1.143.489-1.768 0-.624-.17-1.236-.489-1.768Zm-1.136 2.819c-.888 1.483-2.897 3.98-6.375 3.98s-5.487-2.497-6.375-3.98a2.04 2.04 0 0 1 0-2.101C3.013 5.466 5.022 2.97 8.5 2.97s5.487 2.493 6.375 3.98a2.04 2.04 0 0 1 0 2.1Z"/><path fill="#0D6EFD" d="M8.5 4.763c-.66 0-1.304.19-1.853.545A3.26 3.26 0 0 0 5.42 6.761a3.15 3.15 0 0 0-.19 1.87 3.21 3.21 0 0 0 .912 1.658c.466.453 1.06.761 1.707.886s1.317.061 1.926-.184a3.314 3.314 0 0 0 1.496-1.192A3.171 3.171 0 0 0 11.833 8a3.195 3.195 0 0 0-.978-2.288 3.388 3.388 0 0 0-2.356-.95Zm0 5.18c-.396 0-.783-.114-1.112-.328a1.956 1.956 0 0 1-.736-.872 1.89 1.89 0 0 1-.114-1.122c.077-.377.267-.723.547-.994.28-.272.636-.457 1.024-.532.388-.075.79-.037 1.156.11.365.148.678.396.897.716a1.903 1.903 0 0 1-.248 2.453 2.03 2.03 0 0 1-1.415.569Z"/></svg>