<svg xmlns="http://www.w3.org/2000/svg" xml:space="preserve" width="512" height="512" style="enable-background:new 0 0 512 512"><path fill="#009640" d="M294.15 102.334c-13.213 0-26.1 1.416-38.528 4.082.481-6.035.728-12.09.728-18.151V47.599l-3.825-4.272C250.941 41.558 212.95 0 145.35 0S39.759 41.558 38.175 43.327l-3.825 4.272v40.666c0 47.772 15.121 95.24 42.667 134.248V512h136.667v-61.278c24.31 11.912 51.619 18.612 80.467 18.612 101.182 0 183.5-82.318 183.5-183.5s-82.319-183.5-183.501-183.5zM107.017 482V335h76.666v147zM64.35 59.65c9.716-8.679 37.682-29.65 81-29.65 43.422 0 71.277 20.917 81 29.636v28.629c0 40.583-12.525 80.915-35.402 114.401H160.35v-64h-30v64H99.753C76.875 169.179 64.35 128.848 64.35 88.265zm383.3 226.183c0 5.746-.328 11.416-.946 17h-33.721v-34h33.721c.618 5.585.946 11.254.946 17zM213.683 238.27c16.303-27.476 46.267-45.936 80.467-45.936 41.372 0 76.548 27.012 88.833 64.324v58.353c-12.285 37.311-47.461 64.324-88.833 64.324-34.2 0-64.164-18.461-80.467-45.936zm-106.666-5.603h76.666V305h-76.666zM294.15 132.333c68.252 0 126.233 44.78 146.13 106.5h-31.931c-18.528-44.852-62.734-76.5-114.199-76.5-19.643 0-38.224 4.617-54.729 12.811a235.73 235.73 0 0 0 11.349-36.559 153.052 153.052 0 0 1 43.38-6.252zm0 307c-29.488 0-57.054-8.366-80.467-22.836v-37.054c21.63 18.619 49.756 29.89 80.467 29.89 51.465 0 95.671-31.647 114.199-76.5h31.931c-19.897 61.72-77.878 106.5-146.13 106.5z" data-original="#000000"/></svg>