<svg width="16" height="40" viewBox="0 0 16 40" fill="none" xmlns="http://www.w3.org/2000/svg">
<path d="M0 16.6248H11.6348V23.7799C11.6348 27.1595 10.4358 30.0582 8.04376 32.4607C6.18082 34.3311 4.01813 35.4746 1.5482 35.8927C1.71007 37.381 1.30091 38.8377 0.469107 40.0023C4.47675 39.7565 7.93136 38.1799 10.8419 35.2738C14.0163 32.0995 15.6049 28.2642 15.6049 23.7785V12.6562H2.44595L0 16.6248Z" fill="#006633"/>
<path fill-rule="evenodd" clip-rule="evenodd" d="M7.44439 0.185934C4.54881 0.962284 2.83125 3.93879 3.6061 6.83436C4.38245 9.72994 7.35896 11.449 10.2545 10.6726C13.1501 9.8963 14.8692 6.91979 14.0928 4.02422C13.318 1.12864 10.3415 -0.588917 7.44439 0.185934Z" fill="#009640"/>
</svg>
