<svg width="25" height="24" viewBox="0 0 25 24" fill="none" xmlns="http://www.w3.org/2000/svg">
<path d="M5.56891 14.5035L4.7335 17.6222L1.68011 17.6868C0.767594 15.9943 0.25 14.0578 0.25 12C0.25 10.0101 0.733938 8.13361 1.59175 6.48131H1.59241L4.31078 6.97968L5.50159 9.68175C5.25236 10.4084 5.11652 11.1884 5.11652 12C5.11661 12.8809 5.27617 13.7249 5.56891 14.5035Z" fill="#FBBB00"/>
<path d="M24.0403 9.75826C24.1781 10.4842 24.25 11.2338 24.25 12C24.25 12.8591 24.1597 13.6972 23.9876 14.5055C23.4034 17.2563 21.877 19.6583 19.7625 21.358L19.7619 21.3574L16.3379 21.1827L15.8534 18.1576C17.2564 17.3348 18.3529 16.0471 18.9305 14.5055H12.5138V9.75826H24.0403Z" fill="#518EF8"/>
<path d="M19.7619 21.3574L19.7625 21.358C17.7061 23.011 15.0937 24 12.25 24C7.68011 24 3.70694 21.4457 1.68011 17.6868L5.56891 14.5035C6.5823 17.2081 9.19132 19.1334 12.25 19.1334C13.5647 19.1334 14.7964 18.778 15.8533 18.1576L19.7619 21.3574Z" fill="#28B446"/>
<path d="M19.9095 2.76262L16.0221 5.94525C14.9282 5.26153 13.6352 4.86656 12.25 4.86656C9.12206 4.86656 6.46425 6.88017 5.50163 9.68175L1.59239 6.48131H1.59174C3.58889 2.63077 7.61217 0 12.25 0C15.1616 0 17.8313 1.03716 19.9095 2.76262Z" fill="#F14336"/>
</svg>
