<svg xmlns="http://www.w3.org/2000/svg" version="1.1" xmlns:xlink="http://www.w3.org/1999/xlink" width="512" height="512" x="0" y="0" viewBox="0 0 512 512" style="enable-background:new 0 0 512 512" xml:space="preserve"><g><path d="M408 216a24 24 0 1 0 24 24 24.027 24.027 0 0 0-24-24Zm0 32a8 8 0 1 1 8-8 8.01 8.01 0 0 1-8 8ZM320 192h16v80h-16zM408 72a32.036 32.036 0 0 1 32 32 8 8 0 0 0 16 0 32.036 32.036 0 0 1 32-32 8 8 0 0 0 0-16 32.036 32.036 0 0 1-32-32 8 8 0 0 0-16 0 32.036 32.036 0 0 1-32 32 8 8 0 0 0 0 16Zm40-21.493A48.392 48.392 0 0 0 461.493 64 48.392 48.392 0 0 0 448 77.493 48.392 48.392 0 0 0 434.507 64 48.392 48.392 0 0 0 448 50.507Z" fill="#009640" opacity="1" data-original="#000000"></path><path d="M466.914 335.445A7.996 7.996 0 0 0 472 328v-32a8 8 0 0 0-8-8v-64a40.192 40.192 0 0 0-16-32l-16-12v-36h9.441l6.714 33.569 15.69-3.138-8-40A8 8 0 0 0 448 128h-88v16h24v21.578l-10.26 15.39a40.168 40.168 0 0 0-17.16-21.15L336 147.47V112a8 8 0 0 0-8-8h-40a7.973 7.973 0 0 0-5.696 2.386l29.285-87.856-15.178-5.06-55.37 166.107-19.83-9.915L271.59 18.53l-15.178-5.06-102.276 306.827A7.99 7.99 0 0 0 152 320a32.036 32.036 0 0 1-32-32 8 8 0 0 0-16 0 32.036 32.036 0 0 1-32 32 8 8 0 0 0 0 16 32.036 32.036 0 0 1 32 32 8 8 0 0 0 16 0 32.043 32.043 0 0 1 28.849-31.843L122.234 416H40a24.027 24.027 0 0 0-24 24v16a8 8 0 0 0 8 8h8v32h16v-32h16v32h16v-32h16v32h16v-32h16v32h16v-32h16v32h16v-32h16v32h16v-32h16v32h16v-32h16v32h16v-32h8a8 8 0 0 0 8-8v-16a24.027 24.027 0 0 0-24-24h-8v-80h18.234l30.177 90.53A8 8 0 0 0 312 432h136v40a8.01 8.01 0 0 1-8 8H288v16h152a24.027 24.027 0 0 0 24-24v-40h24a8 8 0 0 0 7.59-10.53ZM112 341.493A48.392 48.392 0 0 0 98.507 328 48.392 48.392 0 0 0 112 314.507 48.392 48.392 0 0 0 125.493 328 48.392 48.392 0 0 0 112 341.493Zm256-115.804a23.927 23.927 0 0 1 4.03-13.313l26.626-39.938A7.996 7.996 0 0 0 400 168v-24h16v40a8 8 0 0 0 3.2 6.4l19.2 14.4A24.116 24.116 0 0 1 448 224v64h-80ZM296 120h24v24h-24Zm-16-6.702v34.172l-14.239 8.544Zm-24 80.82a24.122 24.122 0 0 1 11.652-20.58L290.215 160h35.57l22.563 13.538A24.122 24.122 0 0 1 360 194.118v7.46l-1.282 1.923A39.873 39.873 0 0 0 352 225.689V288h-96ZM240 336v80h-60.9L240 233.298V288a8 8 0 0 0-8 8v32a8 8 0 0 0 8 8Zm-23.899-151.005 19.83 9.915-14.318 42.953-19.83-9.915Zm-19.429 58.285 19.83 9.915L162.234 416H139.1ZM264 432a8.01 8.01 0 0 1 8 8v8H32v-8a8.01 8.01 0 0 1 8-8Zm184-16H317.766L291.1 336H448Zm8-96H248v-16h208Zm8 96v-38.702L476.9 416Z" fill="#009640" opacity="1" data-original="#000000"></path><path d="M47.112 220.577a58.659 58.659 0 0 0 21.286 33.32L16.977 348.17l14.046 7.662 51.252-93.962a58.432 58.432 0 0 0 75.562-31.181L225.311 73.25A41.07 41.07 0 0 0 187.561 16h-2.057a41.035 41.035 0 0 0-33.962 17.976L55.783 174.797a58.644 58.644 0 0 0-8.671 45.78Zm21.902-36.783 95.758-140.82A25.05 25.05 0 0 1 185.504 32h2.057a25.07 25.07 0 0 1 23.044 34.947l-67.474 157.438a42.416 42.416 0 0 1-53.119 23.299L175.023 91.83l-14.046-7.662L76.18 239.632a42.465 42.465 0 0 1-7.165-55.838ZM24 72a32.036 32.036 0 0 1 32 32 8 8 0 0 0 16 0 32.036 32.036 0 0 1 32-32 8 8 0 0 0 0-16 32.036 32.036 0 0 1-32-32 8 8 0 0 0-16 0 32.036 32.036 0 0 1-32 32 8 8 0 0 0 0 16Zm40-21.493A48.392 48.392 0 0 0 77.493 64 48.392 48.392 0 0 0 64 77.493 48.392 48.392 0 0 0 50.507 64 48.392 48.392 0 0 0 64 50.507Z" fill="#009640" opacity="1" data-original="#000000"></path></g></svg>