<svg width="30" height="42" fill="none" xmlns="http://www.w3.org/2000/svg"><path d="M21.417 7.667a6.667 6.667 0 1 1-13.334 0 6.667 6.667 0 0 1 13.334 0ZM22.412 18.395a2.652 2.652 0 0 0-1.905.22 12.273 12.273 0 0 1-5.757 1.433c-2.082 0-4.037-.523-5.757-1.432a2.652 2.652 0 0 0-1.905-.221 7.622 7.622 0 0 0-5.671 7.367V37.19A3.81 3.81 0 0 0 5.227 41h19.047a3.81 3.81 0 0 0 3.81-3.81V25.762a7.621 7.621 0 0 0-5.672-7.367Z" stroke="#009640" stroke-width="2" stroke-miterlimit="10" stroke-linecap="round" stroke-linejoin="round"/></svg>