<svg xmlns="http://www.w3.org/2000/svg" version="1.1" xmlns:xlink="http://www.w3.org/1999/xlink" width="512" height="512" x="0" y="0" viewBox="0 0 62 62" style="enable-background:new 0 0 512 512" xml:space="preserve"><g><circle cx="27" cy="41" r="1" fill="#009640" opacity="1" data-original="#000000"></circle><circle cx="35" cy="41" r="1" fill="#009640" opacity="1" data-original="#000000"></circle><path d="M32 46h-4v2h4c2.206 0 4-1.794 4-4h-2c0 1.103-.897 2-2 2z" fill="#009640" opacity="1" data-original="#000000"></path><path d="M62 33c0-1.654-1.346-3-3-3h-1v-8c1.103 0 2-.897 2-2v-2c0-1.103-.897-2-2-2h-4v-4h-2v4h-2V8h-2v8h-2v-4h-2v4h-2V2c0-1.103-.897-2-2-2H22c-1.103 0-2 .897-2 2v14h-2v-4h-2v4h-2V8h-2v8h-2v-4H8v4H4c-1.103 0-2 .897-2 2v2c0 1.103.897 2 2 2v10.521C1.559 34.541 0 37.592 0 41v11a5.991 5.991 0 0 0 4.021 5.654C4.016 57.77 4 57.884 4 58v4h16v-4c0-.116-.016-.23-.021-.346a5.942 5.942 0 0 0 2.056-1.23c-.012.192-.035.382-.035.576v5h18v-5a8.998 8.998 0 0 0-2.747-6.453 7.053 7.053 0 0 0 1.736-1.942A3.975 3.975 0 0 0 42 50h.685a7.03 7.03 0 0 0 1.738 2.284A7.99 7.99 0 0 0 42 58v4h16v-4a7.987 7.987 0 0 0-2.423-5.716A7.03 7.03 0 0 0 57.315 50H58c2.206 0 4-1.794 4-4 0-.562-.119-1.097-.329-1.583.209-1.18.329-2.38.329-3.58zm-2 0v7.838c0 .558-.03 1.117-.081 1.674A3.952 3.952 0 0 0 58 42h-.184A2.996 2.996 0 0 0 55 40h-3c-2.206 0-4-1.794-4-4h-2c0 .716.126 1.403.357 2.041a4.976 4.976 0 0 0-2.498 1.077c.085-.758.14-1.518.14-2.28 0-1.068-.161-2.099-.451-3.075A8.839 8.839 0 0 1 48.838 32H59a1 1 0 0 1 1 1zm-34-1c0 .726.136 1.419.373 2.063-2.128.27-3.849 1.86-4.272 3.937H22c-.699 0-1.347.196-1.919.512A18.372 18.372 0 0 1 20 36.838C20 31.965 23.965 28 28.838 28h4.324C38.035 28 42 31.965 42 36.838c0 .558-.03 1.117-.081 1.674A3.952 3.952 0 0 0 40 38h-.184A2.996 2.996 0 0 0 37 36h-5c-2.206 0-4-1.794-4-4zm14-3.561c-.613-.5-1.286-.927-2-1.285V8H24v19.154c-.714.358-1.387.785-2 1.285V6h18zM36 20h-4v-4h4zm0-6h-4v-4h4zm-6 0h-4v-4h4zm-4 2h4v4h-4zm0 6h4v4h-1.162c-.983 0-1.932.143-2.838.39zm6 0h4v4.39a10.766 10.766 0 0 0-2.838-.39H32zM22 40v4c-1.103 0-2-.897-2-2s.897-2 2-2zm18 4v-4c1.103 0 2 .897 2 2s-.897 2-2 2zm16-14h-7.162c-2.172 0-4.277.66-6.058 1.862a10.891 10.891 0 0 0-.78-1.275V22h14zm2-12v2H42v-2zM40 2v2H22V2zM4 18h16v2H4zm2 4h14v8.587c-.3.423-.569.868-.807 1.333A10.988 10.988 0 0 0 13 30h-2c-1.801 0-3.498.444-5 1.214zM2 52V41c0-4.963 4.037-9 9-9h2c1.97 0 3.875.65 5.433 1.832A10.775 10.775 0 0 0 18 36.838c0 1.165.117 2.331.315 3.479A2.956 2.956 0 0 0 17 40h-3c-2.206 0-4-1.794-4-4H8c0 .716.126 1.403.357 2.041A5.008 5.008 0 0 0 4 43v4c0 2.109.942 4 2.423 5.284a7.978 7.978 0 0 0-2.052 3.356A3.991 3.991 0 0 1 2 52zm11 0h-2c-2.757 0-5-2.243-5-5v-4c0-1.654 1.346-3 3-3h.531c1.1 1.227 2.695 2 4.469 2h3a1 1 0 0 1 1 1v4c0 2.757-2.243 5-5 5zm5 8H6v-2c0-1.791.805-3.47 2.167-4.605A6.945 6.945 0 0 0 11 54h2a6.945 6.945 0 0 0 2.833-.605A5.995 5.995 0 0 1 18 58zm4-8c0 1.605-.96 3.009-2.371 3.64a7.989 7.989 0 0 0-2.052-3.356A6.981 6.981 0 0 0 20 47v-1.556A3.959 3.959 0 0 0 22 46zm2-2.111c.232.237.483.455.747.658a8.909 8.909 0 0 0-.747.821zM38 57v3H24v-3c0-2.118.97-4.106 2.604-5.432A6.93 6.93 0 0 0 29 52h4a6.93 6.93 0 0 0 2.396-.432A7.002 7.002 0 0 1 38 57zm-5-7h-4c-2.757 0-5-2.243-5-5v-6c0-1.654 1.346-3 3-3h.54A5.98 5.98 0 0 0 32 38h5a1 1 0 0 1 1 1v6c0 2.757-2.243 5-5 5zm9-2c-1.103 0-2-.897-2-2 .732 0 1.409-.212 2-.556V47c0 .34.033.672.08 1zm14 10v2H44v-2c0-1.791.805-3.47 2.167-4.605A6.945 6.945 0 0 0 49 54h2a6.945 6.945 0 0 0 2.833-.605A5.995 5.995 0 0 1 56 58zm0-11c0 2.757-2.243 5-5 5h-2c-2.757 0-5-2.243-5-5v-4c0-1.654 1.346-3 3-3h.531c1.1 1.227 2.695 2 4.469 2h3a1 1 0 0 1 1 1zm2 1h-.08c.047-.328.08-.66.08-1v-3c1.103 0 2 .897 2 2s-.897 2-2 2z" fill="#009640" opacity="1" data-original="#000000"></path><path d="M8 24h2v2H8zM12 24h2v2h-2zM16 24h2v2h-2zM52 24h2v2h-2zM48 24h2v2h-2zM44 24h2v2h-2z" fill="#009640" opacity="1" data-original="#000000"></path></g></svg>