<svg width="32" height="32" fill="none" xmlns="http://www.w3.org/2000/svg"><g clip-path="url(#a)"><path d="M22.5 12.5a3 3 0 1 0 0-6 3 3 0 0 0 0 6Z" fill="#A83229"/><path d="M20.5 31.5h-17L12 23l8.5 8.5Z" fill="#4A9BF6"/><path d="M31.5 3.5v25a3 3 0 0 1-3 3h-2L15 20l3.805-3.805A51.428 51.428 0 0 0 22.5 20.5s7-7.135 7-11c0-1.12-.269-2.222-.785-3.215L31.5 3.5Z" fill="#D3D9F2"/><path d="m31.5 3.5-2.785 2.785a6.954 6.954 0 0 0-3-3L28.5.5a3 3 0 0 1 3 3Z" fill="#FFDF64"/><path d="M26.5 31.5h-6L12 23l3-3 11.5 11.5Z" fill="#F7F7FF"/><path d="M18.805 16.195 15 20l-3 3-8.5 8.5a3 3 0 0 1-3-3l15.945-15.945a25.327 25.327 0 0 0 2.36 3.64Z" fill="#FFDF64"/><path d="m28.5.5-2.785 2.785A6.995 6.995 0 0 0 15.5 9.5a7.075 7.075 0 0 0 .945 3.055L.5 28.5v-25a3 3 0 0 1 3-3h25Z" fill="#28BE77"/><path d="M28.715 6.285c.516.993.786 2.096.785 3.215 0 3.865-7 11-7 11a51.46 51.46 0 0 1-3.695-4.305 25.327 25.327 0 0 1-2.36-3.64A7.075 7.075 0 0 1 15.5 9.5a7 7 0 0 1 13.215-3.215ZM25.5 9.5a3 3 0 1 0-6 0 3 3 0 0 0 6 0Z" fill="#D73D3F"/><path d="m5.5 29.5-2 2h17l-2-2h-13Z" fill="#3B7CC4"/><path d="M28.5 29.5h-4l2 2h2a3 3 0 0 0 3-3v-2a3 3 0 0 1-3 3Z" fill="#AEB2D4"/><path d="M31.059 3.942c.288.468.441 1.008.441 1.558v-2l-.441.442Z" fill="#B8BCE0"/><path d="M28.5 2.5a2.996 2.996 0 0 1 2.558 1.442L31.5 3.5a3 3 0 0 0-3-3l-2 2h2Z" fill="#FFB844"/><path d="m18.5 29.5 2 2h6l-2-2h-6Z" fill="#CACFE8"/><path d="M3.5 29.5a2.996 2.996 0 0 1-2.558-1.442L.5 28.5a3 3 0 0 0 3 3l2-2h-2Z" fill="#FFB844"/><path d="M.5 26.5v2l.442-.442A2.972 2.972 0 0 1 .5 26.5Zm3-24h23l2-2h-25a3 3 0 0 0-3 3v2a3 3 0 0 1 3-3Z" fill="#1FA463"/><path d="M6.5 11a4.5 4.5 0 1 1 3.513-7.313L8.45 4.938A2.5 2.5 0 1 0 8.792 7.5H6.5v-2H10a1 1 0 0 1 1 1A4.506 4.506 0 0 1 6.5 11Z" fill="#F7F7FF"/><path d="M22.5 8.5a3 3 0 0 1 2.825 2 3 3 0 1 0-5.65 0 3 3 0 0 1 2.825-2Z" fill="#91323C"/><path d="M15.6 10.355a7.019 7.019 0 0 0-.1 1.145c.018.57.13 1.133.334 1.666l.611-.611a8.979 8.979 0 0 1-.845-2.2Z" fill="#1FA463"/><path d="M29.397 10.367C28.54 14.34 22.5 20.5 22.5 20.5a51.428 51.428 0 0 1-3.695-4.305l-.84.84c.272.392.552.779.84 1.16A51.428 51.428 0 0 0 22.5 22.5s7-7.135 7-11a6.924 6.924 0 0 0-.103-1.133Z" fill="#AEB2D4"/><path d="m16.445 12.555-.611.611c.17.477.375.94.611 1.389.45.86.959 1.688 1.52 2.48l.84-.84a25.327 25.327 0 0 1-2.36-3.64Z" fill="#FFB844"/></g><defs><clipPath id="a"><path fill="#fff" d="M0 0h32v32H0z"/></clipPath></defs></svg>