<svg width="500" height="500" viewBox="0 0 500 500" fill="none" xmlns="http://www.w3.org/2000/svg">
<path d="M85.4999 417.998C174.3 463.398 318.2 463.398 406.9 417.998C495.7 372.598 495.7 298.998 406.9 253.698C318.1 208.298 174.2 208.298 85.4999 253.698C-3.30009 299.098 -3.30009 372.598 85.4999 417.998Z" fill="#F5F5F5"/>
<path d="M375.7 345.497C380.6 348.297 390.1 347.297 397.1 343.297L437 320.097C443.9 316.097 445.6 310.597 440.7 307.797C435.8 304.997 426.3 305.897 419.3 309.997L379.4 333.197C372.5 337.197 370.9 342.697 375.7 345.497Z" fill="#EBEBEB"/>
<path d="M135.3 366.9L94.7 343.4L135.3 320V366.9Z" fill="#EBEBEB"/>
<path d="M250.1 380.898L184.6 343.098L250.1 305.398V380.898Z" fill="#EBEBEB"/>
<path d="M80.4001 312.105C80.5001 302.605 73.9001 282.805 64.2001 270.405C54.5001 257.905 39.1001 248.705 28.0001 252.405C17.7001 255.805 18.7001 269.305 31.0001 278.305C43.3001 287.405 61.9001 298.805 67.2001 314.305L78.5001 333.305L80.4001 312.105Z" fill="#009640"/>
<path opacity="0.1" d="M80.4001 312.105C80.5001 302.605 73.9001 282.805 64.2001 270.405C54.5001 257.905 39.1001 248.705 28.0001 252.405C17.7001 255.805 18.7001 269.305 31.0001 278.305C43.3001 287.405 61.9001 298.805 67.2001 314.305L78.5001 333.305L80.4001 312.105Z" fill="black"/>
<path d="M80.9001 325.105C80.6001 325.105 80.3001 324.805 80.3001 324.505C74.3001 292.005 48.4001 265.305 32.8001 259.305C32.4001 259.205 32.3001 258.805 32.4001 258.405C32.5001 258.005 32.9001 257.905 33.3001 258.005C49.2001 264.105 75.6001 291.205 81.7001 324.205C81.8001 324.605 81.5001 324.905 81.1001 325.005C81.0001 325.105 81.0001 325.105 80.9001 325.105Z" fill="white"/>
<path d="M75.8002 345.807C74.3002 340.407 67.9002 331.507 57.5002 324.107C45.9002 315.907 31.2002 312.007 27.9002 305.707C23.9002 298.107 30.3002 291.107 42.3002 292.707C54.3002 294.307 75.2002 310.907 78.2002 335.607L75.8002 345.807Z" fill="#009640"/>
<path d="M78.2002 340.208C77.9002 340.208 77.7002 340.008 77.6002 339.708C68.0002 311.808 46.9002 301.808 37.1002 300.408C36.7002 300.308 36.5002 300.008 36.5002 299.608C36.6002 299.208 36.9002 299.008 37.3002 299.008C48.1002 300.508 69.1002 310.708 78.9002 339.208C79.0002 339.608 78.8002 340.008 78.5002 340.108C78.4002 340.208 78.3002 340.208 78.2002 340.208Z" fill="white"/>
<path d="M434.9 285.002C434.9 285.002 436.2 265.002 448 250.102C459.8 235.202 459.1 229.102 450.9 226.102C442.8 223.102 423.9 241.002 428.1 265.002C432.3 289.002 434.9 285.002 434.9 285.002Z" fill="#009640"/>
<path opacity="0.1" d="M434.9 285.002C434.9 285.002 436.2 265.002 448 250.102C459.8 235.202 459.1 229.102 450.9 226.102C442.8 223.102 423.9 241.002 428.1 265.002C432.3 289.002 434.9 285.002 434.9 285.002Z" fill="black"/>
<path d="M431.3 273.602C431.1 273.602 430.9 273.402 430.8 273.202C429.4 251.102 445 233.002 450.8 228.902C451 228.802 451.3 228.802 451.4 229.002C451.5 229.202 451.5 229.502 451.3 229.602C445.6 233.602 430.3 251.402 431.7 273.002C431.8 273.302 431.6 273.602 431.3 273.602Z" fill="white"/>
<path d="M431.7 301.605C431.7 301.605 438.8 304.105 448 305.505C457.1 306.905 461.2 302.605 461.2 302.605C461.2 302.605 457.6 294.005 452.4 291.605C452.4 291.605 461.2 293.405 468.3 298.105C468.3 298.105 473.9 298.205 476.1 289.705C476.1 289.705 472.8 284.605 461.7 281.805C461.7 281.805 468.5 280.105 478.2 282.605C478.9 282.905 482 271.905 483 266.805C483.9 261.705 481.9 261.805 477.9 260.705C473.9 259.605 460.8 256.705 458.3 258.905C455.8 261.105 454.6 268.505 454.6 268.505C454.6 268.505 453 264.105 454.2 259.105C454.2 259.105 450.6 257.705 445.1 259.305C440.6 260.605 440.4 263.705 440.6 267.205C440.7 269.705 441.4 272.505 442.6 276.005C442.6 276.005 439.1 271.505 439 261.705C439 261.705 429.7 266.305 428.2 275.505C427.1 280.405 425.9 295.005 431.7 301.605Z" fill="#009640"/>
<path d="M433.5 299.803C433.7 299.803 433.9 299.703 434 299.503C441.4 284.203 468.8 266.403 478.6 264.503C478.9 264.403 479.1 264.203 479 263.903C478.9 263.603 478.7 263.403 478.4 263.503C468.4 265.403 440.5 283.503 433 299.103C432.9 299.403 433 299.703 433.2 299.803C433.3 299.803 433.4 299.803 433.5 299.803Z" fill="white"/>
<path d="M76.8 352.895C75.7 352.895 75 351.995 75 350.395V182.095L281 63.1953V230.695C281 233.295 279.2 236.395 277 237.695L78.4 352.395C77.8 352.695 77.3 352.895 76.8 352.895Z" fill="#FAFAFA"/>
<path d="M280.4 64.1953V230.695C280.4 232.995 278.7 235.995 276.7 237.195L78.0999 351.795C77.5999 352.095 77.0999 352.195 76.7999 352.195C75.6999 352.195 75.5999 350.895 75.5999 350.295V182.495L280.4 64.1953ZM281.5 62.1953L74.3999 181.795V350.295C74.3999 352.295 75.3999 353.395 76.7999 353.395C77.3999 353.395 77.9999 353.195 78.6999 352.795L277.2 238.195C279.6 236.795 281.5 233.495 281.5 230.695V62.1953Z" fill="#E0E0E0"/>
<path d="M74.3999 181.795V209.995L281.5 90.3953V62.1953L74.3999 181.795Z" fill="#009640"/>
<path d="M90.5999 183.297V187.297C90.5999 188.097 91.1999 188.497 91.8999 188.097L155.6 151.297V144.297L91.8999 181.097C91.1999 181.497 90.5999 182.497 90.5999 183.297Z" fill="#FAFAFA"/>
<path d="M162.4 140.299C163.1 139.899 163.7 140.199 163.7 141.099V145.099C163.7 145.899 163.1 146.899 162.4 147.299L155.6 151.199V144.199L162.4 140.299Z" fill="#455A64"/>
<path d="M74.3999 172.699C74.3999 169.899 76.2999 166.599 78.6999 165.199L277.2 50.599C279.6 49.199 281.5 50.299 281.5 53.099V62.199L74.3999 181.799V172.699Z" fill="#455A64"/>
<path d="M258.5 66.1035C257.4 66.7035 256.5 68.3035 256.5 69.6035C256.5 70.9035 257.4 71.4035 258.5 70.8035C259.6 70.2035 260.5 68.6035 260.5 67.3035C260.6 66.0035 259.6 65.5035 258.5 66.1035Z" fill="#009640"/>
<path d="M265 62.4003C263.9 63.0003 263 64.6003 263 65.9003C263 67.2003 263.9 67.7003 265 67.1003C266.1 66.5003 267 64.9003 267 63.6003C267 62.3003 266.1 61.8003 265 62.4003Z" fill="#009640"/>
<path d="M271.4 58.7019C270.3 59.3019 269.4 60.9019 269.4 62.2019C269.4 63.5019 270.3 64.0019 271.4 63.4019C272.5 62.8019 273.4 61.2019 273.4 59.9019C273.4 58.6019 272.5 58.0019 271.4 58.7019Z" fill="#009640"/>
<g opacity="0.1">
<path d="M216.6 108.696C214.1 110.096 212.2 113.596 212.2 116.396C212.2 119.196 214.2 120.396 216.6 118.996C219.1 117.596 221 114.096 221 111.296C221 108.496 219 107.296 216.6 108.696Z" fill="black"/>
<path d="M196.2 120.401C193.7 121.801 191.8 125.301 191.8 128.101C191.8 130.901 193.8 132.101 196.2 130.701C198.7 129.301 200.6 125.801 200.6 123.001C200.7 120.101 198.7 119.001 196.2 120.401Z" fill="black"/>
<path d="M236.9 96.8991C234.4 98.2991 232.5 101.799 232.5 104.599C232.5 107.399 234.5 108.599 236.9 107.199C239.4 105.799 241.3 102.299 241.3 99.4991C241.3 96.6991 239.3 95.4991 236.9 96.8991Z" fill="black"/>
<path d="M257.2 85.1981C254.7 86.5981 252.8 90.0981 252.8 92.8981C252.8 95.6981 254.8 96.8981 257.2 95.4981C259.7 94.0981 261.6 90.5981 261.6 87.7981C261.6 84.8981 259.6 83.7981 257.2 85.1981Z" fill="black"/>
</g>
<path d="M94.9999 212.102L143.2 184.302C145.6 182.902 147.5 184.002 147.5 186.802V233.102C147.5 235.902 145.6 239.202 143.2 240.602L94.9999 268.402C92.5999 269.802 90.6999 268.702 90.6999 265.902V219.602C90.5999 216.902 92.5999 213.502 94.9999 212.102Z" fill="#E0E0E0"/>
<path d="M164 172.297L265 113.997C267.4 112.597 269.3 113.697 269.3 116.497V162.797C269.3 165.597 267.4 168.897 265 170.297L164 228.597C161.6 229.997 159.7 228.897 159.7 226.097V179.797C159.7 176.997 161.6 173.697 164 172.297Z" fill="#E0E0E0"/>
<path d="M94.9999 282.498L171.6 238.298C174 236.898 175.9 237.898 175.9 240.498C175.9 243.098 174 246.298 171.6 247.698L94.9999 291.898C92.5999 293.298 90.6999 292.298 90.6999 289.698C90.5999 287.098 92.5999 283.898 94.9999 282.498Z" fill="#E0E0E0"/>
<path d="M94.9999 298.896L171.6 254.696C174 253.296 175.9 254.296 175.9 256.896C175.9 259.496 174 262.696 171.6 264.096L94.9999 308.296C92.5999 309.696 90.6999 308.696 90.6999 306.096C90.5999 303.496 92.5999 300.296 94.9999 298.896Z" fill="#E0E0E0"/>
<path d="M94.9999 315.295L171.6 271.095C174 269.695 175.9 270.695 175.9 273.295C175.9 275.895 174 279.095 171.6 280.495L94.9999 324.695C92.5999 326.095 90.6999 325.095 90.6999 322.495C90.5999 319.895 92.5999 316.695 94.9999 315.295Z" fill="#E0E0E0"/>
<path d="M131.3 259.698C131.3 257.998 132.5 255.998 133.9 255.198L266.8 178.498C268.2 177.698 270.6 177.698 272 178.498L274.9 180.198C276.3 180.998 277.5 182.998 277.5 184.698V286.598C277.5 288.198 276.3 290.298 274.9 291.098L142 367.698C140.6 368.498 138.2 368.498 136.8 367.698L133.9 365.998C132.5 365.198 131.3 363.198 131.3 361.498V259.698Z" fill="#009640"/>
<path opacity="0.4" d="M132 257.098L139.4 261.398L276.7 182.098C276.2 181.298 275.6 180.598 274.9 180.198L272 178.498C270.6 177.698 268.2 177.698 266.8 178.498L133.9 255.198C133.1 255.598 132.5 256.298 132 257.098Z" fill="white"/>
<path opacity="0.1" d="M131.2 259.702V361.602C131.2 363.302 132.4 365.302 133.8 366.102L136.7 367.802C136.9 367.902 137.2 368.002 137.4 368.102C137.7 368.202 138.1 368.302 138.5 368.302C139.2 368.402 139.9 368.402 140.6 368.202C140.8 368.202 140.9 368.102 141.1 368.102C141.2 368.102 141.3 368.002 141.4 368.002C140.9 368.202 140.5 368.102 140.2 368.002C139.7 367.702 139.4 367.202 139.4 366.302V264.402C139.4 263.302 139.9 262.502 140.8 262.202L139.4 261.402L132 257.102C131.5 257.902 131.2 258.802 131.2 259.702Z" fill="black"/>
<path opacity="0.2" d="M139.4 261.398L201 284.398C205.4 285.998 210.3 284.398 212.9 280.498L222.8 265.398L277.3 181.898L224.8 265.998L277.6 286.698C277.6 287.498 277.3 288.498 276.8 289.298L224.6 266.298L213 284.498C210.4 288.698 205 290.398 200.5 288.298L192.3 284.698L140.2 367.998C139.7 367.698 139.4 367.198 139.4 366.298V364.598L192.1 284.698L139.4 261.398Z" fill="black"/>
<path d="M249.1 144.401V378.301C249.1 381.101 251 382.201 253.4 380.801L358.5 320.101C360.9 318.701 362.8 315.401 362.8 312.601V78.7006C362.8 75.9006 360.9 74.8006 358.5 76.2006L253.4 136.901C251 138.301 249.1 141.601 249.1 144.401Z" fill="#FAFAFA" stroke="#E0E0E0" stroke-width="1.1698" stroke-miterlimit="10"/>
<path d="M255.1 148.804C255.1 148.204 255.6 147.304 256.2 147.004L268.2 140.104C268.8 139.704 269.3 140.004 269.3 140.604C269.3 141.204 268.8 142.104 268.2 142.404L256.2 149.304C255.6 149.604 255.1 149.404 255.1 148.804Z" fill="#455A64"/>
<path d="M255.1 153.398C255.1 152.798 255.6 151.898 256.2 151.598L268.2 144.698C268.8 144.298 269.3 144.598 269.3 145.198C269.3 145.798 268.8 146.698 268.2 146.998L256.2 153.898C255.6 154.298 255.1 154.098 255.1 153.398Z" fill="#455A64"/>
<path d="M255.1 158.101C255.1 157.501 255.6 156.601 256.2 156.301L268.2 149.401C268.8 149.001 269.3 149.301 269.3 149.901C269.3 150.501 268.8 151.401 268.2 151.701L256.2 158.601C255.6 159.001 255.1 158.701 255.1 158.101Z" fill="#455A64"/>
<path d="M354.7 98.0992V96.1992C354.7 96.0992 354.6 95.9992 354.5 96.0992L353.1 96.6992C353 96.6992 352.9 96.6992 352.9 96.5992C352.8 96.2992 352.7 96.0992 352.6 95.8992C352.5 95.7992 352.5 95.6992 352.6 95.5992L353.6 93.6992C353.6 93.5992 353.6 93.4992 353.5 93.3992L352.5 92.7992C352.4 92.6992 352.3 92.7992 352.2 92.8992L351 94.6992C350.9 94.7992 350.8 94.8992 350.7 94.8992C350.5 94.8992 350.2 94.8992 349.9 94.9992C349.8 94.9992 349.7 94.9992 349.7 94.7992L349.5 93.1992C349.5 93.0992 349.4 92.9992 349.3 93.0992L347.7 93.9992C347.6 94.0992 347.5 94.1992 347.5 94.2992L347.3 96.0992C347.3 96.1992 347.2 96.3992 347.1 96.3992C346.8 96.6992 346.5 96.9992 346.2 97.3992C346.1 97.4992 346 97.4992 345.9 97.4992L344.9 97.0992C344.8 97.0992 344.7 97.0992 344.6 97.1992L343.4 99.2992C343.3 99.3992 343.4 99.4992 343.5 99.5992L344.3 100.299C344.4 100.399 344.4 100.499 344.4 100.599C344.2 100.999 344.1 101.399 344 101.899C344 101.999 343.9 102.099 343.8 102.199L342.3 103.199C342.2 103.299 342.1 103.399 342.1 103.499V105.399C342.1 105.499 342.2 105.599 342.3 105.499L343.7 104.899C343.8 104.899 343.9 104.899 343.9 104.999C344 105.299 344.1 105.499 344.2 105.699C344.3 105.799 344.3 105.899 344.2 105.999L343.2 107.899C343.2 107.999 343.2 108.099 343.3 108.199L344.3 108.799C344.4 108.899 344.5 108.799 344.6 108.699L345.8 106.899C345.9 106.799 346 106.699 346.1 106.699C346.3 106.699 346.6 106.699 346.9 106.599C347 106.599 347.1 106.599 347.1 106.799L347.3 108.399C347.3 108.499 347.4 108.599 347.5 108.499L349.1 107.599C349.2 107.499 349.3 107.399 349.3 107.299L349.5 105.499C349.5 105.399 349.6 105.199 349.7 105.199C350 104.899 350.3 104.599 350.6 104.199C350.7 104.099 350.8 104.099 350.9 104.099L351.9 104.499C352 104.499 352.1 104.499 352.2 104.399L353.4 102.299C353.5 102.199 353.4 102.099 353.3 101.999L352.5 101.299C352.4 101.199 352.4 101.099 352.4 100.999C352.6 100.599 352.7 100.199 352.8 99.6992C352.8 99.5992 352.9 99.4992 353 99.3992L354.5 98.3992C354.6 98.3992 354.7 98.1992 354.7 98.0992ZM348.3 103.999C346.8 104.899 345.6 104.199 345.6 102.399C345.6 100.699 346.8 98.4992 348.3 97.6992C349.8 96.7992 351 97.4992 351 99.2992C351.1 100.999 349.8 103.099 348.3 103.999Z" fill="#37474F"/>
<path d="M305.9 144.199C318.2 137.099 328.1 142.899 328.1 156.999C328.1 171.099 318.1 188.399 305.9 195.499C293.6 202.599 283.7 196.799 283.7 182.699C283.7 168.499 293.6 151.299 305.9 144.199Z" fill="#455A64"/>
<path d="M305.8 155.4C309.8 153.1 313 155 313 159.6C313 164.2 309.8 169.8 305.8 172.1C301.8 174.4 298.6 172.5 298.6 167.9C298.6 163.2 301.8 157.7 305.8 155.4Z" fill="#009640"/>
<path d="M320 179.897C320 172.297 314.7 169.297 308.2 173.097L304.1 175.497C297.6 179.297 292.3 188.497 292.3 195.997V198.097C293.5 198.497 294.8 198.697 296.1 198.697C299.1 198.697 302.4 197.697 306 195.697C311.3 192.597 316.2 187.597 320.1 181.797V179.897H320Z" fill="#009640"/>
<path d="M285.9 216.603L326 193.403C327.2 192.703 328.2 193.203 328.2 194.503C328.2 195.803 327.2 197.403 326 198.103L285.9 221.303C284.7 222.003 283.7 221.503 283.7 220.203C283.7 218.903 284.7 217.303 285.9 216.603Z" fill="#009640"/>
<path d="M281.5 233.204L330.2 205.004C331.4 204.304 332.4 204.804 332.4 206.104C332.4 207.404 331.4 209.004 330.2 209.704L281.5 237.904C280.3 238.604 279.3 238.104 279.3 236.804C279.4 235.504 280.4 233.904 281.5 233.204Z" fill="#455A64"/>
<path d="M331.6 227.702L345.2 219.802C345.9 219.402 346.5 219.602 346.5 220.202C346.5 220.802 345.9 221.702 345.2 222.102L331.6 230.002C330.9 230.402 330.3 230.202 330.3 229.602C330.3 229.002 330.9 228.202 331.6 227.702Z" fill="#37474F"/>
<path d="M263.4 262.403L283.4 250.803C284.6 250.103 285.6 250.703 285.6 252.003V265.803C285.6 267.203 284.6 268.903 283.4 269.603L263.4 281.203C262.2 281.903 261.2 281.303 261.2 280.003V266.203C261.2 264.803 262.2 263.103 263.4 262.403Z" fill="#009640"/>
<path d="M266.6 264.405L280.2 256.505C280.9 256.105 281.5 256.305 281.5 256.905C281.5 257.505 280.9 258.405 280.2 258.805L266.6 266.705C265.9 267.105 265.3 266.905 265.3 266.305C265.3 265.605 265.9 264.805 266.6 264.405Z" fill="#FAFAFA"/>
<path d="M265.3 271.302V275.302C265.3 276.102 265.9 276.502 266.6 276.002L280.2 268.102C280.9 267.702 281.5 266.702 281.5 265.902V261.902C281.5 261.102 280.9 260.702 280.2 261.102L266.6 269.002C265.9 269.502 265.3 270.502 265.3 271.302Z" fill="#FAFAFA"/>
<path d="M295.9 243.7L315.9 232.1C317.1 231.4 318.1 232 318.1 233.3V247.1C318.1 248.5 317.1 250.2 315.9 250.9L295.9 262.5C294.7 263.2 293.7 262.6 293.7 261.3V247.5C293.7 246 294.7 244.4 295.9 243.7Z" fill="#009640"/>
<path d="M299.1 245.6L312.7 237.7C313.4 237.3 314 237.5 314 238.1C314 238.7 313.4 239.6 312.7 240L299.1 247.9C298.4 248.3 297.8 248.1 297.8 247.5C297.8 246.9 298.4 246 299.1 245.6Z" fill="#FAFAFA"/>
<path d="M297.8 252.498V256.498C297.8 257.298 298.4 257.698 299.1 257.198L312.7 249.298C313.4 248.898 314 247.898 314 247.098V243.098C314 242.298 313.4 241.898 312.7 242.298L299.1 250.198C298.4 250.698 297.8 251.698 297.8 252.498Z" fill="#FAFAFA"/>
<path d="M328.4 224.903L348.4 213.303C349.6 212.603 350.6 213.203 350.6 214.503V228.303C350.6 229.703 349.6 231.403 348.4 232.103L328.4 243.703C327.2 244.403 326.2 243.803 326.2 242.503V228.703C326.2 227.303 327.2 225.603 328.4 224.903Z" fill="#009640"/>
<path d="M331.6 226.803L345.2 218.903C345.9 218.503 346.5 218.703 346.5 219.303C346.5 219.903 345.9 220.803 345.2 221.203L331.6 229.103C330.9 229.503 330.3 229.303 330.3 228.703C330.3 228.103 330.9 227.203 331.6 226.803Z" fill="#FAFAFA"/>
<path d="M330.3 233.802V237.802C330.3 238.602 330.9 239.002 331.6 238.502L345.2 230.602C345.9 230.202 346.5 229.202 346.5 228.402V224.402C346.5 223.602 345.9 223.202 345.2 223.602L331.6 231.502C330.9 231.902 330.3 232.902 330.3 233.802Z" fill="#FAFAFA"/>
<path d="M265.6 294L346.3 247.4C348.7 246 350.6 247 350.6 249.6C350.6 252.2 348.7 255.4 346.3 256.8L265.6 303.4C263.2 304.8 261.3 303.8 261.3 301.2C261.2 298.6 263.2 295.4 265.6 294Z" fill="#E0E0E0"/>
<path d="M265.6 312.804L346.3 266.204C348.7 264.804 350.6 265.804 350.6 268.404C350.6 271.004 348.7 274.204 346.3 275.604L265.6 322.204C263.2 323.604 261.3 322.604 261.3 320.004C261.2 317.404 263.2 314.204 265.6 312.804Z" fill="#E0E0E0"/>
<path d="M291.8 321.103L320 304.803C321.2 304.103 322.2 304.703 322.2 306.003V315.103C322.2 316.503 321.2 318.203 320 318.903L291.8 335.203C290.6 335.903 289.6 335.303 289.6 334.003V324.903C289.7 323.403 290.6 321.803 291.8 321.103Z" fill="#009640"/>
<path d="M267.3 295.405C266.2 296.005 265.3 297.605 265.3 298.905C265.3 300.205 266.2 300.705 267.3 300.105C268.4 299.505 269.3 297.905 269.3 296.605C269.4 295.305 268.5 294.705 267.3 295.405Z" fill="#FAFAFA"/>
<path d="M273.8 291.705C272.7 292.305 271.8 293.905 271.8 295.205C271.8 296.505 272.7 297.005 273.8 296.405C274.9 295.805 275.8 294.205 275.8 292.905C275.8 291.505 274.9 291.005 273.8 291.705Z" fill="#FAFAFA"/>
<path d="M280.2 288.007C279.1 288.607 278.2 290.207 278.2 291.507C278.2 292.807 279.1 293.307 280.2 292.707C281.3 292.107 282.2 290.507 282.2 289.207C282.2 287.907 281.3 287.307 280.2 288.007Z" fill="#FAFAFA"/>
<path d="M286.6 284.205C285.5 284.805 284.6 286.405 284.6 287.705C284.6 289.005 285.5 289.505 286.6 288.905C287.7 288.305 288.6 286.705 288.6 285.405C288.7 284.105 287.8 283.605 286.6 284.205Z" fill="#FAFAFA"/>
<path d="M293.1 280.502C292 281.102 291.1 282.702 291.1 284.002C291.1 285.302 292 285.802 293.1 285.202C294.2 284.602 295.1 283.002 295.1 281.702C295.1 280.402 294.2 279.902 293.1 280.502Z" fill="#FAFAFA"/>
<path d="M299.5 276.803C298.4 277.403 297.5 279.003 297.5 280.303C297.5 281.603 298.4 282.103 299.5 281.503C300.6 280.903 301.5 279.303 301.5 278.003C301.5 276.703 300.6 276.103 299.5 276.803Z" fill="#FAFAFA"/>
<path d="M305.9 273.103C304.8 273.703 303.9 275.303 303.9 276.603C303.9 277.903 304.8 278.403 305.9 277.803C307 277.203 307.9 275.603 307.9 274.303C308 272.903 307.1 272.403 305.9 273.103Z" fill="#FAFAFA"/>
<path d="M267.3 314.202C266.2 314.802 265.3 316.402 265.3 317.702C265.3 319.002 266.2 319.502 267.3 318.902C268.4 318.302 269.3 316.702 269.3 315.402C269.3 314.102 268.5 313.502 267.3 314.202Z" fill="#FAFAFA"/>
<path d="M273.8 310.502C272.7 311.102 271.8 312.702 271.8 314.002C271.8 315.302 272.7 315.802 273.8 315.202C274.9 314.602 275.8 313.002 275.8 311.702C275.8 310.302 274.9 309.802 273.8 310.502Z" fill="#FAFAFA"/>
<path d="M280.2 306.697C279.1 307.297 278.2 308.897 278.2 310.197C278.2 311.497 279.1 311.997 280.2 311.397C281.3 310.797 282.2 309.197 282.2 307.897C282.2 306.597 281.3 306.097 280.2 306.697Z" fill="#FAFAFA"/>
<path d="M286.6 303.002C285.5 303.602 284.6 305.202 284.6 306.502C284.6 307.802 285.5 308.302 286.6 307.702C287.7 307.102 288.6 305.502 288.6 304.202C288.6 302.902 287.8 302.402 286.6 303.002Z" fill="#FAFAFA"/>
<path d="M293.1 299.303C292 299.903 291.1 301.503 291.1 302.803C291.1 304.103 292 304.603 293.1 304.003C294.2 303.403 295.1 301.803 295.1 300.503C295.1 299.203 294.2 298.603 293.1 299.303Z" fill="#FAFAFA"/>
<path d="M299.5 295.603C298.4 296.203 297.5 297.803 297.5 299.103C297.5 300.403 298.4 300.903 299.5 300.303C300.6 299.703 301.5 298.103 301.5 296.803C301.5 295.403 300.6 294.903 299.5 295.603Z" fill="#FAFAFA"/>
<path d="M305.9 291.9C304.8 292.5 303.9 294.1 303.9 295.4C303.9 296.7 304.8 297.2 305.9 296.6C307 296 307.9 294.4 307.9 293.1C308 291.7 307.1 291.2 305.9 291.9Z" fill="#FAFAFA"/>
<path d="M396.2 334.104C392.7 334.104 389.4 333.204 386.4 331.504C379.2 327.304 375.1 318.604 375.1 307.604C375.1 288.204 387.4 265.904 403.1 256.804C411.6 251.904 420 251.404 426.8 255.304C434 259.504 438.1 268.204 438.1 279.204C438.1 298.604 425.8 320.904 410.1 330.004C405.3 332.804 400.6 334.104 396.2 334.104ZM416.8 266.704C414.3 266.704 411.6 268.004 410 268.904C398.6 275.504 388.9 293.204 388.9 307.604C388.9 313.404 390.5 317.804 393.3 319.404C396.4 321.204 400.7 319.204 403 317.904C414.4 311.304 424.1 293.604 424.1 279.204C424.1 273.404 422.5 269.004 419.7 267.404C418.9 267.004 417.9 266.704 416.8 266.704Z" fill="#455A64"/>
<path d="M426.6 282.4C426.6 271.5 419.7 267.5 419.7 267.5C422.4 269.1 424.1 273.5 424.1 279.3C424.1 293.7 414.5 311.4 403 318C400.7 319.3 396.4 321.3 393.3 319.5C393.3 319.5 399.1 323.1 407.1 318.7C418.7 312.4 426.6 296.8 426.6 282.4Z" fill="#37474F"/>
<path d="M415.6 146.302C415.6 142.302 412.4 139.102 408.4 139.102C404.4 139.102 401.2 142.302 401.2 146.302V261.002C401.2 262.102 401.9 263.102 403.3 263.902C406.1 265.502 410.7 265.502 413.5 263.902C414.9 263.102 415.6 262.002 415.6 261.002V146.302Z" fill="#37474F"/>
<path d="M409.8 171.903C409.8 169.203 407.9 166.003 405.6 164.703C404.4 164.003 403.4 164.003 402.6 164.403L384.8 174.703L384.4 175.003C384.3 175.003 384.3 175.103 384.2 175.103C383.9 175.303 383.6 175.503 383.3 175.803C382.2 176.903 381.6 178.403 381.6 180.003C381.6 182.203 382.8 184.203 384.7 185.203C385.5 185.703 386.5 185.903 387.5 185.903C388.5 185.903 389.5 185.603 390.3 185.203C390.4 185.103 390.5 185.103 390.6 185.003L408.5 174.703C409.4 174.203 409.8 173.203 409.8 171.903Z" fill="#455A64"/>
<path d="M409.8 200.7C409.8 198 407.9 194.8 405.6 193.5C404.4 192.8 403.4 192.8 402.6 193.2L381.7 205.2L381.3 205.5C381.2 205.5 381.2 205.6 381.1 205.6C380.8 205.8 380.5 206 380.2 206.3C379.1 207.4 378.5 208.9 378.5 210.5C378.5 212.7 379.7 214.7 381.6 215.7C382.4 216.2 383.4 216.4 384.4 216.4C385.4 216.4 386.4 216.1 387.2 215.7C387.3 215.6 387.4 215.6 387.5 215.5L408.5 203.5C409.4 202.9 409.8 202 409.8 200.7Z" fill="#455A64"/>
</svg>
