<svg xmlns="http://www.w3.org/2000/svg" width="500" height="500" fill="none"><path fill="#F5F5F5" d="M85.5 417.998c88.8 45.4 232.7 45.4 321.4 0 88.8-45.4 88.8-119 0-164.3-88.8-45.4-232.7-45.4-321.4 0-88.8 45.4-88.8 118.9 0 164.3Z"/><path fill="#EBEBEB" d="M375.7 345.497c4.9 2.8 14.4 1.8 21.4-2.2l39.9-23.2c6.9-4 8.6-9.5 3.7-12.3-4.9-2.8-14.4-1.9-21.4 2.2l-39.9 23.2c-6.9 4-8.5 9.5-3.7 12.3ZM135.3 366.9l-40.6-23.5 40.6-23.4v46.9ZM250.1 380.898l-65.5-37.8 65.5-37.7v75.5Z"/><path fill="#009640" d="M80.4 312.105c.1-9.5-6.5-29.3-16.2-41.7-9.7-12.5-25.1-21.7-36.2-18-10.3 3.4-9.3 16.9 3 25.9 12.3 9.1 30.9 20.5 36.2 36l11.3 19 1.9-21.2Z"/><path fill="#000" d="M80.4 312.105c.1-9.5-6.5-29.3-16.2-41.7-9.7-12.5-25.1-21.7-36.2-18-10.3 3.4-9.3 16.9 3 25.9 12.3 9.1 30.9 20.5 36.2 36l11.3 19 1.9-21.2Z" opacity=".1"/><path fill="#fff" d="M80.9 325.105c-.3 0-.6-.3-.6-.6-6-32.5-31.9-59.2-47.5-65.2-.4-.1-.5-.5-.4-.9.1-.4.5-.5.9-.4 15.9 6.1 42.3 33.2 48.4 66.2.1.4-.2.7-.6.8-.1.1-.1.1-.2.1Z"/><path fill="#009640" d="M75.8 345.807c-1.5-5.4-7.9-14.3-18.3-21.7-11.6-8.2-26.3-12.1-29.6-18.4-4-7.6 2.4-14.6 14.4-13 12 1.6 32.9 18.2 35.9 42.9l-2.4 10.2Z"/><path fill="#fff" d="M78.2 340.208c-.3 0-.5-.2-.6-.5-9.6-27.9-30.7-37.9-40.5-39.3-.4-.1-.6-.4-.6-.8.1-.4.4-.6.8-.6 10.8 1.5 31.8 11.7 41.6 40.2.1.4-.1.8-.4.9-.1.1-.2.1-.3.1Z"/><path fill="#009640" d="M434.9 285.002s1.3-20 13.1-34.9c11.8-14.9 11.1-21 2.9-24-8.1-3-27 14.9-22.8 38.9 4.2 24 6.8 20 6.8 20Z"/><path fill="#000" d="M434.9 285.002s1.3-20 13.1-34.9c11.8-14.9 11.1-21 2.9-24-8.1-3-27 14.9-22.8 38.9 4.2 24 6.8 20 6.8 20Z" opacity=".1"/><path fill="#fff" d="M431.3 273.602c-.2 0-.4-.2-.5-.4-1.4-22.1 14.2-40.2 20-44.3.2-.1.5-.1.6.1.1.2.1.5-.1.6-5.7 4-21 21.8-19.6 43.4.1.3-.1.6-.4.6Z"/><path fill="#009640" d="M431.7 301.605s7.1 2.5 16.3 3.9c9.1 1.4 13.2-2.9 13.2-2.9s-3.6-8.6-8.8-11c0 0 8.8 1.8 15.9 6.5 0 0 5.6.1 7.8-8.4 0 0-3.3-5.1-14.4-7.9 0 0 6.8-1.7 16.5.8.7.3 3.8-10.7 4.8-15.8.9-5.1-1.1-5-5.1-6.1-4-1.1-17.1-4-19.6-1.8s-3.7 9.6-3.7 9.6-1.6-4.4-.4-9.4c0 0-3.6-1.4-9.1.2-4.5 1.3-4.7 4.4-4.5 7.9.1 2.5.8 5.3 2 8.8 0 0-3.5-4.5-3.6-14.3 0 0-9.3 4.6-10.8 13.8-1.1 4.9-2.3 19.5 3.5 26.1Z"/><path fill="#fff" d="M433.5 299.803c.2 0 .4-.1.5-.3 7.4-15.3 34.8-33.1 44.6-35 .3-.1.5-.3.4-.6-.1-.3-.3-.5-.6-.4-10 1.9-37.9 20-45.4 35.6-.1.3 0 .6.2.7h.3Z"/><path fill="#FAFAFA" d="M76.8 352.895c-1.1 0-1.8-.9-1.8-2.5v-168.3l206-118.9v167.5c0 2.6-1.8 5.7-4 7l-198.6 114.7c-.6.3-1.1.5-1.6.5Z"/><path fill="#E0E0E0" d="M280.4 64.195v166.5c0 2.3-1.7 5.3-3.7 6.5l-198.6 114.6c-.5.3-1 .4-1.3.4-1.1 0-1.2-1.3-1.2-1.9v-167.8l204.8-118.3Zm1.1-2-207.1 119.6v168.5c0 2 1 3.1 2.4 3.1.6 0 1.2-.2 1.9-.6l198.5-114.6c2.4-1.4 4.3-4.7 4.3-7.5v-168.5Z"/><path fill="#009640" d="M74.4 181.795v28.2l207.1-119.6v-28.2l-207.1 119.6Z"/><path fill="#FAFAFA" d="M90.6 183.297v4c0 .8.6 1.2 1.3.8l63.7-36.8v-7l-63.7 36.8c-.7.4-1.3 1.4-1.3 2.2Z"/><path fill="#455A64" d="M162.4 140.299c.7-.4 1.3-.1 1.3.8v4c0 .8-.6 1.8-1.3 2.2l-6.8 3.9v-7l6.8-3.9ZM74.4 172.699c0-2.8 1.9-6.1 4.3-7.5l198.5-114.6c2.4-1.4 4.3-.3 4.3 2.5v9.1l-207.1 119.6v-9.1Z"/><path fill="#009640" d="M258.5 66.103c-1.1.6-2 2.2-2 3.5 0 1.3.9 1.8 2 1.2 1.1-.6 2-2.2 2-3.5.1-1.3-.9-1.8-2-1.2ZM265 62.4c-1.1.6-2 2.2-2 3.5 0 1.3.9 1.8 2 1.2 1.1-.6 2-2.2 2-3.5 0-1.3-.9-1.8-2-1.2ZM271.4 58.702c-1.1.6-2 2.2-2 3.5 0 1.3.9 1.8 2 1.2 1.1-.6 2-2.2 2-3.5 0-1.3-.9-1.9-2-1.2Z"/><g fill="#000" opacity=".1"><path d="M216.6 108.696c-2.5 1.4-4.4 4.9-4.4 7.7s2 4 4.4 2.6c2.5-1.4 4.4-4.9 4.4-7.7s-2-4-4.4-2.6ZM196.2 120.401c-2.5 1.4-4.4 4.9-4.4 7.7s2 4 4.4 2.6c2.5-1.4 4.4-4.9 4.4-7.7.1-2.9-1.9-4-4.4-2.6ZM236.9 96.9c-2.5 1.4-4.4 4.899-4.4 7.699s2 4 4.4 2.6c2.5-1.4 4.4-4.9 4.4-7.7s-2-4-4.4-2.6ZM257.2 85.198c-2.5 1.4-4.4 4.9-4.4 7.7s2 4 4.4 2.6c2.5-1.4 4.4-4.9 4.4-7.7 0-2.9-2-4-4.4-2.6Z"/></g><path fill="#E0E0E0" d="m95 212.102 48.2-27.8c2.4-1.4 4.3-.3 4.3 2.5v46.3c0 2.8-1.9 6.1-4.3 7.5l-48.2 27.8c-2.4 1.4-4.3.3-4.3-2.5v-46.3c-.1-2.7 1.9-6.1 4.3-7.5ZM164 172.297l101-58.3c2.4-1.4 4.3-.3 4.3 2.5v46.3c0 2.8-1.9 6.1-4.3 7.5l-101 58.3c-2.4 1.4-4.3.3-4.3-2.5v-46.3c0-2.8 1.9-6.1 4.3-7.5ZM95 282.498l76.6-44.2c2.4-1.4 4.3-.4 4.3 2.2s-1.9 5.8-4.3 7.2l-76.6 44.2c-2.4 1.4-4.3.4-4.3-2.2-.1-2.6 1.9-5.8 4.3-7.2ZM95 298.896l76.6-44.2c2.4-1.4 4.3-.4 4.3 2.2s-1.9 5.8-4.3 7.2l-76.6 44.2c-2.4 1.4-4.3.4-4.3-2.2-.1-2.6 1.9-5.8 4.3-7.2ZM95 315.295l76.6-44.2c2.4-1.4 4.3-.4 4.3 2.2s-1.9 5.8-4.3 7.2l-76.6 44.2c-2.4 1.4-4.3.4-4.3-2.2-.1-2.6 1.9-5.8 4.3-7.2Z"/><path fill="#009640" d="M131.3 259.698c0-1.7 1.2-3.7 2.6-4.5l132.9-76.7c1.4-.8 3.8-.8 5.2 0l2.9 1.7c1.4.8 2.6 2.8 2.6 4.5v101.9c0 1.6-1.2 3.7-2.6 4.5l-132.9 76.6c-1.4.8-3.8.8-5.2 0l-2.9-1.7c-1.4-.8-2.6-2.8-2.6-4.5v-101.8Z"/><path fill="#fff" d="m132 257.098 7.4 4.3 137.3-79.3c-.5-.8-1.1-1.5-1.8-1.9l-2.9-1.7c-1.4-.8-3.8-.8-5.2 0l-132.9 76.7c-.8.4-1.4 1.1-1.9 1.9Z" opacity=".4"/><path fill="#000" d="M131.2 259.702v101.9c0 1.7 1.2 3.7 2.6 4.5l2.9 1.7c.2.1.5.2.7.3.3.1.7.2 1.1.2.7.1 1.4.1 2.1-.1.2 0 .3-.1.5-.1.1 0 .2-.1.3-.1-.5.2-.9.1-1.2 0-.5-.3-.8-.8-.8-1.7v-101.9c0-1.1.5-1.9 1.4-2.2l-1.4-.8-7.4-4.3c-.5.8-.8 1.7-.8 2.6Z" opacity=".1"/><path fill="#000" d="m139.4 261.398 61.6 23c4.4 1.6 9.3 0 11.9-3.9l9.9-15.1 54.5-83.5-52.5 84.1 52.8 20.7c0 .8-.3 1.8-.8 2.6l-52.2-23-11.6 18.2c-2.6 4.2-8 5.9-12.5 3.8l-8.2-3.6-52.1 83.3c-.5-.3-.8-.8-.8-1.7v-1.7l52.7-79.9-52.7-23.3Z" opacity=".2"/><path fill="#FAFAFA" stroke="#E0E0E0" stroke-miterlimit="10" stroke-width="1.17" d="M249.1 144.401v233.9c0 2.8 1.9 3.9 4.3 2.5l105.1-60.7c2.4-1.4 4.3-4.7 4.3-7.5v-233.9c0-2.8-1.9-3.9-4.3-2.5l-105.1 60.7c-2.4 1.4-4.3 4.7-4.3 7.5Z"/><path fill="#455A64" d="M255.1 148.804c0-.6.5-1.5 1.1-1.8l12-6.9c.6-.4 1.1-.1 1.1.5s-.5 1.5-1.1 1.8l-12 6.9c-.6.3-1.1.1-1.1-.5ZM255.1 153.398c0-.6.5-1.5 1.1-1.8l12-6.9c.6-.4 1.1-.1 1.1.5s-.5 1.5-1.1 1.8l-12 6.9c-.6.4-1.1.2-1.1-.5ZM255.1 158.101c0-.6.5-1.5 1.1-1.8l12-6.9c.6-.4 1.1-.1 1.1.5s-.5 1.5-1.1 1.8l-12 6.9c-.6.4-1.1.1-1.1-.5Z"/><path fill="#37474F" d="M354.7 98.1v-1.9c0-.1-.1-.2-.2-.1l-1.4.6c-.1 0-.2 0-.2-.1-.1-.3-.2-.5-.3-.7-.1-.1-.1-.2 0-.3l1-1.9c0-.1 0-.2-.1-.3l-1-.6c-.1-.1-.2 0-.3.1l-1.2 1.8c-.1.1-.2.2-.3.2-.2 0-.5 0-.8.1-.1 0-.2 0-.2-.2l-.2-1.6c0-.1-.1-.2-.2-.1l-1.6.9c-.1.1-.2.2-.2.3l-.2 1.8c0 .1-.1.3-.2.3-.3.3-.6.6-.9 1-.1.1-.2.1-.3.1l-1-.4c-.1 0-.2 0-.3.1l-1.2 2.1c-.1.1 0 .2.1.3l.8.699c.1.1.1.2.1.3-.2.4-.3.8-.4 1.3 0 .1-.1.2-.2.3l-1.5 1c-.1.1-.2.2-.2.3v1.9c0 .1.1.2.2.1l1.4-.6c.1 0 .2 0 .2.1.1.3.2.5.3.7.1.1.1.2 0 .3l-1 1.9c0 .1 0 .2.1.3l1 .6c.1.1.2 0 .3-.1l1.2-1.8c.1-.1.2-.2.3-.2.2 0 .5 0 .8-.1.1 0 .2 0 .2.2l.2 1.6c0 .1.1.2.2.1l1.6-.9c.1-.1.2-.2.2-.3l.2-1.8c0-.1.1-.3.2-.3.3-.3.6-.6.9-1 .1-.1.2-.1.3-.1l1 .4c.1 0 .2 0 .3-.1l1.2-2.1c.1-.1 0-.2-.1-.3l-.8-.7c-.1-.1-.1-.2-.1-.3.2-.4.3-.8.4-1.3 0-.1.1-.2.2-.3l1.5-1c.1 0 .2-.2.2-.3Zm-6.4 5.899c-1.5.9-2.7.2-2.7-1.6 0-1.7 1.2-3.9 2.7-4.7 1.5-.9 2.7-.2 2.7 1.6.1 1.7-1.2 3.8-2.7 4.7Z"/><path fill="#455A64" d="M305.9 144.199c12.3-7.1 22.2-1.3 22.2 12.8 0 14.1-10 31.4-22.2 38.5-12.3 7.1-22.2 1.3-22.2-12.8 0-14.2 9.9-31.4 22.2-38.5Z"/><path fill="#009640" d="M305.8 155.4c4-2.3 7.2-.4 7.2 4.2 0 4.6-3.2 10.2-7.2 12.5-4 2.3-7.2.4-7.2-4.2 0-4.7 3.2-10.2 7.2-12.5ZM320 179.897c0-7.6-5.3-10.6-11.8-6.8l-4.1 2.4c-6.5 3.8-11.8 13-11.8 20.5v2.1c1.2.4 2.5.6 3.8.6 3 0 6.3-1 9.9-3 5.3-3.1 10.2-8.1 14.1-13.9v-1.9h-.1ZM285.9 216.603l40.1-23.2c1.2-.7 2.2-.2 2.2 1.1s-1 2.9-2.2 3.6l-40.1 23.2c-1.2.7-2.2.2-2.2-1.1s1-2.9 2.2-3.6Z"/><path fill="#455A64" d="m281.5 233.204 48.7-28.2c1.2-.7 2.2-.2 2.2 1.1s-1 2.9-2.2 3.6l-48.7 28.2c-1.2.7-2.2.2-2.2-1.1.1-1.3 1.1-2.9 2.2-3.6Z"/><path fill="#37474F" d="m331.6 227.702 13.6-7.9c.7-.4 1.3-.2 1.3.4 0 .6-.6 1.5-1.3 1.9l-13.6 7.9c-.7.4-1.3.2-1.3-.4 0-.6.6-1.4 1.3-1.9Z"/><path fill="#009640" d="m263.4 262.403 20-11.6c1.2-.7 2.2-.1 2.2 1.2v13.8c0 1.4-1 3.1-2.2 3.8l-20 11.6c-1.2.7-2.2.1-2.2-1.2v-13.8c0-1.4 1-3.1 2.2-3.8Z"/><path fill="#FAFAFA" d="m266.6 264.405 13.6-7.9c.7-.4 1.3-.2 1.3.4 0 .6-.6 1.5-1.3 1.9l-13.6 7.9c-.7.4-1.3.2-1.3-.4 0-.7.6-1.5 1.3-1.9ZM265.3 271.302v4c0 .8.6 1.2 1.3.7l13.6-7.9c.7-.4 1.3-1.4 1.3-2.2v-4c0-.8-.6-1.2-1.3-.8l-13.6 7.9c-.7.5-1.3 1.5-1.3 2.3Z"/><path fill="#009640" d="m295.9 243.7 20-11.6c1.2-.7 2.2-.1 2.2 1.2v13.8c0 1.4-1 3.1-2.2 3.8l-20 11.6c-1.2.7-2.2.1-2.2-1.2v-13.8c0-1.5 1-3.1 2.2-3.8Z"/><path fill="#FAFAFA" d="m299.1 245.6 13.6-7.9c.7-.4 1.3-.2 1.3.4 0 .6-.6 1.5-1.3 1.9l-13.6 7.9c-.7.4-1.3.2-1.3-.4 0-.6.6-1.5 1.3-1.9ZM297.8 252.498v4c0 .8.6 1.2 1.3.7l13.6-7.9c.7-.4 1.3-1.4 1.3-2.2v-4c0-.8-.6-1.2-1.3-.8l-13.6 7.9c-.7.5-1.3 1.5-1.3 2.3Z"/><path fill="#009640" d="m328.4 224.903 20-11.6c1.2-.7 2.2-.1 2.2 1.2v13.8c0 1.4-1 3.1-2.2 3.8l-20 11.6c-1.2.7-2.2.1-2.2-1.2v-13.8c0-1.4 1-3.1 2.2-3.8Z"/><path fill="#FAFAFA" d="m331.6 226.803 13.6-7.9c.7-.4 1.3-.2 1.3.4 0 .6-.6 1.5-1.3 1.9l-13.6 7.9c-.7.4-1.3.2-1.3-.4 0-.6.6-1.5 1.3-1.9ZM330.3 233.802v4c0 .8.6 1.2 1.3.7l13.6-7.9c.7-.4 1.3-1.4 1.3-2.2v-4c0-.8-.6-1.2-1.3-.8l-13.6 7.9c-.7.4-1.3 1.4-1.3 2.3Z"/><path fill="#E0E0E0" d="m265.6 294 80.7-46.6c2.4-1.4 4.3-.4 4.3 2.2s-1.9 5.8-4.3 7.2l-80.7 46.6c-2.4 1.4-4.3.4-4.3-2.2-.1-2.6 1.9-5.8 4.3-7.2ZM265.6 312.804l80.7-46.6c2.4-1.4 4.3-.4 4.3 2.2s-1.9 5.8-4.3 7.2l-80.7 46.6c-2.4 1.4-4.3.4-4.3-2.2-.1-2.6 1.9-5.8 4.3-7.2Z"/><path fill="#009640" d="m291.8 321.103 28.2-16.3c1.2-.7 2.2-.1 2.2 1.2v9.1c0 1.4-1 3.1-2.2 3.8l-28.2 16.3c-1.2.7-2.2.1-2.2-1.2v-9.1c.1-1.5 1-3.1 2.2-3.8Z"/><path fill="#FAFAFA" d="M267.3 295.405c-1.1.6-2 2.2-2 3.5 0 1.3.9 1.8 2 1.2 1.1-.6 2-2.2 2-3.5.1-1.3-.8-1.9-2-1.2ZM273.8 291.705c-1.1.6-2 2.2-2 3.5 0 1.3.9 1.8 2 1.2 1.1-.6 2-2.2 2-3.5 0-1.4-.9-1.9-2-1.2ZM280.2 288.007c-1.1.6-2 2.2-2 3.5 0 1.3.9 1.8 2 1.2 1.1-.6 2-2.2 2-3.5 0-1.3-.9-1.9-2-1.2ZM286.6 284.205c-1.1.6-2 2.2-2 3.5 0 1.3.9 1.8 2 1.2 1.1-.6 2-2.2 2-3.5.1-1.3-.8-1.8-2-1.2ZM293.1 280.502c-1.1.6-2 2.2-2 3.5 0 1.3.9 1.8 2 1.2 1.1-.6 2-2.2 2-3.5 0-1.3-.9-1.8-2-1.2ZM299.5 276.803c-1.1.6-2 2.2-2 3.5 0 1.3.9 1.8 2 1.2 1.1-.6 2-2.2 2-3.5 0-1.3-.9-1.9-2-1.2ZM305.9 273.103c-1.1.6-2 2.2-2 3.5 0 1.3.9 1.8 2 1.2 1.1-.6 2-2.2 2-3.5.1-1.4-.8-1.9-2-1.2ZM267.3 314.202c-1.1.6-2 2.2-2 3.5 0 1.3.9 1.8 2 1.2 1.1-.6 2-2.2 2-3.5 0-1.3-.8-1.9-2-1.2ZM273.8 310.502c-1.1.6-2 2.2-2 3.5 0 1.3.9 1.8 2 1.2 1.1-.6 2-2.2 2-3.5 0-1.4-.9-1.9-2-1.2ZM280.2 306.697c-1.1.6-2 2.2-2 3.5 0 1.3.9 1.8 2 1.2 1.1-.6 2-2.2 2-3.5 0-1.3-.9-1.8-2-1.2ZM286.6 303.002c-1.1.6-2 2.2-2 3.5 0 1.3.9 1.8 2 1.2 1.1-.6 2-2.2 2-3.5 0-1.3-.8-1.8-2-1.2ZM293.1 299.303c-1.1.6-2 2.2-2 3.5 0 1.3.9 1.8 2 1.2 1.1-.6 2-2.2 2-3.5 0-1.3-.9-1.9-2-1.2ZM299.5 295.603c-1.1.6-2 2.2-2 3.5 0 1.3.9 1.8 2 1.2 1.1-.6 2-2.2 2-3.5 0-1.4-.9-1.9-2-1.2ZM305.9 291.9c-1.1.6-2 2.2-2 3.5 0 1.3.9 1.8 2 1.2 1.1-.6 2-2.2 2-3.5.1-1.4-.8-1.9-2-1.2Z"/><path fill="#455A64" d="M396.2 334.104c-3.5 0-6.8-.9-9.8-2.6-7.2-4.2-11.3-12.9-11.3-23.9 0-19.4 12.3-41.7 28-50.8 8.5-4.9 16.9-5.4 23.7-1.5 7.2 4.2 11.3 12.9 11.3 23.9 0 19.4-12.3 41.7-28 50.8-4.8 2.8-9.5 4.1-13.9 4.1Zm20.6-67.4c-2.5 0-5.2 1.3-6.8 2.2-11.4 6.6-21.1 24.3-21.1 38.7 0 5.8 1.6 10.2 4.4 11.8 3.1 1.8 7.4-.2 9.7-1.5 11.4-6.6 21.1-24.3 21.1-38.7 0-5.8-1.6-10.2-4.4-11.8-.8-.4-1.8-.7-2.9-.7Z"/><path fill="#37474F" d="M426.6 282.4c0-10.9-6.9-14.9-6.9-14.9 2.7 1.6 4.4 6 4.4 11.8 0 14.4-9.6 32.1-21.1 38.7-2.3 1.3-6.6 3.3-9.7 1.5 0 0 5.8 3.6 13.8-.8 11.6-6.3 19.5-21.9 19.5-36.3ZM415.6 146.302c0-4-3.2-7.2-7.2-7.2s-7.2 3.2-7.2 7.2v114.7c0 1.1.7 2.1 2.1 2.9 2.8 1.6 7.4 1.6 10.2 0 1.4-.8 2.1-1.9 2.1-2.9v-114.7Z"/><path fill="#455A64" d="M409.8 171.903c0-2.7-1.9-5.9-4.2-7.2-1.2-.7-2.2-.7-3-.3l-17.8 10.3-.4.3c-.1 0-.1.1-.2.1-.3.2-.6.4-.9.7-1.1 1.1-1.7 2.6-1.7 4.2 0 2.2 1.2 4.2 3.1 5.2.8.5 1.8.7 2.8.7 1 0 2-.3 2.8-.7.1-.1.2-.1.3-.2l17.9-10.3c.9-.5 1.3-1.5 1.3-2.8ZM409.8 200.7c0-2.7-1.9-5.9-4.2-7.2-1.2-.7-2.2-.7-3-.3l-20.9 12-.4.3c-.1 0-.1.1-.2.1-.3.2-.6.4-.9.7-1.1 1.1-1.7 2.6-1.7 4.2 0 2.2 1.2 4.2 3.1 5.2.8.5 1.8.7 2.8.7 1 0 2-.3 2.8-.7.1-.1.2-.1.3-.2l21-12c.9-.6 1.3-1.5 1.3-2.8Z"/></svg>