<svg xmlns="http://www.w3.org/2000/svg" width="60" height="40" fill="none"><g clip-path="url(#a)"><path fill="#063" d="M0 16.622h11.635v7.156c0 3.38-1.2 6.278-3.591 8.68-1.863 1.87-4.026 3.014-6.496 3.432A5.963 5.963 0 0 1 .47 40c4.008-.246 7.462-1.822 10.373-4.729 3.174-3.174 4.763-7.01 4.763-11.495V12.654H2.445L.001 16.622Z"/><path fill="#009640" fill-rule="evenodd" d="M7.444.186a5.428 5.428 0 1 0 2.81 10.486A5.428 5.428 0 0 0 7.445.186Z" clip-rule="evenodd"/><path fill="#1D1D1B" d="M44.994 17.486a7.04 7.04 0 0 1-.534 2.572c-.331.787-.773 1.413-1.328 1.876-.562.465-1.163.695-1.8.695h-3.048V20.45h3.048c.29 0 .568-.08.838-.238a2.27 2.27 0 0 0 .713-.695c.24-.354.41-.751.51-1.19h-5.72v-1.135c0-.964.164-1.858.495-2.683.332-.824.778-1.479 1.34-1.968.555-.476 1.162-.713 1.824-.713h2.809v2.16h-2.809c-.578 0-1.095.318-1.55.952-.24.353-.415 1.122-.522 1.587h5.732v.957l.002.002ZM24.32 31.175a7.038 7.038 0 0 1-.533 2.572c-.332.787-.774 1.413-1.328 1.877-.562.464-1.163.695-1.8.695H17.61v-2.18h3.049c.289 0 .568-.079.838-.237.268-.16.506-.392.713-.696.24-.354.41-.75.51-1.19h-5.721v-1.134c0-.964.165-1.859.496-2.683.331-.825.778-1.48 1.34-1.968.554-.477 1.161-.713 1.824-.713h2.808v2.16H20.66c-.579 0-1.096.317-1.551.951-.24.354-.414 1.122-.522 1.587h5.733v.958l.001.001Zm.586-17.727c.806.956 1.21 2.215 1.21 3.782 0 1.566-.404 2.825-1.21 3.78-.806.957-1.92 1.434-3.342 1.434-1.422 0-2.537-.478-3.348-1.433-.811-.955-1.217-2.215-1.217-3.781 0-1.567.403-2.826 1.21-3.782.806-.955 1.924-1.433 3.355-1.433s2.534.478 3.342 1.433Zm-5.155 1.29c-.414.605-.62 1.435-.62 2.492 0 1.056.207 1.886.62 2.492.412.605 1.017.907 1.814.907.798 0 1.388-.303 1.8-.907.413-.606.62-1.436.62-2.492 0-1.057-.207-1.887-.62-2.493-.413-.605-1.013-.907-1.8-.907-.786 0-1.402.303-1.815.907Zm12.024 7.532h-3.414V12.188h3.111c1.162 0 2.072.22 2.73.662.657.442.986 1.09.986 1.944 0 .93-.37 1.628-1.11 2.088.99.461 1.484 1.263 1.484 2.405 0 .99-.334 1.733-1 2.233-.668.5-1.597.75-2.788.75h.001Zm-1.412-7.882v1.99h1.484c.865 0 1.296-.422 1.296-1.268 0-.778-.553-1.166-1.656-1.166h-.679c-.244 0-.443.2-.443.444h-.002Zm0 4.514v1.61h1.238c.634 0 1.11-.096 1.433-.288.322-.192.483-.514.483-.965 0-.883-.582-1.325-1.744-1.325h-.443a.968.968 0 0 0-.968.968h.001Z"/><path fill="#063" d="M48.134 13.098a1.79 1.79 0 0 1-1.03-.323v9.496h2.06v-9.496a1.794 1.794 0 0 1-1.03.322Z"/><path fill="#1D1D1B" d="M53.627 22.27h-1.902V12.188h1.987c1.229 2.372 2.693 4.772 4.393 7.201a11.45 11.45 0 0 1-.057-1.253v-5.948h1.902V22.27h-2.003a85.233 85.233 0 0 1-2.419-3.384 41.875 41.875 0 0 1-1.958-3.24c.037.498.056 1.07.056 1.714v4.911-.001ZM33.19 36.32l-.606-2.22H28.87a50.224 50.224 0 0 0-.606 2.22h-2.118c1.153-4.215 2.32-8.177 3.5-10.683h2.146c1.22 2.584 2.39 6.544 3.515 10.682h-2.118.002Zm-2.463-8.494c-.346.75-.797 2.654-1.353 4.517h2.693c-.576-1.93-1.022-3.835-1.34-4.517Zm6.382 4.284v-6.44h2.06v6.295c0 1.671.647 2.506 1.943 2.506s1.93-.835 1.93-2.506v-6.294h2.06v6.438c0 1.353-.34 2.39-1.022 3.104-.682.715-1.672 1.073-2.968 1.073s-2.289-.358-2.974-1.073c-.686-.715-1.03-1.75-1.03-3.104Zm10.425 4.21V25.636h3.37c1.528 0 2.745.45 3.652 1.348.907.898 1.36 2.12 1.36 3.666 0 1.546-.455 3.402-1.368 4.309-.912.906-2.126 1.36-3.643 1.36h-3.37Zm3.312-8.926c-.692 0-1.252.56-1.252 1.253v5.914h1.252c1.96 0 2.938-1.704 2.938-3.913 0-2.21-.979-3.256-2.938-3.256v.002Zm7.044 8.866V25.577h2.06v10.681h-2.06Z"/><path fill="#009640" d="M49.634 11.152c0 .41-.162.78-.427 1.05a1.487 1.487 0 0 1-1.073.45c-.399 0-.762-.154-1.03-.407l-.043-.044a1.501 1.501 0 1 1 2.573-1.049Z"/></g><defs><clipPath id="a"><path fill="#fff" d="M0 0h59.95v40H0z"/></clipPath></defs></svg>