<svg width="500" height="500" viewBox="0 0 500 500" fill="none" xmlns="http://www.w3.org/2000/svg">
<path d="M500 382.398H0V382.598H500V382.398Z" fill="#EBEBEB"/>
<path d="M449.9 398.5H416.8V398.7H449.9V398.5Z" fill="#EBEBEB"/>
<path d="M331.2 401.203H322.5V401.403H331.2V401.203Z" fill="#EBEBEB"/>
<path d="M415.8 389.203H396.6V389.403H415.8V389.203Z" fill="#EBEBEB"/>
<path d="M95.7 390.898H52.5V391.098H95.7V390.898Z" fill="#EBEBEB"/>
<path d="M110.9 390.898H104.6V391.098H110.9V390.898Z" fill="#EBEBEB"/>
<path d="M225.2 395.102H131.5V395.302H225.2V395.102Z" fill="#EBEBEB"/>
<path d="M237 337.8H43.9C40.8 337.8 38.2 335.2 38.2 332.1V60.7C38.2 57.6 40.8 55 43.9 55H237C240.1 55 242.7 57.6 242.7 60.7V332.1C242.7 335.2 240.2 337.8 237 337.8ZM43.9 55.2C40.9 55.2 38.4 57.6 38.4 60.7V332.1C38.4 335.1 40.8 337.6 43.9 337.6H237C240 337.6 242.5 335.2 242.5 332.1V60.7C242.5 57.7 240.1 55.2 237 55.2H43.9Z" fill="#EBEBEB"/>
<path d="M453.3 337.8H260.2C257.1 337.8 254.5 335.2 254.5 332.1V60.7C254.5 57.6 257.1 55 260.2 55H453.3C456.4 55 459 57.6 459 60.7V332.1C459 335.2 456.5 337.8 453.3 337.8ZM260.2 55.2C257.2 55.2 254.7 57.6 254.7 60.7V332.1C254.7 335.1 257.1 337.6 260.2 337.6H453.3C456.3 337.6 458.8 335.2 458.8 332.1V60.7C458.8 57.7 456.4 55.2 453.3 55.2H260.2Z" fill="#EBEBEB"/>
<path d="M222.6 183.703H66.1001V381.903H222.6V183.703Z" fill="#F0F0F0"/>
<path d="M217.2 191H71.7002V233.4H217.2V191Z" fill="#E0E0E0"/>
<path d="M80.0002 197.797H71.7002V233.297H80.0002V197.797Z" fill="#EBEBEB"/>
<path d="M119.9 197.797H111.6V233.297H119.9V197.797Z" fill="#EBEBEB"/>
<path d="M165.324 196.958L157.145 198.367L163.172 233.352L171.352 231.943L165.324 196.958Z" fill="#EBEBEB"/>
<path d="M90.2001 202.5H81.9001V233.3H90.2001V202.5Z" fill="#EBEBEB"/>
<path d="M109.2 202.5H100.9V233.3H109.2V202.5Z" fill="#EBEBEB"/>
<path d="M157.2 202.5H148.9V233.3H157.2V202.5Z" fill="#EBEBEB"/>
<path d="M130.762 201.473L122.659 203.273L129.34 233.34L137.442 231.54L130.762 201.473Z" fill="#EBEBEB"/>
<path d="M97.3002 196.102H93.2002V233.402H97.3002V196.102Z" fill="#EBEBEB"/>
<path d="M146.4 196.102H142.3V233.402H146.4V196.102Z" fill="#EBEBEB"/>
<path d="M71.6267 282.398H217.127V239.998L71.6267 239.998V282.398Z" fill="#E0E0E0"/>
<path d="M208.833 282.461H217.133V246.961H208.833V282.461Z" fill="#EBEBEB"/>
<path d="M168.917 282.461H177.217V246.961H168.917V282.461Z" fill="#EBEBEB"/>
<path d="M117.474 281.005L125.654 282.414L131.682 247.429L123.502 246.019L117.474 281.005Z" fill="#EBEBEB"/>
<path d="M198.654 282.445H206.954V251.645H198.654V282.445Z" fill="#EBEBEB"/>
<path d="M179.566 282.445H187.866V251.645H179.566V282.445Z" fill="#EBEBEB"/>
<path d="M131.68 282.445H139.98V251.645H131.68V282.445Z" fill="#EBEBEB"/>
<path d="M151.378 280.622L159.48 282.422L166.161 252.355L158.058 250.555L151.378 280.622Z" fill="#EBEBEB"/>
<path d="M191.531 282.398H195.631V245.098H191.531V282.398Z" fill="#EBEBEB"/>
<path d="M142.427 282.398H146.527V245.098H142.427V282.398Z" fill="#EBEBEB"/>
<path d="M80 246.906H71.7V282.406H80V246.906Z" fill="#EBEBEB"/>
<path d="M90.1999 251.602H81.8999V282.402H90.1999V251.602Z" fill="#EBEBEB"/>
<path d="M109.2 251.602H100.9V282.402H109.2V251.602Z" fill="#EBEBEB"/>
<path d="M97.3 245.203H93.2V282.503H97.3V245.203Z" fill="#EBEBEB"/>
<path d="M217.2 289.203H71.7V331.603H217.2V289.203Z" fill="#E0E0E0"/>
<path d="M163.5 296.008H155.2V331.508H163.5V296.008Z" fill="#EBEBEB"/>
<path d="M208.822 295.177L200.643 296.586L206.671 331.571L214.85 330.162L208.822 295.177Z" fill="#EBEBEB"/>
<path d="M133.8 300.703H125.5V331.503H133.8V300.703Z" fill="#EBEBEB"/>
<path d="M152.7 300.703H144.4V331.503H152.7V300.703Z" fill="#EBEBEB"/>
<path d="M200.7 300.703H192.4V331.503H200.7V300.703Z" fill="#EBEBEB"/>
<path d="M174.36 299.668L166.258 301.469L172.938 331.536L181.041 329.735L174.36 299.668Z" fill="#EBEBEB"/>
<path d="M140.8 294.305H136.7V331.605H140.8V294.305Z" fill="#EBEBEB"/>
<path d="M190 294.305H185.9V331.605H190V294.305Z" fill="#EBEBEB"/>
<path d="M113.72 295.177L105.54 296.586L111.568 331.571L119.748 330.162L113.72 295.177Z" fill="#EBEBEB"/>
<path d="M105.6 300.703H97.3V331.503H105.6V300.703Z" fill="#EBEBEB"/>
<path d="M79.2594 299.668L71.157 301.469L77.8375 331.536L85.94 329.735L79.2594 299.668Z" fill="#EBEBEB"/>
<path d="M94.9 294.305H90.8V331.605H94.9V294.305Z" fill="#EBEBEB"/>
<path d="M305.3 263.602H393.5C403.1 263.602 410.8 271.402 410.8 280.902V349.802H288V281.002C288 271.402 295.7 263.602 305.3 263.602Z" fill="#E6E6E6"/>
<path d="M261.9 314.703H277.7C283.4 314.703 288 319.303 288 325.003V382.003H251.6V325.003C251.6 319.303 256.2 314.703 261.9 314.703Z" fill="#E0E0E0"/>
<path d="M261.9 314.703H262.2C267.9 314.703 272.5 319.303 272.5 325.003V382.003H251.6V325.003C251.6 319.303 256.2 314.703 261.9 314.703Z" fill="#EBEBEB"/>
<path d="M398 355.805H276.9V382.005H398V355.805Z" fill="#E6E6E6"/>
<path d="M276.7 331.898H393.5C399.3 331.898 404 336.598 404 342.398V348.898C404 354.698 399.3 359.398 393.5 359.398H276.7C270.9 359.398 266.2 354.698 266.2 348.898V342.398C266.3 336.498 271 331.898 276.7 331.898Z" fill="#F5F5F5"/>
<path d="M378.8 331.898H393.3C399.1 331.898 403.8 336.598 403.8 342.398V348.898C403.8 354.698 399.1 359.398 393.3 359.398H378.8C373 359.398 368.3 354.698 368.3 348.898V342.398C368.4 336.498 373 331.898 378.8 331.898Z" fill="#E0E0E0"/>
<path d="M394.9 314.703H410.7C416.4 314.703 421 319.303 421 325.003V382.003H384.6V325.003C384.6 319.303 389.2 314.703 394.9 314.703Z" fill="#E0E0E0"/>
<path d="M394.9 314.703H395.2C400.9 314.703 405.5 319.303 405.5 325.003V382.003H384.6V325.003C384.6 319.303 389.2 314.703 394.9 314.703Z" fill="#F0F0F0"/>
<path d="M150.285 159.693C163.151 157.605 171.888 145.483 169.8 132.617C167.712 119.751 155.589 111.014 142.724 113.102C129.858 115.19 121.121 127.313 123.209 140.178C125.297 153.044 137.419 161.781 150.285 159.693Z" fill="#E0E0E0"/>
<path d="M149.708 156.139C160.612 154.37 168.016 144.097 166.246 133.193C164.477 122.29 154.204 114.886 143.3 116.655C132.397 118.425 124.993 128.698 126.762 139.601C128.532 150.505 138.805 157.909 149.708 156.139Z" fill="#F0F0F0"/>
<path d="M145.5 150.102V136.102L136.3 141.402" fill="#F0F0F0"/>
<path d="M145.5 150.102V136.102L136.3 141.402" stroke="#E0E0E0" stroke-width="2" stroke-miterlimit="10" stroke-linecap="round" stroke-linejoin="round"/>
<path d="M428.7 106.703H277.9V240.503H428.7V106.703Z" fill="#E6E6E6"/>
<path d="M424.6 110.406H281.6V236.906H424.6V110.406Z" fill="#F0F0F0"/>
<path d="M315.2 110.406L281.6 236.606V177.306L299.4 110.406H315.2Z" fill="white"/>
<path d="M327.1 110.406L293.2 236.906H287.8L321.7 110.406H327.1Z" fill="white"/>
<path d="M424.6 190.203V210.403L417.8 236.903H412.4L424.6 190.203Z" fill="white"/>
<path d="M331.5 108.102H329.1V239.702H331.5V108.102Z" fill="#E6E6E6"/>
<path d="M378.2 108.102H375.8V239.702H378.2V108.102Z" fill="#E6E6E6"/>
<path d="M250 427.498C357.088 427.498 443.9 422.439 443.9 416.198C443.9 409.958 357.088 404.898 250 404.898C142.912 404.898 56.1001 409.958 56.1001 416.198C56.1001 422.439 142.912 427.498 250 427.498Z" fill="#F5F5F5"/>
<path d="M401.9 391.198C401.9 391.198 406.7 380.798 401.2 370.598C395.8 360.398 394.2 357.998 397.7 355.898C401.2 353.798 402.7 364.098 402.7 364.098C402.7 364.098 405.6 356.998 403.2 349.598C400.8 342.198 399.3 330.198 402.6 328.898C405.9 327.598 403.2 343.898 406.1 349.498C406.1 349.498 408.5 343.298 408.9 337.398C409.3 331.498 408.7 321.998 411.3 319.598C413.9 317.198 415.6 318.898 413 331.998C410.4 345.098 410.5 355.798 410.5 355.798C410.5 355.798 416.1 338.598 419.9 338.098C423.7 337.598 423.7 343.198 420.4 347.998C417.2 352.798 410.9 361.498 409.9 365.898C409.9 365.898 416.1 352.998 421.7 356.898C427.3 360.898 416.9 368.698 412.2 371.498C407.6 374.298 404.3 391.998 404.3 391.998L401.9 391.198Z" fill="#009640"/>
<path opacity="0.2" d="M401.9 391.198C401.9 391.198 406.7 380.798 401.2 370.598C395.8 360.398 394.2 357.998 397.7 355.898C401.2 353.798 402.7 364.098 402.7 364.098C402.7 364.098 405.6 356.998 403.2 349.598C400.8 342.198 399.3 330.198 402.6 328.898C405.9 327.598 403.2 343.898 406.1 349.498C406.1 349.498 408.5 343.298 408.9 337.398C409.3 331.498 408.7 321.998 411.3 319.598C413.9 317.198 415.6 318.898 413 331.998C410.4 345.098 410.5 355.798 410.5 355.798C410.5 355.798 416.1 338.598 419.9 338.098C423.7 337.598 423.7 343.198 420.4 347.998C417.2 352.798 410.9 361.498 409.9 365.898C409.9 365.898 416.1 352.998 421.7 356.898C427.3 360.898 416.9 368.698 412.2 371.498C407.6 374.298 404.3 391.998 404.3 391.998L401.9 391.198Z" fill="black"/>
<path d="M405.6 395.499C405.6 395.499 401 385.099 406.5 374.899C412 364.799 413.7 362.399 410.2 360.199C406.8 358.099 405.1 368.299 405.1 368.299C405.1 368.299 402.3 361.199 404.8 353.799C407.3 346.399 409 334.399 405.7 333.099C402.4 331.799 404.9 348.099 402 353.599C402 353.599 399.7 347.399 399.4 341.399C399.1 335.499 399.8 325.999 397.2 323.499C394.6 320.999 392.9 322.699 395.3 335.799C397.7 348.899 397.5 359.599 397.5 359.599C397.5 359.599 392.1 342.299 388.3 341.799C384.5 341.199 384.5 346.799 387.6 351.699C390.8 356.599 396.9 365.299 397.9 369.799C397.9 369.799 391.9 356.799 386.3 360.699C380.7 364.599 391 372.499 395.6 375.399C400.2 378.299 403.2 395.999 403.2 395.999L405.6 395.499Z" fill="#009640"/>
<path d="M384.3 388H422.5L419.4 415.4H387.4L384.3 388Z" fill="#263238"/>
<path d="M242.6 411V414.6C242.6 415 242.2 415.4 241.8 415.4H140.4C136.6 415.4 134.1 411.6 135.5 408.1L167.6 328.5L219.5 328.9L217.7 339.2L206.2 406C205.8 408.2 207.5 410.1 209.7 410.1H241.7C242.2 410.2 242.6 410.5 242.6 411Z" fill="#263238"/>
<path opacity="0.5" d="M242.6 411V414.6C242.6 415 242.2 415.4 241.8 415.4H140.4C136.6 415.4 134.1 411.6 135.5 408.1L155.4 358.8L167.6 328.5L219.5 328.9L217.7 339.2L212.7 368.3L206.2 406.1C205.8 408.3 207.5 410.2 209.7 410.2H241.7C242.2 410.2 242.6 410.5 242.6 411Z" fill="white"/>
<path opacity="0.2" d="M209.8 410.203H143.8C142.1 410.203 141 408.503 141.7 407.003L169.9 339.203H217.8L206.3 406.003C205.9 408.203 207.6 410.203 209.8 410.203Z" fill="black"/>
<path opacity="0.1" d="M219.5 328.9L217.8 339.2L212.8 368.3L155.4 358.8L167.6 328.5L219.5 328.9Z" fill="black"/>
<path d="M320.5 180.5H315.4H85.1999H80.0999C76.6999 180.5 73.8999 183.3 73.8999 186.7V349.5C73.8999 352.9 76.6999 355.7 80.0999 355.7H85.1999H315.5H320.6C324 355.7 326.8 352.9 326.8 349.5V186.7C326.7 183.3 323.9 180.5 320.5 180.5Z" fill="#263238"/>
<path opacity="0.6" d="M320.5 180.5H315.4H85.1999H80.0999C76.6999 180.5 73.8999 183.3 73.8999 186.7V349.5C73.8999 352.9 76.6999 355.7 80.0999 355.7H85.1999H315.5H320.6C324 355.7 326.8 352.9 326.8 349.5V186.7C326.7 183.3 323.9 180.5 320.5 180.5Z" fill="white"/>
<path opacity="0.2" d="M85.2 355.6H80.1C76.7 355.6 74 352.8 74 349.5V186.7C74 183.3 76.8 180.5 80.1 180.5H85.2C81.8 180.5 79.1 183.3 79.1 186.7V349.5C79 352.8 81.8 355.6 85.2 355.6Z" fill="black"/>
<path d="M321.2 185.797H84.5999V342.797H321.2V185.797Z" fill="#009640"/>
<path opacity="0.4" d="M199.6 245.5C210.922 245.5 220.1 236.322 220.1 225C220.1 213.678 210.922 204.5 199.6 204.5C188.278 204.5 179.1 213.678 179.1 225C179.1 236.322 188.278 245.5 199.6 245.5Z" fill="white"/>
<path d="M194.7 221.898V219.998C194.7 218.098 196.2 216.598 198.1 216.598H201.1C203 216.598 204.5 218.098 204.5 219.998V221.898H206.7V219.998C206.7 216.898 204.2 214.398 201.1 214.398H198.1C195 214.398 192.5 216.898 192.5 219.998V221.898H194.7Z" fill="white"/>
<path d="M189.8 224.397V234.497C189.8 235.097 190.3 235.597 190.9 235.597H208.4C209 235.597 209.5 235.097 209.5 234.497V224.397C209.5 223.797 209 223.297 208.4 223.297H190.9C190.3 223.297 189.8 223.797 189.8 224.397ZM200.2 230.097V232.097H199V230.097C198.6 229.897 198.4 229.497 198.4 229.097C198.4 228.397 199 227.897 199.6 227.897C200.3 227.897 200.8 228.497 200.8 229.097C200.8 229.497 200.6 229.897 200.2 230.097Z" fill="white"/>
<path d="M149.5 286.1H130.1C128.9 286.1 128 285.2 128 284V264.6C128 263.4 128.9 262.5 130.1 262.5H149.5C150.7 262.5 151.6 263.4 151.6 264.6V284C151.6 285.2 150.6 286.1 149.5 286.1Z" fill="white"/>
<path d="M179.4 286.1H160C158.8 286.1 157.9 285.2 157.9 284V264.6C157.9 263.4 158.8 262.5 160 262.5H179.4C180.6 262.5 181.5 263.4 181.5 264.6V284C181.5 285.2 180.6 286.1 179.4 286.1Z" fill="white"/>
<path d="M209.3 286.1H189.9C188.7 286.1 187.8 285.2 187.8 284V264.6C187.8 263.4 188.7 262.5 189.9 262.5H209.3C210.5 262.5 211.4 263.4 211.4 264.6V284C211.4 285.1 210.5 286.1 209.3 286.1Z" fill="white"/>
<path d="M239.2 285.998H219.8C218.6 285.998 217.7 285.098 217.7 283.898V264.498C217.7 263.298 218.6 262.398 219.8 262.398H239.2C240.4 262.398 241.3 263.298 241.3 264.498V283.898C241.3 285.098 240.4 285.998 239.2 285.998Z" fill="white"/>
<path d="M269.1 285.998H249.7C248.5 285.998 247.6 285.098 247.6 283.898V264.498C247.6 263.298 248.5 262.398 249.7 262.398H269.1C270.3 262.398 271.2 263.298 271.2 264.498V283.898C271.2 285.098 270.3 285.998 269.1 285.998Z" fill="white"/>
<path d="M254.2 274.695C254.2 270.595 256.4 268.195 259.4 268.195C262.4 268.195 264.6 270.595 264.6 274.695C264.6 278.795 262.4 281.195 259.4 281.195C256.4 281.195 254.2 278.795 254.2 274.695ZM262.8 274.695C262.8 271.395 261.4 269.795 259.4 269.795C257.4 269.795 256 271.395 256 274.695C256 277.995 257.4 279.595 259.4 279.595C261.4 279.595 262.8 277.895 262.8 274.695Z" fill="#263238"/>
<path d="M144.5 274.495C144.5 278.795 142 281.195 138.5 281.195C137.3 281.195 136.2 280.995 135.3 280.495L136 279.095C136.7 279.495 137.5 279.695 138.5 279.695C141.1 279.695 142.7 278.095 142.7 274.895V274.395C142 275.495 140.6 276.095 139 276.095C136.5 276.095 134.7 274.595 134.7 272.195C134.7 269.695 136.7 268.195 139.2 268.195C142.6 268.195 144.5 270.395 144.5 274.495ZM142.3 272.095C142.3 270.795 141.2 269.595 139.3 269.595C137.6 269.595 136.5 270.595 136.5 272.095C136.5 273.595 137.6 274.595 139.4 274.595C141.1 274.595 142.3 273.495 142.3 272.095Z" fill="#263238"/>
<path d="M164.5 274.695C164.5 270.595 166.7 268.195 169.7 268.195C172.7 268.195 174.9 270.595 174.9 274.695C174.9 278.795 172.7 281.195 169.7 281.195C166.7 281.195 164.5 278.795 164.5 274.695ZM173.1 274.695C173.1 271.395 171.7 269.795 169.7 269.795C167.7 269.795 166.3 271.395 166.3 274.695C166.3 277.995 167.7 279.595 169.7 279.595C171.7 279.595 173.1 277.895 173.1 274.695Z" fill="#263238"/>
<path d="M204.2 279.497V281.097H195.1V279.897L200.3 274.897C201.6 273.597 201.9 272.797 201.9 271.997C201.9 270.697 201 269.897 199.2 269.897C197.8 269.897 196.7 270.297 195.9 271.297L194.7 270.197C195.7 268.997 197.4 268.297 199.4 268.297C202.1 268.297 203.8 269.697 203.8 271.797C203.8 272.997 203.4 274.097 201.7 275.797L197.8 279.497H204.2Z" fill="#263238"/>
<path d="M231 268.297V280.997H229.2V269.897H226.3V268.297H231Z" fill="#263238"/>
<g opacity="0.6">
<path d="M177.2 256.797V257.197H173.7V252.297H177.1V252.697H174.3V254.397H176.8V254.797H174.3V256.597H177.2V256.797Z" fill="white"/>
<path d="M181.7 255.098V257.198H181.2V255.098C181.2 254.298 180.8 253.898 180.1 253.898C179.3 253.898 178.8 254.398 178.8 255.198V257.098H178.3V253.398H178.8V254.098C179.1 253.698 179.6 253.398 180.2 253.398C181.1 253.498 181.7 253.998 181.7 255.098Z" fill="white"/>
<path d="M185 256.997C184.8 257.197 184.5 257.297 184.2 257.297C183.5 257.297 183.1 256.897 183.1 256.197V253.997H182.4V253.597H183.1V252.797H183.6V253.597H184.7V253.997H183.6V256.197C183.6 256.597 183.8 256.897 184.2 256.897C184.4 256.897 184.6 256.797 184.7 256.697L185 256.997Z" fill="white"/>
<path d="M189 255.498H185.9C186 256.298 186.5 256.798 187.3 256.798C187.7 256.798 188.1 256.598 188.4 256.298L188.7 256.598C188.4 256.998 187.9 257.198 187.3 257.198C186.2 257.198 185.4 256.398 185.4 255.298C185.4 254.198 186.2 253.398 187.2 253.398C188.2 253.398 189 254.198 189 255.298C189 255.398 189 255.498 189 255.498ZM185.9 255.198H188.5C188.4 254.498 187.9 253.998 187.2 253.998C186.5 253.998 186 254.498 185.9 255.198Z" fill="white"/>
<path d="M191.9 253.5V254H191.8C191 254 190.6 254.5 190.6 255.4V257.3H190V253.6H190.5V254.3C190.7 253.8 191.2 253.5 191.9 253.5Z" fill="white"/>
<path d="M197.7 253.594L195.9 257.694C195.6 258.394 195.2 258.694 194.7 258.694C194.4 258.694 194 258.594 193.8 258.394L194 257.994C194.2 258.194 194.4 258.294 194.7 258.294C195 258.294 195.3 258.094 195.5 257.694L195.7 257.294L194.1 253.594H194.6L196 256.694L197.4 253.594H197.7Z" fill="white"/>
<path d="M198 255.4C198 254.3 198.8 253.5 199.9 253.5C201 253.5 201.8 254.3 201.8 255.4C201.8 256.5 201 257.3 199.9 257.3C198.8 257.3 198 256.5 198 255.4ZM201.2 255.4C201.2 254.5 200.6 254 199.8 254C199 254 198.4 254.6 198.4 255.4C198.4 256.3 199 256.8 199.8 256.8C200.6 256.8 201.2 256.3 201.2 255.4Z" fill="white"/>
<path d="M206.1 253.594V257.294H205.6V256.594C205.3 256.994 204.9 257.294 204.3 257.294C203.4 257.294 202.7 256.794 202.7 255.694V253.594H203.2V255.694C203.2 256.494 203.6 256.894 204.3 256.894C205.1 256.894 205.6 256.394 205.6 255.594V253.694H206.1V253.594Z" fill="white"/>
<path d="M209.3 253.5V254H209.2C208.4 254 208 254.5 208 255.4V257.3H207.5V253.6H208V254.3C208.2 253.8 208.6 253.5 209.3 253.5Z" fill="white"/>
<path d="M211.8 254.797C211.8 253.397 212.9 252.297 214.4 252.297C215.9 252.297 217 253.397 217 254.797C217 256.197 215.9 257.297 214.4 257.297C212.8 257.297 211.8 256.197 211.8 254.797ZM216.4 254.797C216.4 253.597 215.5 252.797 214.3 252.797C213.1 252.797 212.2 253.697 212.2 254.797C212.2 255.997 213.1 256.797 214.3 256.797C215.5 256.797 216.4 255.997 216.4 254.797Z" fill="white"/>
<path d="M218.9 252.798H217.2V252.398H221.2V252.798H219.5V257.298H219V252.798H218.9Z" fill="white"/>
<path d="M225.8 253.997C225.8 254.997 225 255.697 223.8 255.697H222.5V257.197H222V252.297H223.8C225.1 252.297 225.8 252.997 225.8 253.997ZM225.3 253.997C225.3 253.197 224.8 252.797 223.8 252.797H222.5V255.297H223.8C224.8 255.197 225.3 254.797 225.3 253.997Z" fill="white"/>
</g>
<g opacity="0.6">
<path d="M180.1 298.902L180.3 298.502C180.7 298.802 181.3 299.102 181.9 299.102C182.8 299.102 183.2 298.702 183.2 298.202C183.2 296.902 180.2 297.702 180.2 295.902C180.2 295.202 180.8 294.602 182 294.602C182.6 294.602 183.1 294.802 183.5 295.002L183.3 295.402C182.9 295.102 182.4 295.002 182 295.002C181.1 295.002 180.7 295.402 180.7 295.902C180.7 297.202 183.7 296.402 183.7 298.202C183.7 298.902 183.1 299.502 181.9 299.502C181.2 299.502 180.5 299.302 180.1 298.902Z" fill="white"/>
<path d="M188 297.803H184.9C185 298.603 185.5 299.103 186.3 299.103C186.7 299.103 187.1 298.903 187.4 298.603L187.7 298.903C187.4 299.303 186.9 299.503 186.3 299.503C185.2 299.503 184.4 298.703 184.4 297.603C184.4 296.503 185.2 295.703 186.2 295.703C187.2 295.703 188 296.503 188 297.603C188 297.703 188 297.703 188 297.803ZM184.9 297.403H187.5C187.4 296.703 186.9 296.203 186.2 296.203C185.5 296.203 185 296.703 184.9 297.403Z" fill="white"/>
<path d="M192.4 297.403V299.503H191.9V297.403C191.9 296.603 191.5 296.203 190.8 296.203C190 296.203 189.5 296.703 189.5 297.503V299.403H189V295.703H189.5V296.403C189.8 296.003 190.3 295.703 190.9 295.703C191.8 295.803 192.4 296.303 192.4 297.403Z" fill="white"/>
<path d="M197.2 294.305V299.505H196.7V298.805C196.4 299.305 195.9 299.605 195.3 299.605C194.2 299.605 193.5 298.805 193.5 297.705C193.5 296.605 194.3 295.805 195.3 295.805C195.9 295.805 196.4 296.105 196.7 296.505V294.305H197.2ZM196.7 297.605C196.7 296.705 196.1 296.205 195.3 296.205C194.5 296.205 193.9 296.805 193.9 297.605C193.9 298.505 194.5 299.005 195.3 299.005C196.1 299.105 196.7 298.505 196.7 297.605Z" fill="white"/>
<path d="M203.2 297.203V299.503H202.7V298.903C202.5 299.303 202 299.503 201.4 299.503C200.6 299.503 200.1 299.103 200.1 298.403C200.1 297.803 200.5 297.403 201.5 297.403H202.7V297.203C202.7 296.603 202.3 296.203 201.7 296.203C201.2 296.203 200.8 296.403 200.5 296.603L200.3 296.203C200.7 295.903 201.2 295.703 201.8 295.703C202.6 295.803 203.2 296.303 203.2 297.203ZM202.7 298.403V297.803H201.5C200.8 297.803 200.6 298.103 200.6 298.503C200.6 298.903 200.9 299.203 201.5 299.203C202 299.103 202.5 298.903 202.7 298.403Z" fill="white"/>
<path d="M207.9 295.802V299.002C207.9 300.302 207.3 300.802 206.1 300.802C205.4 300.802 204.8 300.602 204.4 300.202L204.7 299.802C205.1 300.102 205.6 300.302 206.1 300.302C207 300.302 207.5 299.902 207.5 299.002V298.502C207.2 299.002 206.7 299.202 206.1 299.202C205 299.202 204.3 298.502 204.3 297.402C204.3 296.302 205.1 295.602 206.1 295.602C206.7 295.602 207.2 295.902 207.6 296.302V295.602H207.9V295.802ZM207.4 297.602C207.4 296.802 206.8 296.302 206 296.302C205.2 296.302 204.6 296.802 204.6 297.602C204.6 298.402 205.2 299.002 206 299.002C206.8 299.002 207.4 298.402 207.4 297.602Z" fill="white"/>
<path d="M212.1 297.203V299.503H211.6V298.903C211.4 299.303 210.9 299.503 210.3 299.503C209.5 299.503 209 299.103 209 298.403C209 297.803 209.4 297.403 210.4 297.403H211.6V297.203C211.6 296.603 211.2 296.203 210.6 296.203C210.1 296.203 209.7 296.403 209.4 296.603L209.2 296.203C209.6 295.903 210.1 295.703 210.7 295.703C211.6 295.803 212.1 296.303 212.1 297.203ZM211.6 298.403V297.803H210.4C209.7 297.803 209.5 298.103 209.5 298.503C209.5 298.903 209.8 299.203 210.4 299.203C211 299.103 211.4 298.903 211.6 298.403Z" fill="white"/>
<path d="M213.3 294.603C213.3 294.403 213.5 294.203 213.7 294.203C213.9 294.203 214.1 294.403 214.1 294.503C214.1 294.703 213.9 294.903 213.7 294.903C213.5 295.003 213.3 294.803 213.3 294.603ZM213.5 295.803H214V299.503H213.5V295.803Z" fill="white"/>
<path d="M218.7 297.403V299.503H218.2V297.403C218.2 296.603 217.8 296.203 217.1 296.203C216.3 296.203 215.8 296.703 215.8 297.503V299.403H215.3V295.703H215.8V296.403C216.1 296.003 216.6 295.703 217.2 295.703C218.1 295.803 218.7 296.303 218.7 297.403Z" fill="white"/>
</g>
<path opacity="0.4" d="M227.5 324.498H171.8C167.2 324.498 163.5 320.798 163.5 316.198C163.5 311.598 167.2 307.898 171.8 307.898H227.5C232.1 307.898 235.8 311.598 235.8 316.198C235.8 320.798 232.1 324.498 227.5 324.498Z" fill="white"/>
<path d="M177.9 315.798C177.9 314.098 179.2 312.898 180.9 312.898C181.8 312.898 182.5 313.198 183 313.798L182.5 314.298C182.1 313.798 181.5 313.598 180.9 313.598C179.6 313.598 178.7 314.498 178.7 315.798C178.7 316.998 179.6 317.998 180.9 317.998C181.5 317.998 182 317.798 182.5 317.298L183 317.798C182.5 318.398 181.7 318.698 180.9 318.698C179.1 318.598 177.9 317.398 177.9 315.798Z" fill="white"/>
<path d="M183.5 315.798C183.5 314.198 184.8 312.898 186.5 312.898C188.2 312.898 189.5 314.098 189.5 315.798C189.5 317.398 188.2 318.698 186.5 318.698C184.8 318.598 183.5 317.398 183.5 315.798ZM188.7 315.798C188.7 314.598 187.8 313.598 186.5 313.598C185.2 313.598 184.3 314.498 184.3 315.798C184.3 316.998 185.2 317.998 186.5 317.998C187.7 317.898 188.7 316.998 188.7 315.798Z" fill="white"/>
<path d="M195.5 313V318.6H194.8L191.4 314.4V318.6H190.6V313H191.3L194.7 317.2V313H195.5Z" fill="white"/>
<path d="M198.3 313.7H196.4V313H201V313.7H199.1V318.6H198.3V313.7Z" fill="white"/>
<path d="M201.9 313H202.7V318.6H201.9V313Z" fill="white"/>
<path d="M209.2 313V318.6H208.5L205.1 314.4V318.6H204.3V313H205L208.4 317.2V313H209.2Z" fill="white"/>
<path d="M210.8 316.1V313H211.6V316.2C211.6 317.4 212.2 318 213.2 318C214.2 318 214.8 317.4 214.8 316.2V313H215.6V316.2C215.6 317.8 214.7 318.7 213.2 318.7C211.7 318.6 210.8 317.8 210.8 316.1Z" fill="white"/>
<path d="M221.3 317.9V318.6H217.2V313H221.2V313.7H218V315.4H220.8V316.1H218V317.9H221.3Z" fill="white"/>
<path opacity="0.1" d="M296.5 186.5C263.8 219.3 179.8 292.2 84.5999 286.8V186.5H296.5Z" fill="white"/>
<path opacity="0.1" d="M321.1 246.803V343.503H178.7C184.2 324.003 195.1 297.203 216.3 278.103C254.4 243.703 298.6 243.803 321.1 246.803Z" fill="white"/>
<path d="M351.2 171.102L354.5 185.802L357.9 171.102H351.2Z" fill="#009640"/>
<path opacity="0.7" d="M351.2 171.102L354.5 185.802L357.9 171.102H351.2Z" fill="white"/>
<path d="M391.7 174.3H317.4C312.7 174.3 308.8 170.5 308.8 165.7V138.1C308.8 133.4 312.6 129.5 317.4 129.5H391.7C396.4 129.5 400.3 133.3 400.3 138.1V165.7C400.3 170.5 396.4 174.3 391.7 174.3Z" fill="#009640"/>
<path opacity="0.7" d="M391.7 174.3H317.4C312.7 174.3 308.8 170.5 308.8 165.7V138.1C308.8 133.4 312.6 129.5 317.4 129.5H391.7C396.4 129.5 400.3 133.3 400.3 138.1V165.7C400.3 170.5 396.4 174.3 391.7 174.3Z" fill="white"/>
<g opacity="0.5">
<path d="M327.1 145.997V147.897H326.3V145.897L324.1 142.297H325L326.8 145.297L328.6 142.297H329.4L327.1 145.997Z" fill="#263238"/>
<path d="M329.1 145.802C329.1 144.502 330 143.602 331.3 143.602C332.6 143.602 333.5 144.502 333.5 145.802C333.5 147.102 332.6 148.002 331.3 148.002C330.1 148.002 329.1 147.102 329.1 145.802ZM332.8 145.802C332.8 144.902 332.2 144.302 331.4 144.302C330.6 144.302 330 144.902 330 145.802C330 146.702 330.6 147.302 331.4 147.302C332.2 147.302 332.8 146.702 332.8 145.802Z" fill="#263238"/>
<path d="M338.6 143.703V147.903H337.9V147.303C337.6 147.703 337.1 148.003 336.5 148.003C335.4 148.003 334.7 147.403 334.7 146.203V143.803H335.5V146.203C335.5 147.003 335.9 147.403 336.6 147.403C337.4 147.403 337.9 146.903 337.9 146.003V143.803H338.6V143.703Z" fill="#263238"/>
<path d="M342.3 143.703V144.403C342.2 144.403 342.2 144.403 342.1 144.403C341.3 144.403 340.8 144.903 340.8 145.803V147.903H340V143.703H340.7V144.403C341 143.903 341.6 143.703 342.3 143.703Z" fill="#263238"/>
<path d="M345.1 145.103C345.1 143.503 346.4 142.203 348.1 142.203C349.8 142.203 351.1 143.403 351.1 145.103C351.1 146.703 349.8 148.003 348.1 148.003C346.4 148.003 345.1 146.803 345.1 145.103ZM350.3 145.103C350.3 143.903 349.4 142.903 348.1 142.903C346.8 142.903 345.9 143.803 345.9 145.103C345.9 146.303 346.8 147.303 348.1 147.303C349.3 147.303 350.3 146.403 350.3 145.103Z" fill="#263238"/>
<path d="M353.3 142.997H351.4V142.297H356V142.997H354.1V147.897H353.3V142.997Z" fill="#263238"/>
<path d="M361.4 144.299C361.4 145.499 360.5 146.299 359.1 146.299H357.7V147.999H356.9V142.399H359.1C360.5 142.299 361.4 143.099 361.4 144.299ZM360.6 144.299C360.6 143.499 360.1 142.999 359 142.999H357.6V145.499H359C360.1 145.599 360.6 145.099 360.6 144.299Z" fill="#263238"/>
<path d="M364.4 145.103C364.4 143.403 365.7 142.203 367.4 142.203C368.3 142.203 369 142.503 369.5 143.103L369 143.603C368.6 143.103 368 142.903 367.4 142.903C366.1 142.903 365.2 143.803 365.2 145.103C365.2 146.303 366.1 147.303 367.4 147.303C368 147.303 368.5 147.103 369 146.603L369.5 147.103C369 147.703 368.2 148.003 367.4 148.003C365.6 148.003 364.4 146.803 364.4 145.103Z" fill="#263238"/>
<path d="M369.9 145.802C369.9 144.502 370.8 143.602 372.1 143.602C373.4 143.602 374.3 144.502 374.3 145.802C374.3 147.102 373.4 148.002 372.1 148.002C370.9 148.002 369.9 147.102 369.9 145.802ZM373.6 145.802C373.6 144.902 373 144.302 372.2 144.302C371.4 144.302 370.8 144.902 370.8 145.802C370.8 146.702 371.4 147.302 372.2 147.302C373 147.302 373.6 146.702 373.6 145.802Z" fill="#263238"/>
<path d="M379.4 142V147.9H378.7V147.2C378.4 147.7 377.8 147.9 377.2 147.9C376 147.9 375.1 147 375.1 145.7C375.1 144.4 376 143.5 377.2 143.5C377.8 143.5 378.3 143.7 378.7 144.2V142H379.4ZM378.6 145.8C378.6 144.9 378 144.3 377.2 144.3C376.4 144.3 375.8 144.9 375.8 145.8C375.8 146.7 376.4 147.3 377.2 147.3C378 147.3 378.6 146.7 378.6 145.8Z" fill="#263238"/>
<path d="M384.7 146.102H381.3C381.4 146.802 382 147.302 382.8 147.302C383.3 147.302 383.7 147.102 384 146.802L384.4 147.302C384 147.702 383.4 148.002 382.7 148.002C381.3 148.002 380.4 147.102 380.4 145.802C380.4 144.502 381.3 143.602 382.5 143.602C383.7 143.602 384.6 144.502 384.6 145.802C384.7 145.902 384.7 146.002 384.7 146.102ZM381.2 145.502H383.9C383.8 144.802 383.3 144.302 382.5 144.302C381.9 144.302 381.3 144.802 381.2 145.502Z" fill="#263238"/>
</g>
<g opacity="0.5">
<path d="M343 156.702C343 159.802 341.2 161.502 338.6 161.502C337.7 161.502 336.9 161.302 336.3 161.002L336.8 160.002C337.3 160.302 337.9 160.402 338.6 160.402C340.5 160.402 341.7 159.202 341.7 156.902V156.602C341.2 157.402 340.2 157.802 339 157.802C337.2 157.802 335.9 156.702 335.9 155.002C335.9 153.202 337.3 152.102 339.2 152.102C341.6 152.102 343 153.802 343 156.702ZM341.4 154.902C341.4 154.002 340.6 153.102 339.2 153.102C338 153.102 337.2 153.802 337.2 154.902C337.2 156.002 338 156.702 339.3 156.702C340.5 156.702 341.4 156.002 341.4 154.902Z" fill="#263238"/>
<path d="M344.3 156.802C344.3 153.802 345.9 152.102 348.1 152.102C350.2 152.102 351.9 153.802 351.9 156.802C351.9 159.802 350.3 161.502 348.1 161.502C345.9 161.502 344.3 159.802 344.3 156.802ZM350.5 156.802C350.5 154.402 349.5 153.302 348.1 153.302C346.7 153.302 345.7 154.502 345.7 156.802C345.7 159.202 346.7 160.302 348.1 160.302C349.5 160.402 350.5 159.202 350.5 156.802Z" fill="#263238"/>
<path d="M359.5 160.302V161.402H352.9V160.502L356.7 156.902C357.7 156.002 357.9 155.402 357.9 154.802C357.9 153.902 357.2 153.302 355.9 153.302C354.9 153.302 354.1 153.602 353.5 154.302L352.6 153.502C353.3 152.602 354.5 152.102 356 152.102C357.9 152.102 359.2 153.102 359.2 154.702C359.2 155.602 358.9 156.402 357.7 157.602L354.9 160.302H359.5Z" fill="#263238"/>
<path d="M363.4 152.203V161.403H362.1V153.303H360V152.203H363.4Z" fill="#263238"/>
<path d="M365.4 156.802C365.4 153.802 367 152.102 369.2 152.102C371.3 152.102 373 153.802 373 156.802C373 159.802 371.4 161.502 369.2 161.502C367.1 161.502 365.4 159.802 365.4 156.802ZM371.6 156.802C371.6 154.402 370.6 153.302 369.2 153.302C367.8 153.302 366.8 154.502 366.8 156.802C366.8 159.202 367.8 160.302 369.2 160.302C370.6 160.402 371.6 159.202 371.6 156.802Z" fill="#263238"/>
</g>
<path d="M346.3 214.102L347.3 214.802L348.4 215.502C349.2 216.002 350 216.402 350.7 216.902C352.3 217.802 353.9 218.702 355.6 219.402C358.9 220.902 362.3 222.102 365.8 222.902H366C366.1 222.902 366.1 222.902 366.1 222.902C366 222.902 366 222.902 365.9 222.902C365.7 222.902 365.2 223.002 364.7 223.302C364.2 223.602 363.8 224.102 363.7 224.402C363.6 224.702 363.6 224.902 363.6 224.902C363.6 225.002 363.7 224.702 363.7 224.402C363.7 224.102 363.7 223.702 363.6 223.302C363.3 221.702 362.8 219.902 362.3 218.102C361.2 214.502 359.8 210.802 358.5 207.202L362.4 205.102C364.7 208.402 366.8 211.902 368.6 215.602C369.5 217.502 370.3 219.402 371 221.602C371.2 222.202 371.3 222.802 371.4 223.402C371.5 224.102 371.6 224.802 371.5 225.802C371.4 226.302 371.3 226.902 371 227.702C370.7 228.402 370 229.302 369 229.902C368 230.502 367.1 230.602 366.4 230.702C366 230.702 365.7 230.702 365.4 230.702H365.1H364.9C360.6 230.102 356.5 229.002 352.6 227.302C350.7 226.502 348.7 225.602 346.9 224.602C346 224.102 345.1 223.502 344.2 223.002C343.8 222.702 343.3 222.402 342.9 222.102C342.4 221.802 342 221.502 341.5 221.102L346.3 214.102Z" fill="#DC897C"/>
<path d="M345.2 213C351 213.7 354.8 216.9 354.8 216.9L350.8 229.3C350.8 229.2 331.4 211.4 345.2 213Z" fill="#009640"/>
<path opacity="0.6" d="M345.2 223.398C348 226.598 350.8 229.198 350.8 229.198L352.5 224.098L354.9 216.798C354.9 216.798 351 213.498 345.3 212.898C336.7 211.998 340.8 218.398 345.2 223.398Z" fill="white"/>
<path opacity="0.2" d="M345.2 223.397C348 226.597 350.8 229.197 350.8 229.197L352.5 224.097C349 221.397 345.2 221.597 345.2 221.597C345.1 222.197 345.1 222.797 345.2 223.397Z" fill="black"/>
<path d="M302 194.695C302 194.695 292.7 225.595 312.3 229.795C331.9 233.895 333.9 219.695 333.9 219.695C333.9 219.695 317.9 195.295 302 194.695Z" fill="#263238"/>
<path d="M297.4 204.697C297.4 204.697 298.4 202.897 300.1 202.797" stroke="#263238" stroke-width="0.482" stroke-miterlimit="10" stroke-linecap="round" stroke-linejoin="round"/>
<path d="M300.2 208.797C300.2 208.797 300 210.897 299.4 212.297C299.4 212.297 300.3 212.997 301.4 212.297L300.2 208.797Z" fill="#DE5753"/>
<path d="M298.3 207.393C298.5 207.893 299 208.293 299.3 208.093C299.7 207.993 299.8 207.393 299.6 206.893C299.4 206.393 298.9 205.993 298.6 206.193C298.2 206.293 298.1 206.893 298.3 207.393Z" fill="#263238"/>
<path d="M298.8 206.094H297.4C297.4 206.094 298.4 206.894 298.8 206.094Z" fill="#263238"/>
<path d="M318.2 212.594C318.2 212.694 318.1 212.794 318.1 212.794C318 212.994 317.9 213.094 317.8 213.294C317.2 214.294 316.5 215.294 315.5 216.094C312.5 218.494 309.9 219.194 307.6 218.494C307.5 218.494 307.4 218.394 307.3 218.394C303.9 216.994 301.3 212.994 299.2 207.694C298.2 205.294 297.6 202.994 297.5 201.094V200.994C297.5 200.894 297.5 200.794 297.5 200.694C297.4 197.994 298.4 195.794 300.7 193.894C301.5 193.294 302.5 192.694 303.6 192.094C313.5 187.294 323.2 203.194 318.2 212.594Z" fill="#E4897B"/>
<path opacity="0.2" d="M317.8 213.398C317.2 214.398 316.5 215.398 315.5 216.198C312.5 218.598 309.9 219.298 307.6 218.598C309.4 218.098 311.6 217.098 313.3 215.098C314.4 213.798 316 213.398 317.8 213.398Z" fill="black"/>
<path d="M297.4 201.097C297.4 201.097 300.2 208.397 308.3 208.297C308.3 208.297 314.7 214.297 319 212.397C324.9 209.797 326.1 199.197 320.1 191.697C312.4 181.997 295.5 188.997 297.4 201.097Z" fill="#263238"/>
<path d="M304 207.798C303.5 206.698 303.5 204.398 305.3 203.898C307.2 203.298 310.3 207.198 306.4 210.298C305.8 210.698 305.1 210.098 304 207.798Z" fill="#E4897B"/>
<path d="M306.2 187.697C306.2 187.697 298.6 189.197 296.2 193.697C293.3 198.897 293.2 202.997 300.8 205.597C300.8 205.597 310.4 196.597 314.5 195.597C318.6 194.597 321.9 194.397 321.9 194.397C319.1 186.497 309.2 184.397 306.2 187.697Z" fill="#263238"/>
<path d="M313.5 216.3C313.5 216.3 318.7 219.9 320.1 225.8L336.3 216.3C336.3 216.3 323.6 213.4 321.4 208.5C321.4 208.6 312.9 209.6 313.5 216.3Z" fill="#E4897B"/>
<path d="M329.6 255.299C329.6 255.299 308.6 234.699 306.3 228.199C306.3 228.199 315.1 214.399 332.8 213.899C350.5 213.299 362.5 246.899 362.5 246.899L329.6 255.299Z" fill="#009640"/>
<path opacity="0.6" d="M362.5 246.801L329.6 255.201C329.6 255.201 325 250.701 319.9 245.201C318.3 243.501 316.7 241.701 315.1 239.901C310.9 235.201 307.2 230.501 306.4 228.001C306.4 228.001 315.2 214.201 332.9 213.701C350.5 213.201 362.5 246.801 362.5 246.801Z" fill="white"/>
<path d="M310 204.699C310 204.699 313.1 214.899 323.8 218.299C334.6 221.699 331.9 232.699 342.3 231.399C347.9 230.699 352.6 219.399 335.6 209.399C325.7 203.599 329.5 184.499 308.4 186.299C308.4 186.299 312.8 199.399 310 204.699Z" fill="#263238"/>
<path d="M320.5 410.7L315.5 409.6C316.3 384.6 319.9 354.4 323.1 331.7C323.6 328.1 324.1 324.8 324.6 321.6C324.8 320.1 325 318.7 325.3 317.3C326.3 310.5 327.2 305.1 327.8 301.8C328.2 299.4 328.4 298 328.4 298L346.4 302.4L345.1 306.9L340.8 321.9L340.3 323.6L337.5 333.5L332.7 350.3C332.9 375.8 320.5 410.7 320.5 410.7Z" fill="#E4897B"/>
<path d="M363.3 406.5L358.2 406.2C354.3 379.3 352.7 345.7 352 322.3C351.9 318.7 351.8 315.3 351.7 312.2C351.7 312 351.7 311.9 351.7 311.7C351.6 305.6 351.5 300.8 351.5 297.7C351.5 295.3 351.5 294 351.5 294L370 295.2L369.2 302.9L368 314.2L367.8 316.4L367 324.1L364.9 344.8C369.5 370 363.3 406.5 363.3 406.5Z" fill="#E4897B"/>
<path d="M365.2 405.6C365.2 405 357.3 405.5 357.3 405.5C357.3 405.5 352.5 410.4 347.7 411.5C343 412.6 345.6 415.4 350.9 415.4C356.2 415.4 360.2 415.4 363.9 415.4C367.7 415.4 365.3 412.2 365.2 405.6Z" fill="#263238"/>
<path d="M352.5 407.198C352.3 407.098 352.2 406.798 352.3 406.398C352.4 406.198 352.5 405.998 352.7 405.898C353.1 405.698 353.8 405.598 354.5 405.698C353.9 405.398 353.3 404.898 353.3 404.498C353.3 404.198 353.5 403.998 353.8 403.798C354.1 403.598 354.5 403.598 354.8 403.798C355.9 404.198 356.5 406.098 356.6 406.198C356.6 406.298 356.6 406.298 356.6 406.398C356.6 406.398 356.6 406.398 356.5 406.498C356.1 406.698 354.3 407.498 353.2 407.498C352.9 407.398 352.6 407.398 352.5 407.198ZM352.9 406.198C352.8 406.298 352.7 406.398 352.7 406.498C352.6 406.798 352.7 406.898 352.8 406.898C353.2 407.198 354.6 406.798 355.8 406.298C354.8 406.098 353.5 405.898 352.9 406.198ZM353.9 404.198C353.8 404.298 353.6 404.398 353.6 404.498C353.6 404.898 354.7 405.498 355.9 405.898C355.6 405.298 355.1 404.398 354.5 404.198C354.4 404.198 354.3 404.098 354.2 404.098C354.2 404.098 354 404.198 353.9 404.198Z" fill="#263238"/>
<path d="M323 405.6C323 405 315.1 405.5 315.1 405.5C315.1 405.5 310.3 410.4 305.5 411.5C300.8 412.6 303.4 415.4 308.7 415.4C314 415.4 318 415.4 321.7 415.4C325.5 415.4 323.2 412.2 323 405.6Z" fill="#263238"/>
<path d="M310.3 407.198C310.1 407.098 310 406.798 310.1 406.398C310.2 406.198 310.3 405.998 310.5 405.898C310.9 405.698 311.6 405.598 312.3 405.698C311.7 405.398 311.1 404.898 311.1 404.498C311.1 404.198 311.3 403.998 311.6 403.798C311.9 403.598 312.3 403.598 312.6 403.798C313.7 404.198 314.3 406.098 314.4 406.198C314.4 406.298 314.4 406.298 314.4 406.398C314.4 406.398 314.4 406.398 314.3 406.498C313.9 406.698 312.1 407.498 311 407.498C310.7 407.398 310.4 407.398 310.3 407.198ZM310.7 406.198C310.6 406.298 310.5 406.398 310.5 406.498C310.4 406.798 310.5 406.898 310.6 406.898C311 407.198 312.4 406.798 313.6 406.298C312.6 406.098 311.3 405.898 310.7 406.198ZM311.7 404.198C311.6 404.298 311.4 404.398 311.4 404.498C311.4 404.898 312.5 405.498 313.7 405.898C313.4 405.298 312.9 404.398 312.3 404.198C312.2 404.198 312.1 404.098 312 404.098C312 404.098 311.9 404.198 311.7 404.198Z" fill="#263238"/>
<path d="M325.4 305.497L329.7 275.497V255.197C340.9 246.797 362.6 246.797 362.6 246.797C362.6 246.797 379.2 269.897 371.2 307.797L350.3 310.897L349 303.797L346.4 310.897L325.4 305.497Z" fill="#263238"/>
<path opacity="0.2" d="M325.4 305.497L329.7 275.497V255.197C340.9 246.797 362.6 246.797 362.6 246.797C362.6 246.797 379.2 269.897 371.2 307.797L350.3 310.897L349 303.797L346.4 310.897L325.4 305.497Z" fill="white"/>
<path opacity="0.2" d="M348.8 303.802L352.8 291.302C352.8 291.302 357 290.002 362.4 281.602C362.5 281.702 361.6 295.902 348.8 303.802Z" fill="black"/>
<path opacity="0.2" d="M339.9 261.002L349.3 260.102C349.3 260.102 351.6 264.602 350.8 271.202L344.8 274.802L340.5 271.702C340.5 271.802 340.3 263.802 339.9 261.002Z" fill="black"/>
<path opacity="0.2" d="M362.5 258.697C362.5 258.697 364.2 262.697 365.3 268.297L368.6 269.697L370.4 267.497C370.4 267.497 369.2 260.997 367.1 257.797L362.5 258.697Z" fill="black"/>
<path d="M325 303.797L347.1 310.297L345.7 313.297L324.7 306.797L325 303.797Z" fill="#263238"/>
<path d="M349.3 309.898L349.7 312.598L371.4 309.898L371.7 306.398L349.3 309.898Z" fill="#263238"/>
<path d="M353.9 251.001C360.3 250.001 364.6 250.001 364.6 250.001L363.3 247.801C359.7 247.701 356.1 248.001 352.8 248.401L353.9 251.001Z" fill="#263238"/>
<path d="M333.9 253.703C331 254.903 329.4 255.903 329.4 255.903V258.603C331 257.803 332.6 257.003 334.3 256.403L333.9 253.703Z" fill="#263238"/>
<path d="M335.3 256C341.5 253.5 347.5 252.1 352.5 251.2L351.5 248.5C344.7 249.6 338.8 251.6 334.9 253.3L335.3 256Z" fill="#263238"/>
<path d="M275.2 263.8L269.5 261.5L268.5 266.9C268.5 266.9 273.6 270 275.8 266.3L275.2 263.8Z" fill="#E4897B"/>
<path d="M266.7 261.9L264.9 266L268.6 266.9L269.6 261.5L266.7 261.9Z" fill="#E4897B"/>
<path d="M362.4 206.194L361.7 200.094L356.5 201.794C356.5 201.794 356.2 207.794 360.4 207.894L362.4 206.194Z" fill="#E4897B"/>
<path d="M360.1 197.797L355.6 198.097L356.6 201.797L361.7 200.097L360.1 197.797Z" fill="#E4897B"/>
<path opacity="0.2" d="M319.9 245.3C318.3 243.6 316.7 241.8 315.1 240C314.5 236.3 314.1 233 314.1 233C314.1 233 320.3 237.2 319.9 245.3Z" fill="black"/>
<path d="M314.7 231.295C314.1 233.795 313.4 236.095 312.7 238.395C312 240.695 311.1 242.995 310.2 245.295C309.3 247.595 308.4 249.795 307.3 252.095C306.8 253.195 306.2 254.295 305.7 255.395C305.4 255.995 305.1 256.495 304.8 256.995L304.4 257.795L304.2 258.195C304.1 258.395 303.9 258.695 303.8 258.895C302.6 260.595 301.3 261.595 300 262.395C298.7 263.195 297.5 263.695 296.2 264.195C293.7 265.095 291.3 265.695 288.8 266.195C283.9 267.095 279.1 267.595 274.2 267.595L273.8 263.195C276 262.695 278.3 262.195 280.6 261.595C282.8 261.095 285.1 260.395 287.2 259.695C289.3 258.995 291.4 258.195 293.3 257.295C294.2 256.795 295.1 256.295 295.8 255.795C296.5 255.295 297 254.695 297.1 254.495V254.395L297.3 253.995L297.7 253.195C297.9 252.695 298.2 252.195 298.4 251.695C298.8 250.695 299.3 249.595 299.7 248.595C300.5 246.495 301.3 244.295 302.1 242.195C302.9 239.995 303.6 237.795 304.2 235.695C304.9 233.495 305.5 231.295 306.1 229.195L314.7 231.295Z" fill="#DC897C"/>
<path d="M309.8 223.7C304.9 226.9 302.3 235.2 301.5 239.3L311.7 246.8L316.8 241.8C318.8 230.3 311.6 222.5 309.8 223.7Z" fill="#009640"/>
<path opacity="0.6" d="M309.8 223.7C304.9 226.9 302.3 235.2 301.5 239.3L311.7 246.8L316.8 241.8C318.8 230.3 311.6 222.5 309.8 223.7Z" fill="white"/>
<path d="M359.4 208.202L352.1 209.002C351.7 209.002 351.3 208.702 351.3 208.202L350.9 192.802C350.9 192.302 351.2 191.902 351.6 191.902L358.9 191.102C359.3 191.102 359.7 191.402 359.7 191.902L360.1 207.302C360.1 207.702 359.8 208.102 359.4 208.202Z" fill="#263238"/>
<path opacity="0.6" d="M359.4 208.202L352.1 209.002C351.7 209.002 351.3 208.702 351.3 208.202L350.9 192.802C350.9 192.302 351.2 191.902 351.6 191.902L358.9 191.102C359.3 191.102 359.7 191.402 359.7 191.902L360.1 207.302C360.1 207.702 359.8 208.102 359.4 208.202Z" fill="white"/>
<path d="M358.7 208.202L351.4 209.002C351 209.002 350.6 208.702 350.6 208.202L350.2 192.802C350.2 192.302 350.5 191.902 350.9 191.902L358.2 191.102C358.6 191.102 359 191.402 359 191.902L359.4 207.302C359.5 207.802 359.2 208.202 358.7 208.202Z" fill="#263238"/>
<path opacity="0.7" d="M358.7 208.202L351.4 209.002C351 209.002 350.6 208.702 350.6 208.202L350.2 192.802C350.2 192.302 350.5 191.902 350.9 191.902L358.2 191.102C358.6 191.102 359 191.402 359 191.902L359.4 207.302C359.5 207.802 359.2 208.202 358.7 208.202Z" fill="white"/>
<path d="M358.3 191.398L356.4 191.598L356.2 192.198L353.3 192.498L353 191.998L351.1 192.198C350.8 192.198 350.6 192.498 350.6 192.798L351 208.198C351 208.498 351.2 208.698 351.5 208.698L358.8 207.898C359.1 207.898 359.3 207.598 359.3 207.298L358.9 191.898C358.8 191.598 358.5 191.398 358.3 191.398Z" fill="#009640"/>
<path opacity="0.8" d="M357.3 196.998L352 197.598C351.7 197.598 351.5 197.398 351.5 197.098V195.598C351.5 195.298 351.7 194.998 352 194.998L357.3 194.398C357.6 194.398 357.8 194.598 357.8 194.898V196.398C357.8 196.698 357.6 196.998 357.3 196.998Z" fill="white"/>
</svg>
