<svg width="500" height="500" fill="none" xmlns="http://www.w3.org/2000/svg"><path d="M500 382.398H0v.2h500v-.2ZM449.9 398.5h-33.1v.2h33.1v-.2ZM331.2 401.203h-8.7v.2h8.7v-.2ZM415.8 389.203h-19.2v.2h19.2v-.2ZM95.7 390.898H52.5v.2h43.2v-.2ZM110.9 390.898h-6.3v.2h6.3v-.2ZM225.2 395.102h-93.7v.2h93.7v-.2ZM237 337.8H43.9c-3.1 0-5.7-2.6-5.7-5.7V60.7c0-3.1 2.6-5.7 5.7-5.7H237c3.1 0 5.7 2.6 5.7 5.7v271.4c0 3.1-2.5 5.7-5.7 5.7ZM43.9 55.2c-3 0-5.5 2.4-5.5 5.5v271.4c0 3 2.4 5.5 5.5 5.5H237c3 0 5.5-2.4 5.5-5.5V60.7c0-3-2.4-5.5-5.5-5.5H43.9ZM453.3 337.8H260.2c-3.1 0-5.7-2.6-5.7-5.7V60.7c0-3.1 2.6-5.7 5.7-5.7h193.1c3.1 0 5.7 2.6 5.7 5.7v271.4c0 3.1-2.5 5.7-5.7 5.7ZM260.2 55.2c-3 0-5.5 2.4-5.5 5.5v271.4c0 3 2.4 5.5 5.5 5.5h193.1c3 0 5.5-2.4 5.5-5.5V60.7c0-3-2.4-5.5-5.5-5.5H260.2Z" fill="#EBEBEB"/><path d="M222.6 183.703H66.1v198.2h156.5v-198.2Z" fill="#F0F0F0"/><path d="M217.2 191H71.7v42.4h145.5V191Z" fill="#E0E0E0"/><path d="M80 197.797h-8.3v35.5H80v-35.5ZM119.9 197.797h-8.3v35.5h8.3v-35.5ZM165.324 196.958l-8.179 1.409 6.027 34.985 8.18-1.409-6.028-34.985ZM90.2 202.5h-8.3v30.8h8.3v-30.8ZM109.2 202.5h-8.3v30.8h8.3v-30.8ZM157.2 202.5h-8.3v30.8h8.3v-30.8ZM130.762 201.473l-8.103 1.8 6.681 30.067 8.102-1.8-6.68-30.067ZM97.3 196.102h-4.1v37.3h4.1v-37.3ZM146.4 196.102h-4.1v37.3h4.1v-37.3Z" fill="#EBEBEB"/><path d="M71.627 282.398h145.5v-42.4h-145.5v42.4Z" fill="#E0E0E0"/><path d="M208.833 282.461h8.3v-35.5h-8.3v35.5ZM168.917 282.461h8.3v-35.5h-8.3v35.5ZM117.474 281.005l8.18 1.409 6.028-34.985-8.18-1.41-6.028 34.986ZM198.654 282.445h8.3v-30.8h-8.3v30.8ZM179.566 282.445h8.3v-30.8h-8.3v30.8ZM131.68 282.445h8.3v-30.8h-8.3v30.8ZM151.378 280.622l8.102 1.8 6.681-30.067-8.103-1.8-6.68 30.067ZM191.531 282.398h4.1v-37.3h-4.1v37.3ZM142.427 282.398h4.1v-37.3h-4.1v37.3ZM80 246.906h-8.3v35.5H80v-35.5ZM90.2 251.602h-8.3v30.8h8.3v-30.8ZM109.2 251.602h-8.3v30.8h8.3v-30.8ZM97.3 245.203h-4.1v37.3h4.1v-37.3Z" fill="#EBEBEB"/><path d="M217.2 289.203H71.7v42.4h145.5v-42.4Z" fill="#E0E0E0"/><path d="M163.5 296.008h-8.3v35.5h8.3v-35.5ZM208.822 295.177l-8.179 1.409 6.028 34.985 8.179-1.409-6.028-34.985ZM133.8 300.703h-8.3v30.8h8.3v-30.8ZM152.7 300.703h-8.3v30.8h8.3v-30.8ZM200.7 300.703h-8.3v30.8h8.3v-30.8ZM174.36 299.668l-8.102 1.801 6.68 30.067 8.103-1.801-6.681-30.067ZM140.8 294.305h-4.1v37.3h4.1v-37.3ZM190 294.305h-4.1v37.3h4.1v-37.3ZM113.72 295.177l-8.18 1.409 6.028 34.985 8.18-1.409-6.028-34.985ZM105.6 300.703h-8.3v30.8h8.3v-30.8ZM79.26 299.668l-8.103 1.801 6.68 30.067 8.103-1.801-6.68-30.067ZM94.9 294.305h-4.1v37.3h4.1v-37.3Z" fill="#EBEBEB"/><path d="M305.3 263.602h88.2c9.6 0 17.3 7.8 17.3 17.3v68.9H288v-68.8c0-9.6 7.7-17.4 17.3-17.4Z" fill="#E6E6E6"/><path d="M261.9 314.703h15.8c5.7 0 10.3 4.6 10.3 10.3v57h-36.4v-57c0-5.7 4.6-10.3 10.3-10.3Z" fill="#E0E0E0"/><path d="M261.9 314.703h.3c5.7 0 10.3 4.6 10.3 10.3v57h-20.9v-57c0-5.7 4.6-10.3 10.3-10.3Z" fill="#EBEBEB"/><path d="M398 355.805H276.9v26.2H398v-26.2Z" fill="#E6E6E6"/><path d="M276.7 331.898h116.8c5.8 0 10.5 4.7 10.5 10.5v6.5c0 5.8-4.7 10.5-10.5 10.5H276.7c-5.8 0-10.5-4.7-10.5-10.5v-6.5c.1-5.9 4.8-10.5 10.5-10.5Z" fill="#F5F5F5"/><path d="M378.8 331.898h14.5c5.8 0 10.5 4.7 10.5 10.5v6.5c0 5.8-4.7 10.5-10.5 10.5h-14.5c-5.8 0-10.5-4.7-10.5-10.5v-6.5c.1-5.9 4.7-10.5 10.5-10.5Z" fill="#E0E0E0"/><path d="M394.9 314.703h15.8c5.7 0 10.3 4.6 10.3 10.3v57h-36.4v-57c0-5.7 4.6-10.3 10.3-10.3Z" fill="#E0E0E0"/><path d="M394.9 314.703h.3c5.7 0 10.3 4.6 10.3 10.3v57h-20.9v-57c0-5.7 4.6-10.3 10.3-10.3Z" fill="#F0F0F0"/><path d="M150.285 159.693c12.866-2.088 21.603-14.21 19.515-27.076-2.088-12.866-14.211-21.603-27.076-19.515-12.866 2.088-21.603 14.211-19.515 27.076 2.088 12.866 14.21 21.603 27.076 19.515Z" fill="#E0E0E0"/><path d="M149.708 156.139c10.904-1.769 18.308-12.042 16.538-22.946-1.769-10.903-12.042-18.307-22.946-16.538-10.903 1.77-18.307 12.043-16.538 22.946 1.77 10.904 12.043 18.308 22.946 16.538Z" fill="#F0F0F0"/><path d="M145.5 150.102v-14l-9.2 5.3" fill="#F0F0F0"/><path d="M145.5 150.102v-14l-9.2 5.3" stroke="#E0E0E0" stroke-width="2" stroke-miterlimit="10" stroke-linecap="round" stroke-linejoin="round"/><path d="M428.7 106.703H277.9v133.8h150.8v-133.8Z" fill="#E6E6E6"/><path d="M424.6 110.406h-143v126.5h143v-126.5Z" fill="#F0F0F0"/><path d="m315.2 110.406-33.6 126.2v-59.3l17.8-66.9h15.8ZM327.1 110.406l-33.9 126.5h-5.4l33.9-126.5h5.4ZM424.6 190.203v20.2l-6.8 26.5h-5.4l12.2-46.7Z" fill="#fff"/><path d="M331.5 108.102h-2.4v131.6h2.4v-131.6ZM378.2 108.102h-2.4v131.6h2.4v-131.6Z" fill="#E6E6E6"/><path d="M250 427.498c107.088 0 193.9-5.059 193.9-11.3 0-6.24-86.812-11.3-193.9-11.3-107.088 0-193.9 5.06-193.9 11.3 0 6.241 86.812 11.3 193.9 11.3Z" fill="#F5F5F5"/><path d="M401.9 391.198s4.8-10.4-.7-20.6c-5.4-10.2-7-12.6-3.5-14.7 3.5-2.1 5 8.2 5 8.2s2.9-7.1.5-14.5-3.9-19.4-.6-20.7c3.3-1.3.6 15 3.5 20.6 0 0 2.4-6.2 2.8-12.1.4-5.9-.2-15.4 2.4-17.8 2.6-2.4 4.3-.7 1.7 12.4-2.6 13.1-2.5 23.8-2.5 23.8s5.6-17.2 9.4-17.7c3.8-.5 3.8 5.1.5 9.9-3.2 4.8-9.5 13.5-10.5 17.9 0 0 6.2-12.9 11.8-9 5.6 4-4.8 11.8-9.5 14.6-4.6 2.8-7.9 20.5-7.9 20.5l-2.4-.8Z" fill="#009640"/><path opacity=".2" d="M401.9 391.198s4.8-10.4-.7-20.6c-5.4-10.2-7-12.6-3.5-14.7 3.5-2.1 5 8.2 5 8.2s2.9-7.1.5-14.5-3.9-19.4-.6-20.7c3.3-1.3.6 15 3.5 20.6 0 0 2.4-6.2 2.8-12.1.4-5.9-.2-15.4 2.4-17.8 2.6-2.4 4.3-.7 1.7 12.4-2.6 13.1-2.5 23.8-2.5 23.8s5.6-17.2 9.4-17.7c3.8-.5 3.8 5.1.5 9.9-3.2 4.8-9.5 13.5-10.5 17.9 0 0 6.2-12.9 11.8-9 5.6 4-4.8 11.8-9.5 14.6-4.6 2.8-7.9 20.5-7.9 20.5l-2.4-.8Z" fill="#000"/><path d="M405.6 395.499s-4.6-10.4.9-20.6c5.5-10.1 7.2-12.5 3.7-14.7-3.4-2.1-5.1 8.1-5.1 8.1s-2.8-7.1-.3-14.5 4.2-19.4.9-20.7c-3.3-1.3-.8 15-3.7 20.5 0 0-2.3-6.2-2.6-12.2-.3-5.9.4-15.4-2.2-17.9-2.6-2.5-4.3-.8-1.9 12.3 2.4 13.1 2.2 23.8 2.2 23.8s-5.4-17.3-9.2-17.8c-3.8-.6-3.8 5-.7 9.9 3.2 4.9 9.3 13.6 10.3 18.1 0 0-6-13-11.6-9.1-5.6 3.9 4.7 11.8 9.3 14.7 4.6 2.9 7.6 20.6 7.6 20.6l2.4-.5Z" fill="#009640"/><path d="M384.3 388h38.2l-3.1 27.4h-32l-3.1-27.4ZM242.6 411v3.6c0 .4-.4.8-.8.8H140.4c-3.8 0-6.3-3.8-4.9-7.3l32.1-79.6 51.9.4-1.8 10.3-11.5 66.8c-.4 2.2 1.3 4.1 3.5 4.1h32c.5.1.9.4.9.9Z" fill="#263238"/><path opacity=".5" d="M242.6 411v3.6c0 .4-.4.8-.8.8H140.4c-3.8 0-6.3-3.8-4.9-7.3l19.9-49.3 12.2-30.3 51.9.4-1.8 10.3-5 29.1-6.5 37.8c-.4 2.2 1.3 4.1 3.5 4.1h32c.5 0 .9.3.9.8Z" fill="#fff"/><path opacity=".2" d="M209.8 410.203h-66c-1.7 0-2.8-1.7-2.1-3.2l28.2-67.8h47.9l-11.5 66.8c-.4 2.2 1.3 4.2 3.5 4.2Z" fill="#000"/><path opacity=".1" d="m219.5 328.9-1.7 10.3-5 29.1-57.4-9.5 12.2-30.3 51.9.4Z" fill="#000"/><path d="M320.5 180.5H80.1c-3.4 0-6.2 2.8-6.2 6.2v162.8c0 3.4 2.8 6.2 6.2 6.2h240.5c3.4 0 6.2-2.8 6.2-6.2V186.7c-.1-3.4-2.9-6.2-6.3-6.2Z" fill="#263238"/><path opacity=".6" d="M320.5 180.5H80.1c-3.4 0-6.2 2.8-6.2 6.2v162.8c0 3.4 2.8 6.2 6.2 6.2h240.5c3.4 0 6.2-2.8 6.2-6.2V186.7c-.1-3.4-2.9-6.2-6.3-6.2Z" fill="#fff"/><path opacity=".2" d="M85.2 355.6h-5.1c-3.4 0-6.1-2.8-6.1-6.1V186.7c0-3.4 2.8-6.2 6.1-6.2h5.1c-3.4 0-6.1 2.8-6.1 6.2v162.8c-.1 3.3 2.7 6.1 6.1 6.1Z" fill="#000"/><path d="M321.2 185.797H84.6v157h236.6v-157Z" fill="#009640"/><path opacity=".4" d="M199.6 245.5c11.322 0 20.5-9.178 20.5-20.5s-9.178-20.5-20.5-20.5-20.5 9.178-20.5 20.5 9.178 20.5 20.5 20.5Z" fill="#fff"/><path d="M194.7 221.898v-1.9c0-1.9 1.5-3.4 3.4-3.4h3c1.9 0 3.4 1.5 3.4 3.4v1.9h2.2v-1.9c0-3.1-2.5-5.6-5.6-5.6h-3c-3.1 0-5.6 2.5-5.6 5.6v1.9h2.2ZM189.8 224.397v10.1c0 .6.5 1.1 1.1 1.1h17.5c.6 0 1.1-.5 1.1-1.1v-10.1c0-.6-.5-1.1-1.1-1.1h-17.5c-.6 0-1.1.5-1.1 1.1Zm10.4 5.7v2H199v-2c-.4-.2-.6-.6-.6-1 0-.7.6-1.2 1.2-1.2.7 0 1.2.6 1.2 1.2 0 .4-.2.8-.6 1ZM149.5 286.1h-19.4c-1.2 0-2.1-.9-2.1-2.1v-19.4c0-1.2.9-2.1 2.1-2.1h19.4c1.2 0 2.1.9 2.1 2.1V284c0 1.2-1 2.1-2.1 2.1ZM179.4 286.1H160c-1.2 0-2.1-.9-2.1-2.1v-19.4c0-1.2.9-2.1 2.1-2.1h19.4c1.2 0 2.1.9 2.1 2.1V284c0 1.2-.9 2.1-2.1 2.1ZM209.3 286.1h-19.4c-1.2 0-2.1-.9-2.1-2.1v-19.4c0-1.2.9-2.1 2.1-2.1h19.4c1.2 0 2.1.9 2.1 2.1V284c0 1.1-.9 2.1-2.1 2.1ZM239.2 285.998h-19.4c-1.2 0-2.1-.9-2.1-2.1v-19.4c0-1.2.9-2.1 2.1-2.1h19.4c1.2 0 2.1.9 2.1 2.1v19.4c0 1.2-.9 2.1-2.1 2.1ZM269.1 285.998h-19.4c-1.2 0-2.1-.9-2.1-2.1v-19.4c0-1.2.9-2.1 2.1-2.1h19.4c1.2 0 2.1.9 2.1 2.1v19.4c0 1.2-.9 2.1-2.1 2.1Z" fill="#fff"/><path d="M254.2 274.695c0-4.1 2.2-6.5 5.2-6.5s5.2 2.4 5.2 6.5-2.2 6.5-5.2 6.5-5.2-2.4-5.2-6.5Zm8.6 0c0-3.3-1.4-4.9-3.4-4.9s-3.4 1.6-3.4 4.9c0 3.3 1.4 4.9 3.4 4.9s3.4-1.7 3.4-4.9ZM144.5 274.495c0 4.3-2.5 6.7-6 6.7-1.2 0-2.3-.2-3.2-.7l.7-1.4c.7.4 1.5.6 2.5.6 2.6 0 4.2-1.6 4.2-4.8v-.5c-.7 1.1-2.1 1.7-3.7 1.7-2.5 0-4.3-1.5-4.3-3.9 0-2.5 2-4 4.5-4 3.4 0 5.3 2.2 5.3 6.3Zm-2.2-2.4c0-1.3-1.1-2.5-3-2.5-1.7 0-2.8 1-2.8 2.5s1.1 2.5 2.9 2.5c1.7 0 2.9-1.1 2.9-2.5ZM164.5 274.695c0-4.1 2.2-6.5 5.2-6.5s5.2 2.4 5.2 6.5-2.2 6.5-5.2 6.5-5.2-2.4-5.2-6.5Zm8.6 0c0-3.3-1.4-4.9-3.4-4.9s-3.4 1.6-3.4 4.9c0 3.3 1.4 4.9 3.4 4.9s3.4-1.7 3.4-4.9ZM204.2 279.497v1.6h-9.1v-1.2l5.2-5c1.3-1.3 1.6-2.1 1.6-2.9 0-1.3-.9-2.1-2.7-2.1-1.4 0-2.5.4-3.3 1.4l-1.2-1.1c1-1.2 2.7-1.9 4.7-1.9 2.7 0 4.4 1.4 4.4 3.5 0 1.2-.4 2.3-2.1 4l-3.9 3.7h6.4ZM231 268.297v12.7h-1.8v-11.1h-2.9v-1.6h4.7Z" fill="#263238"/><g opacity=".6" fill="#fff"><path d="M177.2 256.797v.4h-3.5v-4.9h3.4v.4h-2.8v1.7h2.5v.4h-2.5v1.8h2.9v.2ZM181.7 255.098v2.1h-.5v-2.1c0-.8-.4-1.2-1.1-1.2-.8 0-1.3.5-1.3 1.3v1.9h-.5v-3.7h.5v.7c.3-.4.8-.7 1.4-.7.9.1 1.5.6 1.5 1.7ZM185 256.997c-.2.2-.5.3-.8.3-.7 0-1.1-.4-1.1-1.1v-2.2h-.7v-.4h.7v-.8h.5v.8h1.1v.4h-1.1v2.2c0 .4.2.7.6.7.2 0 .4-.1.5-.2l.3.3ZM189 255.498h-3.1c.1.8.6 1.3 1.4 1.3.4 0 .8-.2 1.1-.5l.3.3c-.3.4-.8.6-1.4.6-1.1 0-1.9-.8-1.9-1.9 0-1.1.8-1.9 1.8-1.9s1.8.8 1.8 1.9v.2Zm-3.1-.3h2.6c-.1-.7-.6-1.2-1.3-1.2-.7 0-1.2.5-1.3 1.2ZM191.9 253.5v.5h-.1c-.8 0-1.2.5-1.2 1.4v1.9h-.6v-3.7h.5v.7c.2-.5.7-.8 1.4-.8ZM197.7 253.594l-1.8 4.1c-.3.7-.7 1-1.2 1-.3 0-.7-.1-.9-.3l.2-.4c.2.2.4.3.7.3.3 0 .6-.2.8-.6l.2-.4-1.6-3.7h.5l1.4 3.1 1.4-3.1h.3ZM198 255.4c0-1.1.8-1.9 1.9-1.9 1.1 0 1.9.8 1.9 1.9 0 1.1-.8 1.9-1.9 1.9-1.1 0-1.9-.8-1.9-1.9Zm3.2 0c0-.9-.6-1.4-1.4-1.4-.8 0-1.4.6-1.4 1.4 0 .9.6 1.4 1.4 1.4.8 0 1.4-.5 1.4-1.4ZM206.1 253.594v3.7h-.5v-.7c-.3.4-.7.7-1.3.7-.9 0-1.6-.5-1.6-1.6v-2.1h.5v2.1c0 .8.4 1.2 1.1 1.2.8 0 1.3-.5 1.3-1.3v-1.9h.5v-.1ZM209.3 253.5v.5h-.1c-.8 0-1.2.5-1.2 1.4v1.9h-.5v-3.7h.5v.7c.2-.5.6-.8 1.3-.8ZM211.8 254.797c0-1.4 1.1-2.5 2.6-2.5s2.6 1.1 2.6 2.5-1.1 2.5-2.6 2.5c-1.6 0-2.6-1.1-2.6-2.5Zm4.6 0c0-1.2-.9-2-2.1-2-1.2 0-2.1.9-2.1 2 0 1.2.9 2 2.1 2 1.2 0 2.1-.8 2.1-2ZM218.9 252.798h-1.7v-.4h4v.4h-1.7v4.5h-.5v-4.5h-.1ZM225.8 253.997c0 1-.8 1.7-2 1.7h-1.3v1.5h-.5v-4.9h1.8c1.3 0 2 .7 2 1.7Zm-.5 0c0-.8-.5-1.2-1.5-1.2h-1.3v2.5h1.3c1-.1 1.5-.5 1.5-1.3Z"/></g><g opacity=".6" fill="#fff"><path d="m180.1 298.902.2-.4c.4.3 1 .6 1.6.6.9 0 1.3-.4 1.3-.9 0-1.3-3-.5-3-2.3 0-.7.6-1.3 1.8-1.3.6 0 1.1.2 1.5.4l-.2.4c-.4-.3-.9-.4-1.3-.4-.9 0-1.3.4-1.3.9 0 1.3 3 .5 3 2.3 0 .7-.6 1.3-1.8 1.3-.7 0-1.4-.2-1.8-.6ZM188 297.803h-3.1c.1.8.6 1.3 1.4 1.3.4 0 .8-.2 1.1-.5l.3.3c-.3.4-.8.6-1.4.6-1.1 0-1.9-.8-1.9-1.9 0-1.1.8-1.9 1.8-1.9s1.8.8 1.8 1.9v.2Zm-3.1-.4h2.6c-.1-.7-.6-1.2-1.3-1.2-.7 0-1.2.5-1.3 1.2ZM192.4 297.403v2.1h-.5v-2.1c0-.8-.4-1.2-1.1-1.2-.8 0-1.3.5-1.3 1.3v1.9h-.5v-3.7h.5v.7c.3-.4.8-.7 1.4-.7.9.1 1.5.6 1.5 1.7ZM197.2 294.305v5.2h-.5v-.7c-.3.5-.8.8-1.4.8-1.1 0-1.8-.8-1.8-1.9 0-1.1.8-1.9 1.8-1.9.6 0 1.1.3 1.4.7v-2.2h.5Zm-.5 3.3c0-.9-.6-1.4-1.4-1.4-.8 0-1.4.6-1.4 1.4 0 .9.6 1.4 1.4 1.4.8.1 1.4-.5 1.4-1.4ZM203.2 297.203v2.3h-.5v-.6c-.2.4-.7.6-1.3.6-.8 0-1.3-.4-1.3-1.1 0-.6.4-1 1.4-1h1.2v-.2c0-.6-.4-1-1-1-.5 0-.9.2-1.2.4l-.2-.4c.4-.3.9-.5 1.5-.5.8.1 1.4.6 1.4 1.5Zm-.5 1.2v-.6h-1.2c-.7 0-.9.3-.9.7 0 .4.3.7.9.7.5-.1 1-.3 1.2-.8ZM207.9 295.802v3.2c0 1.3-.6 1.8-1.8 1.8-.7 0-1.3-.2-1.7-.6l.3-.4c.4.3.9.5 1.4.5.9 0 1.4-.4 1.4-1.3v-.5c-.3.5-.8.7-1.4.7-1.1 0-1.8-.7-1.8-1.8s.8-1.8 1.8-1.8c.6 0 1.1.3 1.5.7v-.7h.3v.2Zm-.5 1.8c0-.8-.6-1.3-1.4-1.3-.8 0-1.4.5-1.4 1.3s.6 1.4 1.4 1.4c.8 0 1.4-.6 1.4-1.4ZM212.1 297.203v2.3h-.5v-.6c-.2.4-.7.6-1.3.6-.8 0-1.3-.4-1.3-1.1 0-.6.4-1 1.4-1h1.2v-.2c0-.6-.4-1-1-1-.5 0-.9.2-1.2.4l-.2-.4c.4-.3.9-.5 1.5-.5.9.1 1.4.6 1.4 1.5Zm-.5 1.2v-.6h-1.2c-.7 0-.9.3-.9.7 0 .4.3.7.9.7.6-.1 1-.3 1.2-.8ZM213.3 294.603c0-.2.2-.4.4-.4s.4.2.4.3c0 .2-.2.4-.4.4-.2.1-.4-.1-.4-.3Zm.2 1.2h.5v3.7h-.5v-3.7ZM218.7 297.403v2.1h-.5v-2.1c0-.8-.4-1.2-1.1-1.2-.8 0-1.3.5-1.3 1.3v1.9h-.5v-3.7h.5v.7c.3-.4.8-.7 1.4-.7.9.1 1.5.6 1.5 1.7Z"/></g><path opacity=".4" d="M227.5 324.498h-55.7c-4.6 0-8.3-3.7-8.3-8.3 0-4.6 3.7-8.3 8.3-8.3h55.7c4.6 0 8.3 3.7 8.3 8.3 0 4.6-3.7 8.3-8.3 8.3Z" fill="#fff"/><path d="M177.9 315.798c0-1.7 1.3-2.9 3-2.9.9 0 1.6.3 2.1.9l-.5.5c-.4-.5-1-.7-1.6-.7-1.3 0-2.2.9-2.2 2.2 0 1.2.9 2.2 2.2 2.2.6 0 1.1-.2 1.6-.7l.5.5c-.5.6-1.3.9-2.1.9-1.8-.1-3-1.3-3-2.9ZM183.5 315.798c0-1.6 1.3-2.9 3-2.9s3 1.2 3 2.9c0 1.6-1.3 2.9-3 2.9-1.7-.1-3-1.3-3-2.9Zm5.2 0c0-1.2-.9-2.2-2.2-2.2-1.3 0-2.2.9-2.2 2.2 0 1.2.9 2.2 2.2 2.2 1.2-.1 2.2-1 2.2-2.2ZM195.5 313v5.6h-.7l-3.4-4.2v4.2h-.8V313h.7l3.4 4.2V313h.8ZM198.3 313.7h-1.9v-.7h4.6v.7h-1.9v4.9h-.8v-4.9ZM201.9 313h.8v5.6h-.8V313ZM209.2 313v5.6h-.7l-3.4-4.2v4.2h-.8V313h.7l3.4 4.2V313h.8ZM210.8 316.1V313h.8v3.2c0 1.2.6 1.8 1.6 1.8s1.6-.6 1.6-1.8V313h.8v3.2c0 1.6-.9 2.5-2.4 2.5-1.5-.1-2.4-.9-2.4-2.6ZM221.3 317.9v.7h-4.1V313h4v.7H218v1.7h2.8v.7H218v1.8h3.3Z" fill="#fff"/><path opacity=".1" d="M296.5 186.5c-32.7 32.8-116.7 105.7-211.9 100.3V186.5h211.9ZM321.1 246.803v96.7H178.7c5.5-19.5 16.4-46.3 37.6-65.4 38.1-34.4 82.3-34.3 104.8-31.3Z" fill="#fff"/><path d="m351.2 171.102 3.3 14.7 3.4-14.7h-6.7Z" fill="#009640"/><path opacity=".7" d="m351.2 171.102 3.3 14.7 3.4-14.7h-6.7Z" fill="#fff"/><path d="M391.7 174.3h-74.3c-4.7 0-8.6-3.8-8.6-8.6v-27.6c0-4.7 3.8-8.6 8.6-8.6h74.3c4.7 0 8.6 3.8 8.6 8.6v27.6c0 4.8-3.9 8.6-8.6 8.6Z" fill="#009640"/><path opacity=".7" d="M391.7 174.3h-74.3c-4.7 0-8.6-3.8-8.6-8.6v-27.6c0-4.7 3.8-8.6 8.6-8.6h74.3c4.7 0 8.6 3.8 8.6 8.6v27.6c0 4.8-3.9 8.6-8.6 8.6Z" fill="#fff"/><g opacity=".5" fill="#263238"><path d="M327.1 145.997v1.9h-.8v-2l-2.2-3.6h.9l1.8 3 1.8-3h.8l-2.3 3.7ZM329.1 145.802c0-1.3.9-2.2 2.2-2.2 1.3 0 2.2.9 2.2 2.2 0 1.3-.9 2.2-2.2 2.2-1.2 0-2.2-.9-2.2-2.2Zm3.7 0c0-.9-.6-1.5-1.4-1.5-.8 0-1.4.6-1.4 1.5s.6 1.5 1.4 1.5c.8 0 1.4-.6 1.4-1.5ZM338.6 143.703v4.2h-.7v-.6c-.3.4-.8.7-1.4.7-1.1 0-1.8-.6-1.8-1.8v-2.4h.8v2.4c0 .8.4 1.2 1.1 1.2.8 0 1.3-.5 1.3-1.4v-2.2h.7v-.1ZM342.3 143.703v.7h-.2c-.8 0-1.3.5-1.3 1.4v2.1h-.8v-4.2h.7v.7c.3-.5.9-.7 1.6-.7ZM345.1 145.103c0-1.6 1.3-2.9 3-2.9s3 1.2 3 2.9c0 1.6-1.3 2.9-3 2.9s-3-1.2-3-2.9Zm5.2 0c0-1.2-.9-2.2-2.2-2.2-1.3 0-2.2.9-2.2 2.2 0 1.2.9 2.2 2.2 2.2 1.2 0 2.2-.9 2.2-2.2ZM353.3 142.997h-1.9v-.7h4.6v.7h-1.9v4.9h-.8v-4.9ZM361.4 144.299c0 1.2-.9 2-2.3 2h-1.4v1.7h-.8v-5.6h2.2c1.4-.1 2.3.7 2.3 1.9Zm-.8 0c0-.8-.5-1.3-1.6-1.3h-1.4v2.5h1.4c1.1.1 1.6-.4 1.6-1.2ZM364.4 145.103c0-1.7 1.3-2.9 3-2.9.9 0 1.6.3 2.1.9l-.5.5c-.4-.5-1-.7-1.6-.7-1.3 0-2.2.9-2.2 2.2 0 1.2.9 2.2 2.2 2.2.6 0 1.1-.2 1.6-.7l.5.5c-.5.6-1.3.9-2.1.9-1.8 0-3-1.2-3-2.9ZM369.9 145.802c0-1.3.9-2.2 2.2-2.2 1.3 0 2.2.9 2.2 2.2 0 1.3-.9 2.2-2.2 2.2-1.2 0-2.2-.9-2.2-2.2Zm3.7 0c0-.9-.6-1.5-1.4-1.5-.8 0-1.4.6-1.4 1.5s.6 1.5 1.4 1.5c.8 0 1.4-.6 1.4-1.5ZM379.4 142v5.9h-.7v-.7c-.3.5-.9.7-1.5.7-1.2 0-2.1-.9-2.1-2.2 0-1.3.9-2.2 2.1-2.2.6 0 1.1.2 1.5.7V142h.7Zm-.8 3.8c0-.9-.6-1.5-1.4-1.5-.8 0-1.4.6-1.4 1.5s.6 1.5 1.4 1.5c.8 0 1.4-.6 1.4-1.5ZM384.7 146.102h-3.4c.1.7.7 1.2 1.5 1.2.5 0 .9-.2 1.2-.5l.4.5c-.4.4-1 .7-1.7.7-1.4 0-2.3-.9-2.3-2.2 0-1.3.9-2.2 2.1-2.2 1.2 0 2.1.9 2.1 2.2.1.1.1.2.1.3Zm-3.5-.6h2.7c-.1-.7-.6-1.2-1.4-1.2-.6 0-1.2.5-1.3 1.2Z"/></g><g opacity=".5" fill="#263238"><path d="M343 156.702c0 3.1-1.8 4.8-4.4 4.8-.9 0-1.7-.2-2.3-.5l.5-1c.5.3 1.1.4 1.8.4 1.9 0 3.1-1.2 3.1-3.5v-.3c-.5.8-1.5 1.2-2.7 1.2-1.8 0-3.1-1.1-3.1-2.8 0-1.8 1.4-2.9 3.3-2.9 2.4 0 3.8 1.7 3.8 4.6Zm-1.6-1.8c0-.9-.8-1.8-2.2-1.8-1.2 0-2 .7-2 1.8s.8 1.8 2.1 1.8c1.2 0 2.1-.7 2.1-1.8ZM344.3 156.802c0-3 1.6-4.7 3.8-4.7 2.1 0 3.8 1.7 3.8 4.7s-1.6 4.7-3.8 4.7c-2.2 0-3.8-1.7-3.8-4.7Zm6.2 0c0-2.4-1-3.5-2.4-3.5s-2.4 1.2-2.4 3.5c0 2.4 1 3.5 2.4 3.5 1.4.1 2.4-1.1 2.4-3.5ZM359.5 160.302v1.1h-6.6v-.9l3.8-3.6c1-.9 1.2-1.5 1.2-2.1 0-.9-.7-1.5-2-1.5-1 0-1.8.3-2.4 1l-.9-.8c.7-.9 1.9-1.4 3.4-1.4 1.9 0 3.2 1 3.2 2.6 0 .9-.3 1.7-1.5 2.9l-2.8 2.7h4.6ZM363.4 152.203v9.2h-1.3v-8.1H360v-1.1h3.4ZM365.4 156.802c0-3 1.6-4.7 3.8-4.7 2.1 0 3.8 1.7 3.8 4.7s-1.6 4.7-3.8 4.7c-2.1 0-3.8-1.7-3.8-4.7Zm6.2 0c0-2.4-1-3.5-2.4-3.5s-2.4 1.2-2.4 3.5c0 2.4 1 3.5 2.4 3.5 1.4.1 2.4-1.1 2.4-3.5Z"/></g><path d="m346.3 214.102 1 .7 1.1.7c.8.5 1.6.9 2.3 1.4 1.6.9 3.2 1.8 4.9 2.5 3.3 1.5 6.7 2.7 10.2 3.5H366.1h-.2c-.2 0-.7.1-1.2.4-.5.3-.9.8-1 1.1-.1.3-.1.5-.1.5 0 .1.1-.2.1-.5s0-.7-.1-1.1c-.3-1.6-.8-3.4-1.3-5.2-1.1-3.6-2.5-7.3-3.8-10.9l3.9-2.1c2.3 3.3 4.4 6.8 6.2 10.5.9 1.9 1.7 3.8 2.4 6 .2.6.3 1.2.4 1.8.1.7.2 1.4.1 2.4-.1.5-.2 1.1-.5 1.9-.3.7-1 1.6-2 2.2-1 .6-1.9.7-2.6.8h-1.5c-4.3-.6-8.4-1.7-12.3-3.4-1.9-.8-3.9-1.7-5.7-2.7-.9-.5-1.8-1.1-2.7-1.6-.4-.3-.9-.6-1.3-.9-.5-.3-.9-.6-1.4-1l4.8-7Z" fill="#DC897C"/><path d="M345.2 213c5.8.7 9.6 3.9 9.6 3.9l-4 12.4c0-.1-19.4-17.9-5.6-16.3Z" fill="#009640"/><path opacity=".6" d="M345.2 223.398c2.8 3.2 5.6 5.8 5.6 5.8l1.7-5.1 2.4-7.3s-3.9-3.3-9.6-3.9c-8.6-.9-4.5 5.5-.1 10.5Z" fill="#fff"/><path opacity=".2" d="M345.2 223.397c2.8 3.2 5.6 5.8 5.6 5.8l1.7-5.1c-3.5-2.7-7.3-2.5-7.3-2.5-.1.6-.1 1.2 0 1.8Z" fill="#000"/><path d="M302 194.695s-9.3 30.9 10.3 35.1c19.6 4.1 21.6-10.1 21.6-10.1s-16-24.4-31.9-25Z" fill="#263238"/><path d="M297.4 204.697s1-1.8 2.7-1.9" stroke="#263238" stroke-width=".482" stroke-miterlimit="10" stroke-linecap="round" stroke-linejoin="round"/><path d="M300.2 208.797s-.2 2.1-.8 3.5c0 0 .9.7 2 0l-1.2-3.5Z" fill="#DE5753"/><path d="M298.3 207.393c.2.5.7.9 1 .7.4-.1.5-.7.3-1.2s-.7-.9-1-.7c-.4.1-.5.7-.3 1.2Z" fill="#263238"/><path d="M298.8 206.094h-1.4s1 .8 1.4 0Z" fill="#263238"/><path d="M318.2 212.594c0 .1-.1.2-.1.2-.1.2-.2.3-.3.5-.6 1-1.3 2-2.3 2.8-3 2.4-5.6 3.1-7.9 2.4-.1 0-.2-.1-.3-.1-3.4-1.4-6-5.4-8.1-10.7-1-2.4-1.6-4.7-1.7-6.6v-.4c-.1-2.7.9-4.9 3.2-6.8.8-.6 1.8-1.2 2.9-1.8 9.9-4.8 19.6 11.1 14.6 20.5Z" fill="#E4897B"/><path opacity=".2" d="M317.8 213.398c-.6 1-1.3 2-2.3 2.8-3 2.4-5.6 3.1-7.9 2.4 1.8-.5 4-1.5 5.7-3.5 1.1-1.3 2.7-1.7 4.5-1.7Z" fill="#000"/><path d="M297.4 201.097s2.8 7.3 10.9 7.2c0 0 6.4 6 10.7 4.1 5.9-2.6 7.1-13.2 1.1-20.7-7.7-9.7-24.6-2.7-22.7 9.4Z" fill="#263238"/><path d="M304 207.798c-.5-1.1-.5-3.4 1.3-3.9 1.9-.6 5 3.3 1.1 6.4-.6.4-1.3-.2-2.4-2.5Z" fill="#E4897B"/><path d="M306.2 187.697s-7.6 1.5-10 6c-2.9 5.2-3 9.3 4.6 11.9 0 0 9.6-9 13.7-10s7.4-1.2 7.4-1.2c-2.8-7.9-12.7-10-15.7-6.7Z" fill="#263238"/><path d="M313.5 216.3s5.2 3.6 6.6 9.5l16.2-9.5s-12.7-2.9-14.9-7.8c0 .1-8.5 1.1-7.9 7.8Z" fill="#E4897B"/><path d="M329.6 255.299s-21-20.6-23.3-27.1c0 0 8.8-13.8 26.5-14.3 17.7-.6 29.7 33 29.7 33l-32.9 8.4Z" fill="#009640"/><path opacity=".6" d="m362.5 246.801-32.9 8.4s-4.6-4.5-9.7-10c-1.6-1.7-3.2-3.5-4.8-5.3-4.2-4.7-7.9-9.4-8.7-11.9 0 0 8.8-13.8 26.5-14.3 17.6-.5 29.6 33.1 29.6 33.1Z" fill="#fff"/><path d="M310 204.699s3.1 10.2 13.8 13.6c10.8 3.4 8.1 14.4 18.5 13.1 5.6-.7 10.3-12-6.7-22-9.9-5.8-6.1-24.9-27.2-23.1 0 0 4.4 13.1 1.6 18.4Z" fill="#263238"/><path d="m320.5 410.7-5-1.1c.8-25 4.4-55.2 7.6-77.9.5-3.6 1-6.9 1.5-10.1.2-1.5.4-2.9.7-4.3 1-6.8 1.9-12.2 2.5-15.5.4-2.4.6-3.8.6-3.8l18 4.4-1.3 4.5-4.3 15-.5 1.7-2.8 9.9-4.8 16.8c.2 25.5-12.2 60.4-12.2 60.4ZM363.3 406.5l-5.1-.3c-3.9-26.9-5.5-60.5-6.2-83.9-.1-3.6-.2-7-.3-10.1v-.5c-.1-6.1-.2-10.9-.2-14V294l18.5 1.2-.8 7.7-1.2 11.3-.2 2.2-.8 7.7-2.1 20.7c4.6 25.2-1.6 61.7-1.6 61.7Z" fill="#E4897B"/><path d="M365.2 405.6c0-.6-7.9-.1-7.9-.1s-4.8 4.9-9.6 6c-4.7 1.1-2.1 3.9 3.2 3.9h13c3.8 0 1.4-3.2 1.3-9.8Z" fill="#263238"/><path d="M352.5 407.198c-.2-.1-.3-.4-.2-.8.1-.2.2-.4.4-.5.4-.2 1.1-.3 1.8-.2-.6-.3-1.2-.8-1.2-1.2 0-.3.2-.5.5-.7.3-.2.7-.2 1 0 1.1.4 1.7 2.3 1.8 2.4v.2l-.1.1c-.4.2-2.2 1-3.3 1-.3-.1-.6-.1-.7-.3Zm.4-1c-.1.1-.2.2-.2.3-.1.3 0 .4.1.4.4.3 1.8-.1 3-.6-1-.2-2.3-.4-2.9-.1Zm1-2c-.1.1-.3.2-.3.3 0 .4 1.1 1 2.3 1.4-.3-.6-.8-1.5-1.4-1.7-.1 0-.2-.1-.3-.1 0 0-.2.1-.3.1ZM323 405.6c0-.6-7.9-.1-7.9-.1s-4.8 4.9-9.6 6c-4.7 1.1-2.1 3.9 3.2 3.9h13c3.8 0 1.5-3.2 1.3-9.8Z" fill="#263238"/><path d="M310.3 407.198c-.2-.1-.3-.4-.2-.8.1-.2.2-.4.4-.5.4-.2 1.1-.3 1.8-.2-.6-.3-1.2-.8-1.2-1.2 0-.3.2-.5.5-.7.3-.2.7-.2 1 0 1.1.4 1.7 2.3 1.8 2.4v.2l-.1.1c-.4.2-2.2 1-3.3 1-.3-.1-.6-.1-.7-.3Zm.4-1c-.1.1-.2.2-.2.3-.1.3 0 .4.1.4.4.3 1.8-.1 3-.6-1-.2-2.3-.4-2.9-.1Zm1-2c-.1.1-.3.2-.3.3 0 .4 1.1 1 2.3 1.4-.3-.6-.8-1.5-1.4-1.7-.1 0-.2-.1-.3-.1 0 0-.1.1-.3.1ZM325.4 305.497l4.3-30v-20.3c11.2-8.4 32.9-8.4 32.9-8.4s16.6 23.1 8.6 61l-20.9 3.1-1.3-7.1-2.6 7.1-21-5.4Z" fill="#263238"/><path opacity=".2" d="m325.4 305.497 4.3-30v-20.3c11.2-8.4 32.9-8.4 32.9-8.4s16.6 23.1 8.6 61l-20.9 3.1-1.3-7.1-2.6 7.1-21-5.4Z" fill="#fff"/><path opacity=".2" d="m348.8 303.802 4-12.5s4.2-1.3 9.6-9.7c.1.1-.8 14.3-13.6 22.2ZM339.9 261.002l9.4-.9s2.3 4.5 1.5 11.1l-6 3.6-4.3-3.1c0 .1-.2-7.9-.6-10.7ZM362.5 258.697s1.7 4 2.8 9.6l3.3 1.4 1.8-2.2s-1.2-6.5-3.3-9.7l-4.6.9Z" fill="#000"/><path d="m325 303.797 22.1 6.5-1.4 3-21-6.5.3-3ZM349.3 309.898l.4 2.7 21.7-2.7.3-3.5-22.4 3.5ZM353.9 251.001c6.4-1 10.7-1 10.7-1l-1.3-2.2c-3.6-.1-7.2.2-10.5.6l1.1 2.6ZM333.9 253.703c-2.9 1.2-4.5 2.2-4.5 2.2v2.7c1.6-.8 3.2-1.6 4.9-2.2l-.4-2.7ZM335.3 256c6.2-2.5 12.2-3.9 17.2-4.8l-1-2.7c-6.8 1.1-12.7 3.1-16.6 4.8l.4 2.7Z" fill="#263238"/><path d="m275.2 263.8-5.7-2.3-1 5.4s5.1 3.1 7.3-.6l-.6-2.5Z" fill="#E4897B"/><path d="m266.7 261.9-1.8 4.1 3.7.9 1-5.4-2.9.4ZM362.4 206.194l-.7-6.1-5.2 1.7s-.3 6 3.9 6.1l2-1.7Z" fill="#E4897B"/><path d="m360.1 197.797-4.5.3 1 3.7 5.1-1.7-1.6-2.3Z" fill="#E4897B"/><path opacity=".2" d="M319.9 245.3c-1.6-1.7-3.2-3.5-4.8-5.3-.6-3.7-1-7-1-7s6.2 4.2 5.8 12.3Z" fill="#000"/><path d="M314.7 231.295c-.6 2.5-1.3 4.8-2 7.1s-1.6 4.6-2.5 6.9c-.9 2.3-1.8 4.5-2.9 6.8-.5 1.1-1.1 2.2-1.6 3.3-.3.6-.6 1.1-.9 1.6l-.4.8-.2.4c-.1.2-.3.5-.4.7-1.2 1.7-2.5 2.7-3.8 3.5-1.3.8-2.5 1.3-3.8 1.8-2.5.9-4.9 1.5-7.4 2-4.9.9-9.7 1.4-14.6 1.4l-.4-4.4c2.2-.5 4.5-1 6.8-1.6 2.2-.5 4.5-1.2 6.6-1.9 2.1-.7 4.2-1.5 6.1-2.4.9-.5 1.8-1 2.5-1.5s1.2-1.1 1.3-1.3v-.1l.2-.4.4-.8c.2-.5.5-1 .7-1.5.4-1 .9-2.1 1.3-3.1.8-2.1 1.6-4.3 2.4-6.4.8-2.2 1.5-4.4 2.1-6.5.7-2.2 1.3-4.4 1.9-6.5l8.6 2.1Z" fill="#DC897C"/><path d="M309.8 223.7c-4.9 3.2-7.5 11.5-8.3 15.6l10.2 7.5 5.1-5c2-11.5-5.2-19.3-7-18.1Z" fill="#009640"/><path opacity=".6" d="M309.8 223.7c-4.9 3.2-7.5 11.5-8.3 15.6l10.2 7.5 5.1-5c2-11.5-5.2-19.3-7-18.1Z" fill="#fff"/><path d="m359.4 208.202-7.3.8c-.4 0-.8-.3-.8-.8l-.4-15.4c0-.5.3-.9.7-.9l7.3-.8c.4 0 .8.3.8.8l.4 15.4c0 .4-.3.8-.7.9Z" fill="#263238"/><path opacity=".6" d="m359.4 208.202-7.3.8c-.4 0-.8-.3-.8-.8l-.4-15.4c0-.5.3-.9.7-.9l7.3-.8c.4 0 .8.3.8.8l.4 15.4c0 .4-.3.8-.7.9Z" fill="#fff"/><path d="m358.7 208.202-7.3.8c-.4 0-.8-.3-.8-.8l-.4-15.4c0-.5.3-.9.7-.9l7.3-.8c.4 0 .8.3.8.8l.4 15.4c.1.5-.2.9-.7.9Z" fill="#263238"/><path opacity=".7" d="m358.7 208.202-7.3.8c-.4 0-.8-.3-.8-.8l-.4-15.4c0-.5.3-.9.7-.9l7.3-.8c.4 0 .8.3.8.8l.4 15.4c.1.5-.2.9-.7.9Z" fill="#fff"/><path d="m358.3 191.398-1.9.2-.2.6-2.9.3-.3-.5-1.9.2c-.3 0-.5.3-.5.6l.4 15.4c0 .3.2.5.5.5l7.3-.8c.3 0 .5-.3.5-.6l-.4-15.4c-.1-.3-.4-.5-.6-.5Z" fill="#009640"/><path opacity=".8" d="m357.3 196.998-5.3.6c-.3 0-.5-.2-.5-.5v-1.5c0-.3.2-.6.5-.6l5.3-.6c.3 0 .5.2.5.5v1.5c0 .3-.2.6-.5.6Z" fill="#fff"/></svg>