<svg width="10" height="21" viewBox="0 0 10 21" fill="none" xmlns="http://www.w3.org/2000/svg">
<path d="M10 5.5C10 2.7425 7.7575 0.5 5 0.5C2.2425 0.5 0 2.7425 0 5.5C0.00151007 6.68118 0.420519 7.82381 1.18298 8.72595C1.94543 9.62809 3.00225 10.2317 4.16667 10.43V19.6667C4.16667 19.8877 4.25446 20.0996 4.41074 20.2559C4.56702 20.4122 4.77899 20.5 5 20.5C5.22101 20.5 5.43297 20.4122 5.58926 20.2559C5.74554 20.0996 5.83333 19.8877 5.83333 19.6667V10.43C6.99775 10.2317 8.05457 9.62809 8.81702 8.72595C9.57948 7.82381 9.99849 6.68118 10 5.5Z" fill="#1A9D56"/>
</svg>
