<svg width="20" height="20" fill="none" xmlns="http://www.w3.org/2000/svg"><path d="M10.081 6.515a3.295 3.295 0 0 0-1.376-.67v-.71a.654.654 0 1 0-1.307 0v.704c-.695.153-1.338.568-1.66 1.254-.334.705-.314 1.433.104 2.08.388.599 1.072 1.054 1.916 1.404.77.32 1.182.659 1.374.954.169.26.201.535.07.885-.115.313-.462.555-1.055.576-.584.02-1.217-.198-1.612-.575a.654.654 0 1 0-.904.945c.482.462 1.12.755 1.767.875v.627a.654.654 0 0 0 1.307 0v-.625c.725-.146 1.423-.559 1.723-1.368.26-.697.218-1.412-.2-2.053-.395-.608-1.081-1.08-1.97-1.449-.737-.306-1.139-.63-1.318-.907-.15-.23-.179-.475-.02-.812.129-.272.442-.502.9-.559.45-.056.983.068 1.435.437a.654.654 0 0 0 .826-1.013Z" fill="#009640"/><path fill-rule="evenodd" clip-rule="evenodd" d="M.696 16.335a2.665 2.665 0 0 0 2.666 2.666h9.285a2.665 2.665 0 0 0 2.665-2.666V3.665A2.666 2.666 0 0 0 12.648 1H3.361A2.665 2.665 0 0 0 .695 3.665l.001 12.67Zm2.666 1.358a1.357 1.357 0 0 1-1.358-1.358V3.665c0-.75.607-1.357 1.358-1.357h9.285c.75 0 1.358.607 1.358 1.357v12.67a1.358 1.358 0 0 1-1.358 1.358H3.362Z" fill="#009640"/><path d="M19.8 7.387a1.66 1.66 0 0 0-1.66-1.66h-.925a.654.654 0 1 0 0 1.308h.926a.352.352 0 0 1 .352.352v8.056a.352.352 0 0 1-.352.352h-.926a.654.654 0 0 0 0 1.308h.926a1.66 1.66 0 0 0 1.66-1.66V7.387Z" fill="#009640"/></svg>