<svg xmlns="http://www.w3.org/2000/svg" width="520" height="520" viewBox="0 0 64 64" style="enable-background:new 0 0 512 512" xml:space="preserve"><path d="M56 44a1 1 0 0 1-1 1h-4v4a1 1 0 0 1-2 0v-4h-4a1 1 0 0 1 0-2h4v-4a1 1 0 0 1 2 0v4h4a1 1 0 0 1 1 1Zm5 0a10.996 10.996 0 0 1-21.809 2H6a3.003 3.003 0 0 1-3-3V12a3.003 3.003 0 0 1 3-3h42a3.003 3.003 0 0 1 3 3v21.05A11.011 11.011 0 0 1 61 44ZM5 12v30.4l14.393-17.992a2 2 0 0 1 3.19.087l5.42 7.089 5.5-5.501a1.977 1.977 0 0 1 1.525-.583 2.001 2.001 0 0 1 1.451.748l7.684 8.445A10.91 10.91 0 0 1 49 33.05V12a1.001 1.001 0 0 0-1-1H6a1.001 1.001 0 0 0-1 1Zm15.974 13.684L6.282 44h28.695ZM39 44a10.96 10.96 0 0 1 3.57-8.087l-7.612-8.368-5.727 5.646L37.494 44Zm20 0a9 9 0 1 0-9 9 9.01 9.01 0 0 0 9-9ZM35 18a5 5 0 1 1 5 5 5.006 5.006 0 0 1-5-5Zm2 0a3 3 0 1 0 3-3 3.003 3.003 0 0 0-3 3Z" fill="#6C757D" data-original="#000000"/></svg>