<svg width="20" height="20" viewBox="0 0 20 20" fill="none" xmlns="http://www.w3.org/2000/svg">
<path d="M19.7742 18.5959L14.8 13.6218C16.1556 11.9639 16.822 9.84851 16.6616 7.71307C16.5011 5.57763 15.5261 3.58554 13.938 2.14887C12.35 0.712193 10.2705 -0.0591558 8.12974 -0.00562925C5.98895 0.0478973 3.95063 0.922203 2.43638 2.43644C0.922142 3.95069 0.0478362 5.98901 -0.00569029 8.1298C-0.0592168 10.2706 0.712132 12.3501 2.14881 13.9381C3.58548 15.5261 5.57757 16.5012 7.71301 16.6616C9.84845 16.8221 11.9639 16.1556 13.6217 14.8001L18.5959 19.7743C18.753 19.9261 18.9635 20.0101 19.182 20.0082C19.4005 20.0063 19.6096 19.9186 19.7641 19.7641C19.9186 19.6096 20.0062 19.4006 20.0081 19.1821C20.01 18.9636 19.926 18.7531 19.7742 18.5959ZM8.35171 15.0184C7.03316 15.0184 5.74423 14.6274 4.6479 13.8949C3.55158 13.1624 2.69709 12.1212 2.19251 10.903C1.68792 9.68482 1.5559 8.34437 1.81314 7.05117C2.07037 5.75796 2.70531 4.57007 3.63766 3.63772C4.57001 2.70537 5.7579 2.07043 7.0511 1.8132C8.34431 1.55596 9.68476 1.68799 10.9029 2.19257C12.1211 2.69715 13.1623 3.55164 13.8948 4.64797C14.6274 5.74429 15.0184 7.03323 15.0184 8.35177C15.0164 10.1193 14.3134 11.8138 13.0636 13.0636C11.8137 14.3134 10.1192 15.0164 8.35171 15.0184Z" fill="white"/>
</svg>
