<?xml version="1.0" encoding="utf-8"?>
<!-- Generator: Adobe Illustrator 27.0.0, SVG Export Plug-In . SVG Version: 6.00 Build 0)  -->
<svg version="1.1" xmlns="http://www.w3.org/2000/svg" xmlns:xlink="http://www.w3.org/1999/xlink" x="0px" y="0px"
	 viewBox="0 0 2500 2500" style="enable-background:new 0 0 2500 2500;" xml:space="preserve">
<style type="text/css">
	.st0{fill:#FFFFFF;}
	.st1{fill:#AAE0FF;}
	.st2{fill:#2D5B98;}
	.st3{fill:#5896FA;}
	.st4{fill:#0E0E0E;}
	.st5{fill:#FFCA59;}
	.st6{fill:#ED5A24;}
	.st7{fill:none;stroke:#2E77E6;stroke-width:8.7306;stroke-miterlimit:10;stroke-dasharray:13.0959,13.0959;}
	.st8{fill:#80B2FF;}
	.st9{fill:#005CEA;}
	.st10{fill:#1251B3;}
	.st11{fill:#D9FFFF;}
	.st12{fill:#296ACC;}
	.st13{fill:#2E77E6;}
	.st14{fill:#FFFFFF;stroke:#5896FA;stroke-width:6.3406;stroke-miterlimit:10;}
	.st15{fill:#D1F5FF;}
	.st16{fill:#3383FF;}
	.st17{fill:none;stroke:#FFFFFF;stroke-width:4.2257;stroke-miterlimit:10;}
	.st18{fill:#EA7B00;}
	.st19{fill:#982C20;}
	.st20{fill:#F2B066;}
	.st21{fill:#007880;}
	.st22{fill:#005459;}
	.st23{fill:#B15626;}
	.st24{fill:#F7A594;}
	.st25{fill:#99C1FF;}
	.st26{fill:#F4856D;}
</style>
<g id="BG">
	<rect class="st0" width="2500" height="2500"/>
</g>
<g id="window">
	<rect x="578.8" y="565" class="st1" width="1385.2" height="1379.8"/>
</g>
<g id="shadow">
	<path id="shadow_1_" class="st2" d="M167.6,2255.9h2216.9c6.8,0,12.2-5.5,12.2-12.2l0,0c0-6.8-5.5-12.2-12.2-12.2H167.6
		c-6.8,0-12.2,5.5-12.2,12.2l0,0C155.4,2250.5,160.9,2255.9,167.6,2255.9z"/>
	<g id="plant">
		<g>
			<g>
				<path class="st3" d="M765,2134.5L765,2134.5c-68.4,0-123.9-55.5-123.9-123.9v-168.9h247.8v168.9
					C888.9,2079,833.4,2134.5,765,2134.5z"/>
				<rect x="627.4" y="1969.3" class="st4" width="13.7" height="262.1"/>
				<rect x="888.9" y="1969.3" class="st4" width="13.7" height="262.1"/>
				<rect x="783.8" y="1969.3" class="st4" width="13.7" height="262.1"/>
			</g>
			<rect x="627.4" y="2134.5" class="st4" width="262.1" height="13.7"/>
		</g>
		<g>
			<path class="st5" d="M957.9,1562.7c15,21.5-15.1,40.1-19.8,69.9c-4.7,29.8,29.5,46.6-6.8,85.7c-22.3,24.1-41.2-7.9-59.3,29
				c-18.2,36.9-3.8,43.1-24.3,56.4c-35.6,23.1-90-28-71.7-64.9c18.3-36.8,55.3-33.6,38.2-63.9c-17.1-30.3-23.5-43.4,6-59
				c36.6-19.3,68.8-1.6,71.7-29.8C895,1558.1,938.2,1534.2,957.9,1562.7z"/>
			<path class="st4" d="M801.7,1840l-6.2-1.2c28.8-145.7,124.4-247.7,125.3-248.7l4.5,4.3C924.4,1595.4,830.1,1696.2,801.7,1840z"/>
		</g>
		<g>
			<path class="st6" d="M478.8,1508.9c-15.5,31.5,28.1,50,40.3,88.6c12.2,38.6-32.7,52.2,23.1,96.6c34.4,27.4,41.6,10.3,54.2,71.5
				c11.1,53.9,52.1,2.6,82.7,34.2c39.5,40.8,101.2-48.8,69.6-93.8c-31.6-45.1-68.5-33.4-52-77c16.6-43.6-3.2-76.4-45.4-91.1
				c-52.3-18.2-71.1,25.7-80.6-11C561.2,1490.1,499.3,1467.2,478.8,1508.9z"/>
			<path class="st4" d="M741.4,1844.4c-66.6-184.7-211.7-299-213.1-300.1l5.2-6.6c1.5,1.1,148.4,116.9,215.9,303.9L741.4,1844.4z"/>
		</g>
	</g>
</g>
<g id="system">
	<g>
		<g>
			<circle class="st7" cx="922.9" cy="803.2" r="529.8"/>
			<path class="st0" d="M1057.1,768.4c0.6-4.1,1-8.3,1-12.6c0-51.6-41.8-93.4-93.4-93.4c-38.7,0-71.9,23.5-86,57.1
				c-11.5-10.3-26.7-16.6-43.3-16.6c-36,0-65.2,29.2-65.2,65.2h-12.2c-34.7,0-63,28.3-63,63v0c0,34.6,28.3,63,63,63h294.6
				c34.6,0,63-28.3,63-63v0C1115.4,798.1,1089.6,770.8,1057.1,768.4z"/>
			<g>
				<path class="st3" d="M1115,1453.8H720.6c-13.3,0-24-10.8-24-24v-330.9c0-13.3,10.8-24,24-24H1115c13.3,0,24,10.8,24,24v330.9
					C1139.1,1443,1128.3,1453.8,1115,1453.8z"/>
				<g>
					<g>
						<path class="st0" d="M1051.8,1303.6H785c-8.7,0-15.9-7.1-15.9-15.9l0,0c0-8.7,7.1-15.9,15.9-15.9h266.7
							c8.7,0,15.9,7.1,15.9,15.9l0,0C1067.6,1296.5,1060.5,1303.6,1051.8,1303.6z"/>
						<path class="st0" d="M1051.8,1354.7H785c-8.7,0-15.9-7.1-15.9-15.9l0,0c0-8.7,7.1-15.9,15.9-15.9h266.7
							c8.7,0,15.9,7.1,15.9,15.9l0,0C1067.6,1347.6,1060.5,1354.7,1051.8,1354.7z"/>
						<g>
							<path class="st8" d="M834.9,1340.3c0,3.1-2.5,5.6-5.6,5.6c-3.1,0-5.6-2.5-5.6-5.6c0-3.1,2.5-5.6,5.6-5.6
								C832.3,1334.7,834.9,1337.2,834.9,1340.3z"/>
							<path class="st8" d="M854,1340.3c0,3.1-2.5,5.6-5.6,5.6c-3.1,0-5.6-2.5-5.6-5.6c0-3.1,2.5-5.6,5.6-5.6
								C851.5,1334.7,854,1337.2,854,1340.3z"/>
							<path class="st8" d="M873.2,1340.3c0,3.1-2.5,5.6-5.6,5.6c-3.1,0-5.6-2.5-5.6-5.6c0-3.1,2.5-5.6,5.6-5.6
								C870.7,1334.7,873.2,1337.2,873.2,1340.3z"/>
							<path class="st8" d="M892.3,1340.3c0,3.1-2.5,5.6-5.6,5.6c-3.1,0-5.6-2.5-5.6-5.6c0-3.1,2.5-5.6,5.6-5.6
								C889.8,1334.7,892.3,1337.2,892.3,1340.3z"/>
							<path class="st8" d="M911.5,1340.3c0,3.1-2.5,5.6-5.6,5.6c-3.1,0-5.6-2.5-5.6-5.6c0-3.1,2.5-5.6,5.6-5.6
								C909,1334.7,911.5,1337.2,911.5,1340.3z"/>
							<path class="st8" d="M930.6,1340.3c0,3.1-2.5,5.6-5.6,5.6c-3.1,0-5.6-2.5-5.6-5.6c0-3.1,2.5-5.6,5.6-5.6
								C928.1,1334.7,930.6,1337.2,930.6,1340.3z"/>
							<path class="st8" d="M949.8,1340.3c0,3.1-2.5,5.6-5.6,5.6c-3.1,0-5.6-2.5-5.6-5.6c0-3.1,2.5-5.6,5.6-5.6
								C947.3,1334.7,949.8,1337.2,949.8,1340.3z"/>
							<path class="st8" d="M968.9,1340.3c0,3.1-2.5,5.6-5.6,5.6c-3.1,0-5.6-2.5-5.6-5.6c0-3.1,2.5-5.6,5.6-5.6
								C966.4,1334.7,968.9,1337.2,968.9,1340.3z"/>
							<path class="st8" d="M988.1,1340.3c0,3.1-2.5,5.6-5.6,5.6c-3.1,0-5.6-2.5-5.6-5.6c0-3.1,2.5-5.6,5.6-5.6
								C985.6,1334.7,988.1,1337.2,988.1,1340.3z"/>
						</g>
						<g>
							<circle class="st0" cx="918.5" cy="1166.2" r="61.3"/>
							<g>
								<g>
									<path class="st9" d="M918.6,1163.7c6,0,11.5-2.9,15-7.4c2.6-3.2,4.1-7.4,4.1-12c0-10.6-8.6-19.3-19.2-19.3
										c-10.7,0-19.3,8.8-19.3,19.3c0,4.6,1.5,8.8,4.1,12C906.9,1160.8,912.4,1163.7,918.6,1163.7z"/>
								</g>
								<path class="st9" d="M952.6,1198.2c0,12.2-68.2,12.2-68.2,0l0-14.2c2.7-19.4,62.6-20.3,68.2,0L952.6,1198.2z"/>
							</g>
						</g>
						<path class="st3" d="M798.3,1335.9v-0.9c0-3.4-2.8-6.2-6.2-6.2s-6.2,2.8-6.2,6.2v0.9h-0.9v11.3c0,1.9,14.4,1.9,14.4,0v-11.3
							H798.3z M788,1335.1c0-2.2,1.3-4.1,4-4.1c2.7,0,4.1,1.8,4.1,4.1v0.9H788V1335.1z M793.1,1341.6v3.3c0,0.6-0.5,1-1.1,1
							c-0.6,0-1-0.4-1-1v-3.3c-0.6-0.3-1-0.9-1-1.7c0-1.1,0.9-2,2-2c1.1,0,2,0.9,2,2C794,1340.7,793.6,1341.3,793.1,1341.6z"/>
						<g>
							<g>
								<g>
									<path class="st3" d="M792,1286.6c1.3,0,2.4-0.6,3.2-1.6c0.6-0.7,0.9-1.6,0.9-2.5c0-2.2-1.8-4.1-4-4.1
										c-2.3,0-4.1,1.8-4.1,4.1c0,1,0.3,1.8,0.9,2.5C789.6,1286,790.7,1286.6,792,1286.6z"/>
								</g>
								<path class="st3" d="M799.2,1293.9c0,2.6-14.5,2.6-14.5,0l0.1-3c0.6-4.1,13.2-4.3,14.4,0L799.2,1293.9z"/>
							</g>
							<path class="st8" d="M885.5,1292.4H827c-2.6,0-4.7-2.1-4.7-4.7l0,0c0-2.6,2.1-4.7,4.7-4.7h58.5c2.6,0,4.7,2.1,4.7,4.7l0,0
								C890.1,1290.3,888,1292.4,885.5,1292.4z"/>
							<path class="st8" d="M962.6,1292.4h-58.5c-2.6,0-4.7-2.1-4.7-4.7l0,0c0-2.6,2.1-4.7,4.7-4.7h58.5c2.6,0,4.7,2.1,4.7,4.7l0,0
								C967.2,1290.3,965.1,1292.4,962.6,1292.4z"/>
						</g>
					</g>
					<path class="st10" d="M938,1404.3h-53c-7.5,0-13.6-6.1-13.6-13.6v0c0-7.5,6.1-13.6,13.6-13.6h53c7.5,0,13.6,6.1,13.6,13.6v0
						C951.6,1398.2,945.5,1404.3,938,1404.3z"/>
				</g>
			</g>
			<g>
				<g>
					<g>
						<g>
							<path class="st11" d="M244.6,850.7L244.6,850.7c0-0.4,0-0.6,0-0.7C244.7,850.1,244.6,850.7,244.6,850.7z"/>
							<path class="st11" d="M244.6,850.7L244.6,850.7c0-0.4,0-0.6,0-0.7C244.7,850.1,244.6,850.7,244.6,850.7z"/>
							<path class="st11" d="M505.4,851.9c0,0,0-0.6,0-0.7C505.4,851.2,505.4,851.4,505.4,851.9L505.4,851.9z"/>
							<path class="st11" d="M505.4,851.9c0,0,0-0.6,0-0.7C505.4,851.2,505.4,851.4,505.4,851.9L505.4,851.9z"/>
							<path class="st0" d="M375.6,780.3c-30.4,32.5-78.9,59.2-130.7,70.6c0,3.5-0.1,22.7-0.5,111.1
								c-0.5,118,111.8,175.7,129.2,184.6c16.9-7.8,130.7-65.4,131.2-183.4c0.4-88.5,0.5-107.7,0.5-111.1
								C453.5,840.2,405.6,813.1,375.6,780.3z"/>
						</g>
					</g>
					<g>
						<g>
							<path class="st12" d="M375.2,801.6c-29.8,27.3-71,48.7-116.3,60.4l-0.4,100c-0.2,45.8,18,87.2,54,123
								c23.7,23.6,48.6,38.2,61.2,44.8c0.5-0.3,1.1-0.6,1.7-0.9V801.8C375.4,801.7,375.3,801.7,375.2,801.6z"/>
						</g>
						<g>
							<path class="st13" d="M375.5,801.8V1129c13.1-6.8,37-21,59.9-43.3c36.4-35.6,54.9-76.8,55.1-122.6l0.4-100
								C445.9,851,405,829.3,375.5,801.8z"/>
						</g>
					</g>
				</g>
				<g>
					<path class="st0" d="M322.8,946v77.5c0,8.6,105.3,8.6,105.3,0V946H322.8z M380.8,987.1v22c0,2.9-2.4,5.4-5.3,5.4
						c-3,0-5.4-2.4-5.4-5.4v-22c-4.5-2-7.7-6.6-7.7-11.8c0-7.2,5.8-13,13-13c7.2,0,13,5.8,13,13
						C388.5,980.5,385.4,985.1,380.8,987.1z"/>
					<path class="st0" d="M418.9,940.5h-10.7v-5.2c0-18.1-14.7-32.8-32.8-32.8c-18.1,0-32.8,14.7-32.8,32.8v5.2h-10.7v-5.2
						c0-24,19.5-43.4,43.4-43.4c24,0,43.4,19.5,43.4,43.4V940.5z"/>
				</g>
			</g>
			<g>
				<g>
					<rect x="964.9" y="142.6" class="st12" width="190.3" height="237.5"/>
				</g>
				<g>
					<rect x="989.6" y="167.1" class="st14" width="190.3" height="237.5"/>
				</g>
				<g>
					<rect x="1021" y="191.2" class="st14" width="190.3" height="237.5"/>
				</g>
				<g>
					<rect x="1043.8" y="215.7" class="st3" width="190.3" height="237.5"/>
					<rect x="1106" y="254.7" class="st9" width="98.4" height="15.4"/>
					<rect x="1076.9" y="291" class="st9" width="127.5" height="15.4"/>
					<rect x="1076.9" y="327.3" class="st9" width="127.5" height="15.4"/>
					<rect x="1076.9" y="363.6" class="st9" width="127.5" height="15.4"/>
					<rect x="1076.9" y="399.9" class="st9" width="127.5" height="15.4"/>
				</g>
			</g>
			<g>
				
					<ellipse transform="matrix(0.2233 -0.9747 0.9747 0.2233 34.2787 845.2065)" class="st0" cx="547.5" cy="401.1" rx="67.2" ry="67.2"/>
				<g>
					<path class="st9" d="M653.5,465c8.7-14.5,14.2-30.1,16.5-45.8l5,0.7l9.9,1.5l0.1,0c2.7-18,1.8-36.3-2.6-53.7l-14.7,3.6
						c-3.9-15.8-10.9-30.8-20.8-44l12.2-9.1c-10.4-14.2-23.8-26.5-39.8-36.2l-7.9,13c-14.5-8.7-30.1-14.2-45.8-16.5l2.2-15
						c-18-2.7-36.3-1.7-53.7,2.6l3.6,14.7c-15.8,3.9-30.8,10.9-44,20.8l-9.1-12.2c-14.2,10.4-26.5,23.8-36.2,39.8l13,7.9
						c-8.7,14.5-14.2,30.1-16.5,45.8l-10.6-1.6l-4.3-0.6l0,0c-2.7,18-1.7,36.3,2.6,53.7l14.7-3.6c3.9,15.8,10.9,30.8,20.9,44.1
						L436,484c10.4,14.2,23.8,26.5,39.7,36.1l7.9-13c14.5,8.7,30.1,14.2,45.9,16.5l-1.7,11.7l-0.5,3.3c18,2.7,36.2,1.7,53.6-2.6
						l-3.6-14.7c15.8-3.9,30.8-10.9,44.1-20.8l9.1,12.2c14.1-10.5,26.5-23.8,36.1-39.8L653.5,465z M512.8,458.6
						c-31.8-19.2-42-60.5-22.9-92.3c19.2-31.8,60.4-42,92.2-22.8c31.8,19.2,42,60.4,22.8,92.2C585.9,467.6,544.6,477.8,512.8,458.6z
						"/>
				</g>
				<g>
					<path class="st10" d="M402,456.1c-4.9-7.4-11.1-13.5-18.1-18.2l1.5-2.2l2.9-4.4l0-0.1c-8-5.3-16.9-9-26.1-10.9l-1.6,7.8
						c-8.4-1.7-17.1-1.8-25.6-0.1l-1.6-7.8c-9.1,1.8-18,5.3-26.2,10.8l4.4,6.7c-7.4,4.9-13.5,11.1-18.2,18.1l-6.6-4.4
						c-5.3,8-9,16.9-10.9,26.1l7.8,1.6c-1.7,8.4-1.8,17.1-0.1,25.6l-7.8,1.6c1.8,9.1,5.3,18,10.8,26.2l6.7-4.4
						c4.9,7.4,11.1,13.5,18.1,18.2l-3.1,4.7l-1.3,1.9l0,0c8,5.3,16.9,9,26.1,10.9l1.6-7.8c8.4,1.7,17.1,1.8,25.7,0l1.6,7.8
						c9.1-1.8,18-5.3,26.2-10.7l-4.4-6.7c7.4-4.9,13.6-11.1,18.2-18.1l5.2,3.5l1.5,1c5.3-8,9-16.9,10.9-26.1l-7.8-1.6
						c1.7-8.4,1.8-17.1,0.1-25.7l7.8-1.6c-1.8-9.1-5.3-18-10.8-26.2L402,456.1z M367.2,521.6c-16.3,10.8-38.3,6.3-49-10
						c-10.8-16.3-6.3-38.2,10-49c16.3-10.8,38.2-6.3,49,10C388,488.8,383.5,510.8,367.2,521.6z"/>
				</g>
			</g>
			<g>
				<path class="st9" d="M1501.2,592.7l-163.4,0c-3.4,0-6.2-2.8-6.2-6.2l0-92.7c0-3.4,2.8-6.2,6.2-6.2h163.4c3.4,0,6.2,2.8,6.2,6.2
					v92.7C1507.4,589.9,1504.6,592.7,1501.2,592.7z"/>
				<rect x="1331.5" y="507.4" class="st3" width="175.8" height="18.1"/>
				<path class="st15" d="M1371.8,572.5l-25.9,0c-1.6,0-3,1.3-3,3v0c0,1.6,1.3,3,3,3h25.9c1.6,0,3-1.3,3-3l0,0
					C1374.8,573.8,1373.5,572.5,1371.8,572.5z"/>
				<path class="st15" d="M1411.6,572.5h-25.9c-1.6,0-3,1.3-3,3l0,0c0,1.6,1.3,3,3,3h25.9c1.6,0,3-1.3,3-3l0,0
					C1414.6,573.8,1413.2,572.5,1411.6,572.5z"/>
				<path class="st15" d="M1451.3,572.5h-25.9c-1.6,0-3,1.3-3,3l0,0c0,1.6,1.3,3,3,3h25.9c1.6,0,3-1.3,3-3l0,0
					C1454.3,573.8,1453,572.5,1451.3,572.5z"/>
				<path class="st15" d="M1491.1,572.5h-25.9c-1.6,0-3,1.3-3,3l0,0c0,1.6,1.3,3,3,3h25.9c1.6,0,3-1.3,3-3l0,0
					C1494.1,573.8,1492.7,572.5,1491.1,572.5z"/>
				<path class="st15" d="M1344.8,492.8L1344.8,492.8c-1.8,0-3.3,1.5-3.3,3.3v1.2c0,1.8,1.5,3.3,3.3,3.3l0,0c1.8,0,3.3-1.5,3.3-3.3
					v-1.2C1348.1,494.3,1346.6,492.8,1344.8,492.8z"/>
				<path class="st15" d="M1351.9,496.7L1351.9,496.7c0,2.1,1.7,3.9,3.9,3.9h13.7c2.1,0,3.9-1.7,3.9-3.9l0,0c0-2.1-1.7-3.9-3.9-3.9
					h-13.7C1353.6,492.8,1351.9,494.6,1351.9,496.7z"/>
				<path class="st3" d="M1350.1,535.3h17.7c2.8,0,5.1,2.3,5.1,5.1v15.2c0,2.8-2.3,5.1-5.1,5.1h-17.7c-2.8,0-5.1-2.3-5.1-5.1v-15.2
					C1344.9,537.6,1347.2,535.3,1350.1,535.3z"/>
			</g>
			<g>
				<g>
					<path class="st10" d="M1436.4,860.5v-12c0-5.5-4.4-9.9-9.9-9.9h-105.1c-5.5,0-9.9,4.4-9.9,9.9v212.3h272V860.5H1436.4z"/>
					<polygon class="st0" points="1594.8,867.8 1328.1,867.8 1311.6,1060.8 1582.2,1060.8 					"/>
					<path class="st16" d="M1583.5,1060.8h-272l28.9-190.6c0.8-5.6,5.6-9.7,11.3-9.7h248.9c7,0,12.3,6.2,11.3,13.1L1583.5,1060.8z"
						/>
				</g>
				<g>
					<g>
						
							<ellipse transform="matrix(0.7071 -0.7071 0.7071 0.7071 -141.4941 1394.0177)" class="st9" cx="1612" cy="867.8" rx="62.3" ry="62.3"/>
						<path class="st0" d="M1612,932.4c-35.6,0-64.6-29-64.6-64.6c0-35.6,29-64.6,64.6-64.6c35.6,0,64.6,29,64.6,64.6
							C1676.6,903.4,1647.6,932.4,1612,932.4z M1612,807.8c-33.1,0-60,26.9-60,60c0,33.1,26.9,60,60,60c33.1,0,60-26.9,60-60
							C1672,834.7,1645.1,807.8,1612,807.8z"/>
					</g>
					<g>
						<path class="st0" d="M1582,856.5v44.1c0,4.9,60,4.9,60,0v-44.1H1582z M1615,880v12.5c0,1.7-1.4,3-3,3c-1.7,0-3-1.4-3-3v-12.5
							c-2.6-1.2-4.4-3.8-4.4-6.7c0-4.1,3.3-7.4,7.4-7.4c4.1,0,7.4,3.3,7.4,7.4C1619.4,876.2,1617.6,878.8,1615,880z"/>
						<path class="st0" d="M1636.7,853.4h-6.1v-3c0-10.3-8.4-18.7-18.7-18.7c-10.3,0-18.7,8.4-18.7,18.7v3h-6.1v-3
							c0-13.6,11.1-24.7,24.7-24.7c13.6,0,24.7,11.1,24.7,24.7V853.4z"/>
					</g>
				</g>
			</g>
		</g>
		<circle class="st1" cx="1395.6" cy="346.3" r="23.9"/>
		
			<ellipse transform="matrix(0.1694 -0.9856 0.9856 0.1694 209.8549 1119.6786)" class="st1" cx="769.2" cy="435.3" rx="23.9" ry="23.9"/>
		<circle class="st0" cx="1562.9" cy="753" r="12.5"/>
		
			<ellipse transform="matrix(0.2285 -0.9735 0.9735 0.2285 -557.7227 848.9325)" class="st1" cx="256.8" cy="776.4" rx="12.5" ry="12.5"/>
		
			<ellipse transform="matrix(0.9007 -0.4344 0.4344 0.9007 -489.9089 318.5533)" class="st1" cx="452" cy="1231.2" rx="23.9" ry="23.9"/>
		<g>
			<path class="st1" d="M834.8,198.5L834.8,198.5c-2.3,0-4.1-1.9-4.1-4.1v-44.3c0-2.3,1.9-4.1,4.1-4.1l0,0c2.3,0,4.1,1.9,4.1,4.1
				v44.3C839,196.7,837.1,198.5,834.8,198.5z"/>
			<path class="st1" d="M808.6,172.3L808.6,172.3c0-2.3,1.9-4.1,4.1-4.1H857c2.3,0,4.1,1.9,4.1,4.1l0,0c0,2.3-1.9,4.1-4.1,4.1h-44.3
				C810.4,176.4,808.6,174.5,808.6,172.3z"/>
		</g>
		<g>
			<path class="st0" d="M1305.3,766.7L1305.3,766.7c-2.3,0-4.1-1.9-4.1-4.1v-44.3c0-2.3,1.9-4.1,4.1-4.1l0,0c2.3,0,4.1,1.9,4.1,4.1
				v44.3C1309.4,764.9,1307.6,766.7,1305.3,766.7z"/>
			<path class="st0" d="M1279,740.5L1279,740.5c0-2.3,1.9-4.1,4.1-4.1h44.3c2.3,0,4.1,1.9,4.1,4.1l0,0c0,2.3-1.9,4.1-4.1,4.1h-44.3
				C1280.9,744.6,1279,742.8,1279,740.5z"/>
		</g>
		<g>
			<path class="st0" d="M1260.3,1349.6L1260.3,1349.6c-2.3,0-4.1-1.9-4.1-4.1v-44.3c0-2.3,1.9-4.1,4.1-4.1l0,0
				c2.3,0,4.1,1.9,4.1,4.1v44.3C1264.4,1347.8,1262.6,1349.6,1260.3,1349.6z"/>
			<path class="st0" d="M1234,1323.3L1234,1323.3c0-2.3,1.9-4.1,4.1-4.1h44.3c2.3,0,4.1,1.9,4.1,4.1l0,0c0,2.3-1.9,4.1-4.1,4.1
				h-44.3C1235.9,1327.5,1234,1325.6,1234,1323.3z"/>
		</g>
		<circle class="st17" cx="892" cy="1019.3" r="13.2"/>
	</g>
</g>
<g id="male">
	<g>
		<g>
			<polygon class="st4" points="1217.2,2231.3 1165.4,2231.3 1160,2118.7 1222.5,2118.7 			"/>
			<polygon class="st4" points="2117,2231.3 2065.3,2231.3 2059.9,2118.7 2122.4,2118.7 			"/>
			<path class="st18" d="M2071.9,1923.3c-5.7,17.7-11.9,35.9-18.7,54.5h-859.6c0,0-110.9-451.5,0-534.1c2.8-2.1,6.2-4.2,10.2-6.2
				c149.4-76.8,748.4-94.8,870,4c0.9,0.7,1.8,1.5,2.6,2.3C2121.3,1484.9,2160.2,1649.1,2071.9,1923.3z"/>
			<path class="st19" d="M1517.7,1977.9h-323.9l31.6-316.5C1281.9,1685.9,1432.2,1815.3,1517.7,1977.9z"/>
			<path class="st19" d="M2071.9,1923.3c-5.7,17.7-11.9,35.9-18.7,54.5H1741c53.7-99.6,183.9-250.4,310.3-319.8L2071.9,1923.3z"/>
			<path class="st18" d="M2179.6,1657h-119.2c-20,0-37,14.8-39.6,34.7l-38,287.4h-696.5l-38-287.4c-2.6-19.9-19.6-34.7-39.6-34.7
				h-119.2c-24.9,0-43.7,22.5-39.3,46.9l66.2,478.6h65.4v0h968.8v0h2.1l66.2-478.6C2223.3,1679.5,2204.5,1657,2179.6,1657z"/>
			<g>
				<g>
					<path class="st20" d="M1975.9,1822.1c56.1,18.8,45.1,137.5,0,155.8h-680.3c-50.8-13.1-55.1-170.2,18.2-158.4
						C1762.2,1903.8,1783.9,1769.3,1975.9,1822.1z"/>
				</g>
			</g>
		</g>
		<g>
			<path class="st21" d="M1457.4,1701.7c-0.2,30.7,1.4,59.5,4.7,84.8h319L1800,1475c-19-113.8-70.8-141.3-152.9-141.3
				c-73.5,0-122.4,59.9-152.2,140.2C1469.2,1543.2,1457.8,1627.7,1457.4,1701.7z"/>
			<path class="st22" d="M1457.4,1707.7l115.4-6.9c-64.1-21-69.2-119.3-4-180.5l-73.9-46.4
				C1469.2,1543.2,1457.8,1633.7,1457.4,1707.7z"/>
			<polygon class="st4" points="1435.4,1850.9 1873.7,1850.9 1873.7,1701.7 1478.9,1701.7 			"/>
			<g>
				<g>
					<path class="st4" d="M1929.7,1803.6l-117.7,427.8l-91.8,0c29.1-182,22.6-300.4,49.9-451.5
						C1794,1655.7,1958.2,1688.6,1929.7,1803.6z"/>
				</g>
				<g>
					<path class="st23" d="M1779,2231.3c0-0.3,0-0.6,0-0.8c0-31.7,25.7-57.4,57.4-57.4c31.7,0,57.4,25.7,57.4,57.4
						c0,0.3,0,0.6,0,0.8H1779z"/>
					<path class="st23" d="M1847.4,2174.1l-20.9-6.4c-13.8-27.1-72.5-23.7-64.3,9.2c-23.1,3.4-35.2-8-35.2-8l-6.9,62.4h124.5
						L1847.4,2174.1z"/>
				</g>
			</g>
			<g>
				<g>
					<path class="st4" d="M1412.7,1803.6l117.7,427.8l91.8,0c-29.1-182-22.6-300.4-49.9-451.5
						C1548.4,1655.7,1384.2,1688.6,1412.7,1803.6z"/>
				</g>
				<g>
					<path class="st23" d="M1563.4,2231.3c0-0.3,0-0.6,0-0.8c0-31.7-25.7-57.4-57.4-57.4c-31.7,0-57.4,25.7-57.4,57.4
						c0,0.3,0,0.6,0,0.8H1563.4z"/>
					<path class="st23" d="M1495,2174.1l20.9-6.4c13.8-27.1,72.5-23.7,64.3,9.2c23.1,3.4,35.2-8,35.2-8l6.9,62.4h-124.5L1495,2174.1
						z"/>
				</g>
			</g>
			<path class="st21" d="M1597.9,1343.7c43.1,26.1,49.2,103.7,27.1,134.6l-122.9,91.5l125.1,64.4l-20.3,66.5
				c0,0-130.6-10.6-194.5-76.2C1351.1,1561.7,1500.7,1376.8,1597.9,1343.7z"/>
			<path class="st21" d="M1685.2,1461.4c-36.8-46.2-11.4-117.7,35.6-115.6c152.9,53.8,200.1,203.2,151.6,270.3
				c-41.5,57.5-224,79.6-224,79.6v-62.9l126.8-27.4C1775.2,1605.4,1709.8,1504.1,1685.2,1461.4z"/>
			<g>
				<path class="st24" d="M1551.3,1679.8c-2.4-21.1,10-47.4,41.7-53.2c55.4-10.1,75.4,20.3,80.7,42.1c1.4,5.7-3.8,11.6-8.5,11.1
					c-4.8-0.5-8.1-3.2-8.9-7.5c-1-5.2-3.7-11.6-9.7-15c5.7,11.2,3.3,22.5-12.3,22.5H1551.3z"/>
				<g>
					<path class="st25" d="M1676.3,1679.7l43.6-218.6h9.2c-3,15.1-45.8,233.7-47.2,240.6c-11.4,0-116.4,0-130.6,0l-14.3-22H1676.3z"
						/>
					<polygon class="st0" points="1729.2,1461.2 2053.5,1461.2 2005.5,1701.7 1682,1701.7 					"/>
				</g>
			</g>
			<g>
				<g>
					<path class="st24" d="M1634.6,1359.4c0,24.9,74.6,41.4,98.9,15.2c3.7-3.9,6.2-8.8,7.2-14.8l14-63l-89-33.6l-2.7,8.2
						L1634.6,1359.4z"/>
					<path class="st26" d="M1740.7,1359.8l14-63l-84.2-22.7C1648.7,1339.1,1726.5,1390.9,1740.7,1359.8z"/>
				</g>
				<path class="st24" d="M1659.1,1239.1c-4.7,61.9,44.2,116.4,85.3,119.2c41.1,2.8,97.6-43.1,102.3-105
					c4.7-61.9-33.5-115.3-85.3-119.2C1709.6,1130.2,1663.8,1177.2,1659.1,1239.1z"/>
				<path class="st4" d="M1727.8,1138.8c56.8-35.9,88-2.1,116.3,33.7c19.8,25.2,33.9,43.2,58.6,47c-47.5,59.9-142.5,20.4-172.4-39.6
					c-2.9,34.2-43.2,62.5-71.1,59.2C1650.1,1201.1,1676.4,1124.2,1727.8,1138.8z"/>
				
					<ellipse transform="matrix(0.9871 -0.1602 0.1602 0.9871 -177.0477 283.5099)" class="st24" cx="1670" cy="1239.9" rx="24.7" ry="24.7"/>
			</g>
		</g>
	</g>
</g>
</svg>
