<svg xmlns="http://www.w3.org/2000/svg" viewBox="0 0 2500 2500" style="enable-background:new 0 0 2500 2500" xml:space="preserve"><style>.st0{fill:#fff}.st1{fill:#aae0ff}.st3{fill:#5896fa}.st4{fill:#0e0e0e}.st8{fill:#80b2ff}.st9{fill:#005cea}.st10{fill:#1251b3}.st11{fill:#d9ffff}.st12{fill:#296acc}.st14{fill:#fff;stroke:#5896fa;stroke-width:6.3406;stroke-miterlimit:10}.st15{fill:#d1f5ff}.st18{fill:#ea7b00}.st19{fill:#982c20}.st21{fill:#007880}.st23{fill:#b15626}.st24{fill:#f7a594}</style><path class="st0" d="M0 0h2500v2500H0z" id="BG"/><path class="st1" d="M578.8 565H1964v1379.8H578.8z" id="window"/><g id="shadow"><path id="shadow_1_" d="M167.6 2255.9h2216.9c6.8 0 12.2-5.5 12.2-12.2 0-6.8-5.5-12.2-12.2-12.2H167.6c-6.8 0-12.2 5.5-12.2 12.2 0 6.8 5.5 12.2 12.2 12.2z" style="fill:#2d5b98"/><g id="plant"><path class="st3" d="M765 2134.5c-68.4 0-123.9-55.5-123.9-123.9v-168.9h247.8v168.9c0 68.4-55.5 123.9-123.9 123.9z"/><path class="st4" d="M627.4 1969.3h13.7v262.1h-13.7zM888.9 1969.3h13.7v262.1h-13.7zM783.8 1969.3h13.7v262.1h-13.7z"/><path class="st4" d="M627.4 2134.5h262.1v13.7H627.4z"/><path d="M957.9 1562.7c15 21.5-15.1 40.1-19.8 69.9-4.7 29.8 29.5 46.6-6.8 85.7-22.3 24.1-41.2-7.9-59.3 29-18.2 36.9-3.8 43.1-24.3 56.4-35.6 23.1-90-28-71.7-64.9 18.3-36.8 55.3-33.6 38.2-63.9-17.1-30.3-23.5-43.4 6-59 36.6-19.3 68.8-1.6 71.7-29.8 3.1-28 46.3-51.9 66-23.4z" style="fill:#ffca59"/><path class="st4" d="m801.7 1840-6.2-1.2c28.8-145.7 124.4-247.7 125.3-248.7l4.5 4.3c-.9 1-95.2 101.8-123.6 245.6z"/><path d="M478.8 1508.9c-15.5 31.5 28.1 50 40.3 88.6 12.2 38.6-32.7 52.2 23.1 96.6 34.4 27.4 41.6 10.3 54.2 71.5 11.1 53.9 52.1 2.6 82.7 34.2 39.5 40.8 101.2-48.8 69.6-93.8-31.6-45.1-68.5-33.4-52-77 16.6-43.6-3.2-76.4-45.4-91.1-52.3-18.2-71.1 25.7-80.6-11-9.5-36.8-71.4-59.7-91.9-18z" style="fill:#ed5a24"/><path class="st4" d="M741.4 1844.4c-66.6-184.7-211.7-299-213.1-300.1l5.2-6.6c1.5 1.1 148.4 116.9 215.9 303.9l-8 2.8z"/></g></g><g id="system"><circle cx="922.9" cy="803.2" r="529.8" style="fill:none;stroke:#2e77e6;stroke-width:8.7306;stroke-miterlimit:10;stroke-dasharray:13.0959,13.0959"/><path class="st0" d="M1057.1 768.4c.6-4.1 1-8.3 1-12.6 0-51.6-41.8-93.4-93.4-93.4-38.7 0-71.9 23.5-86 57.1-11.5-10.3-26.7-16.6-43.3-16.6-36 0-65.2 29.2-65.2 65.2H758c-34.7 0-63 28.3-63 63 0 34.6 28.3 63 63 63h294.6c34.6 0 63-28.3 63-63-.2-33-26-60.3-58.5-62.7z"/><path class="st3" d="M1115 1453.8H720.6c-13.3 0-24-10.8-24-24v-330.9c0-13.3 10.8-24 24-24H1115c13.3 0 24 10.8 24 24v330.9c.1 13.2-10.7 24-24 24z"/><path class="st0" d="M1051.8 1303.6H785c-8.7 0-15.9-7.1-15.9-15.9 0-8.7 7.1-15.9 15.9-15.9h266.7c8.7 0 15.9 7.1 15.9 15.9s-7.1 15.9-15.8 15.9zM1051.8 1354.7H785c-8.7 0-15.9-7.1-15.9-15.9 0-8.7 7.1-15.9 15.9-15.9h266.7c8.7 0 15.9 7.1 15.9 15.9s-7.1 15.9-15.8 15.9z"/><path class="st8" d="M834.9 1340.3c0 3.1-2.5 5.6-5.6 5.6-3.1 0-5.6-2.5-5.6-5.6 0-3.1 2.5-5.6 5.6-5.6 3 0 5.6 2.5 5.6 5.6zM854 1340.3c0 3.1-2.5 5.6-5.6 5.6-3.1 0-5.6-2.5-5.6-5.6 0-3.1 2.5-5.6 5.6-5.6 3.1 0 5.6 2.5 5.6 5.6zM873.2 1340.3c0 3.1-2.5 5.6-5.6 5.6-3.1 0-5.6-2.5-5.6-5.6 0-3.1 2.5-5.6 5.6-5.6 3.1 0 5.6 2.5 5.6 5.6zM892.3 1340.3c0 3.1-2.5 5.6-5.6 5.6-3.1 0-5.6-2.5-5.6-5.6 0-3.1 2.5-5.6 5.6-5.6 3.1 0 5.6 2.5 5.6 5.6zM911.5 1340.3c0 3.1-2.5 5.6-5.6 5.6-3.1 0-5.6-2.5-5.6-5.6 0-3.1 2.5-5.6 5.6-5.6 3.1 0 5.6 2.5 5.6 5.6zM930.6 1340.3c0 3.1-2.5 5.6-5.6 5.6-3.1 0-5.6-2.5-5.6-5.6 0-3.1 2.5-5.6 5.6-5.6 3.1 0 5.6 2.5 5.6 5.6zM949.8 1340.3c0 3.1-2.5 5.6-5.6 5.6-3.1 0-5.6-2.5-5.6-5.6 0-3.1 2.5-5.6 5.6-5.6 3.1 0 5.6 2.5 5.6 5.6zM968.9 1340.3c0 3.1-2.5 5.6-5.6 5.6-3.1 0-5.6-2.5-5.6-5.6 0-3.1 2.5-5.6 5.6-5.6 3.1 0 5.6 2.5 5.6 5.6zM988.1 1340.3c0 3.1-2.5 5.6-5.6 5.6-3.1 0-5.6-2.5-5.6-5.6 0-3.1 2.5-5.6 5.6-5.6 3.1 0 5.6 2.5 5.6 5.6z"/><circle class="st0" cx="918.5" cy="1166.2" r="61.3"/><path class="st9" d="M918.6 1163.7c6 0 11.5-2.9 15-7.4 2.6-3.2 4.1-7.4 4.1-12 0-10.6-8.6-19.3-19.2-19.3-10.7 0-19.3 8.8-19.3 19.3 0 4.6 1.5 8.8 4.1 12 3.6 4.5 9.1 7.4 15.3 7.4zM952.6 1198.2c0 12.2-68.2 12.2-68.2 0V1184c2.7-19.4 62.6-20.3 68.2 0v14.2z"/><path class="st3" d="M798.3 1335.9v-.9c0-3.4-2.8-6.2-6.2-6.2s-6.2 2.8-6.2 6.2v.9h-.9v11.3c0 1.9 14.4 1.9 14.4 0v-11.3h-1.1zm-10.3-.8c0-2.2 1.3-4.1 4-4.1s4.1 1.8 4.1 4.1v.9H788v-.9zm5.1 6.5v3.3c0 .6-.5 1-1.1 1-.6 0-1-.4-1-1v-3.3c-.6-.3-1-.9-1-1.7 0-1.1.9-2 2-2s2 .9 2 2c0 .8-.4 1.4-.9 1.7zM792 1286.6c1.3 0 2.4-.6 3.2-1.6.6-.7.9-1.6.9-2.5 0-2.2-1.8-4.1-4-4.1-2.3 0-4.1 1.8-4.1 4.1 0 1 .3 1.8.9 2.5.7 1 1.8 1.6 3.1 1.6zM799.2 1293.9c0 2.6-14.5 2.6-14.5 0l.1-3c.6-4.1 13.2-4.3 14.4 0v3z"/><path class="st8" d="M885.5 1292.4H827c-2.6 0-4.7-2.1-4.7-4.7s2.1-4.7 4.7-4.7h58.5c2.6 0 4.7 2.1 4.7 4.7-.1 2.6-2.2 4.7-4.7 4.7zM962.6 1292.4h-58.5c-2.6 0-4.7-2.1-4.7-4.7s2.1-4.7 4.7-4.7h58.5c2.6 0 4.7 2.1 4.7 4.7-.1 2.6-2.2 4.7-4.7 4.7z"/><path class="st10" d="M938 1404.3h-53c-7.5 0-13.6-6.1-13.6-13.6s6.1-13.6 13.6-13.6h53c7.5 0 13.6 6.1 13.6 13.6s-6.1 13.6-13.6 13.6z"/><path class="st11" d="M244.6 850.7v-.7c.1.1 0 .7 0 .7z"/><path class="st11" d="M244.6 850.7v-.7c.1.1 0 .7 0 .7zM505.4 851.9v-.7.7zM505.4 851.9v-.7.7z"/><path class="st0" d="M375.6 780.3c-30.4 32.5-78.9 59.2-130.7 70.6 0 3.5-.1 22.7-.5 111.1-.5 118 111.8 175.7 129.2 184.6 16.9-7.8 130.7-65.4 131.2-183.4.4-88.5.5-107.7.5-111.1-51.8-11.9-99.7-39-129.7-71.8z"/><path class="st12" d="M375.2 801.6c-29.8 27.3-71 48.7-116.3 60.4l-.4 100c-.2 45.8 18 87.2 54 123 23.7 23.6 48.6 38.2 61.2 44.8.5-.3 1.1-.6 1.7-.9V801.8c0-.1-.1-.1-.2-.2z"/><path d="M375.5 801.8V1129c13.1-6.8 37-21 59.9-43.3 36.4-35.6 54.9-76.8 55.1-122.6l.4-100c-45-12.1-85.9-33.8-115.4-61.3z" style="fill:#2e77e6"/><path class="st0" d="M322.8 946v77.5c0 8.6 105.3 8.6 105.3 0V946H322.8zm58 41.1v22c0 2.9-2.4 5.4-5.3 5.4-3 0-5.4-2.4-5.4-5.4v-22c-4.5-2-7.7-6.6-7.7-11.8 0-7.2 5.8-13 13-13s13 5.8 13 13c.1 5.2-3 9.8-7.6 11.8zM418.9 940.5h-10.7v-5.2c0-18.1-14.7-32.8-32.8-32.8-18.1 0-32.8 14.7-32.8 32.8v5.2h-10.7v-5.2c0-24 19.5-43.4 43.4-43.4 24 0 43.4 19.5 43.4 43.4v5.2z"/><path class="st12" d="M964.9 142.6h190.3v237.5H964.9z"/><path class="st14" d="M989.6 167.1h190.3v237.5H989.6z"/><path class="st14" d="M1021 191.2h190.3v237.5H1021z"/><path class="st3" d="M1043.8 215.7h190.3v237.5h-190.3z"/><path class="st9" d="M1106 254.7h98.4v15.4H1106zM1076.9 291h127.5v15.4h-127.5zM1076.9 327.3h127.5v15.4h-127.5zM1076.9 363.6h127.5V379h-127.5zM1076.9 399.9h127.5v15.4h-127.5z"/><circle transform="rotate(-77.096 547.534 401.113)" class="st0" cx="547.5" cy="401.1" r="67.2"/><path class="st9" d="M653.5 465c8.7-14.5 14.2-30.1 16.5-45.8l5 .7 9.9 1.5h.1c2.7-18 1.8-36.3-2.6-53.7l-14.7 3.6c-3.9-15.8-10.9-30.8-20.8-44l12.2-9.1c-10.4-14.2-23.8-26.5-39.8-36.2l-7.9 13c-14.5-8.7-30.1-14.2-45.8-16.5l2.2-15c-18-2.7-36.3-1.7-53.7 2.6l3.6 14.7c-15.8 3.9-30.8 10.9-44 20.8l-9.1-12.2c-14.2 10.4-26.5 23.8-36.2 39.8l13 7.9c-8.7 14.5-14.2 30.1-16.5 45.8l-10.6-1.6-4.3-.6c-2.7 18-1.7 36.3 2.6 53.7l14.7-3.6c3.9 15.8 10.9 30.8 20.9 44.1L436 484c10.4 14.2 23.8 26.5 39.7 36.1l7.9-13c14.5 8.7 30.1 14.2 45.9 16.5l-1.7 11.7-.5 3.3c18 2.7 36.2 1.7 53.6-2.6l-3.6-14.7c15.8-3.9 30.8-10.9 44.1-20.8l9.1 12.2c14.1-10.5 26.5-23.8 36.1-39.8l-13.1-7.9zm-140.7-6.4c-31.8-19.2-42-60.5-22.9-92.3 19.2-31.8 60.4-42 92.2-22.8 31.8 19.2 42 60.4 22.8 92.2-19 31.9-60.3 42.1-92.1 22.9z"/><path class="st10" d="M402 456.1c-4.9-7.4-11.1-13.5-18.1-18.2l1.5-2.2 2.9-4.4v-.1c-8-5.3-16.9-9-26.1-10.9l-1.6 7.8c-8.4-1.7-17.1-1.8-25.6-.1l-1.6-7.8c-9.1 1.8-18 5.3-26.2 10.8l4.4 6.7c-7.4 4.9-13.5 11.1-18.2 18.1l-6.6-4.4c-5.3 8-9 16.9-10.9 26.1l7.8 1.6c-1.7 8.4-1.8 17.1-.1 25.6l-7.8 1.6c1.8 9.1 5.3 18 10.8 26.2l6.7-4.4c4.9 7.4 11.1 13.5 18.1 18.2l-3.1 4.7-1.3 1.9c8 5.3 16.9 9 26.1 10.9l1.6-7.8c8.4 1.7 17.1 1.8 25.7 0l1.6 7.8c9.1-1.8 18-5.3 26.2-10.7l-4.4-6.7c7.4-4.9 13.6-11.1 18.2-18.1l5.2 3.5 1.5 1c5.3-8 9-16.9 10.9-26.1l-7.8-1.6c1.7-8.4 1.8-17.1.1-25.7l7.8-1.6c-1.8-9.1-5.3-18-10.8-26.2l-6.9 4.5zm-34.8 65.5c-16.3 10.8-38.3 6.3-49-10-10.8-16.3-6.3-38.2 10-49 16.3-10.8 38.2-6.3 49 10 10.8 16.2 6.3 38.2-10 49z"/><path class="st9" d="M1501.2 592.7h-163.4c-3.4 0-6.2-2.8-6.2-6.2v-92.7c0-3.4 2.8-6.2 6.2-6.2h163.4c3.4 0 6.2 2.8 6.2 6.2v92.7c0 3.4-2.8 6.2-6.2 6.2z"/><path class="st3" d="M1331.5 507.4h175.8v18.1h-175.8z"/><path class="st15" d="M1371.8 572.5h-25.9c-1.6 0-3 1.3-3 3 0 1.6 1.3 3 3 3h25.9c1.6 0 3-1.3 3-3s-1.3-3-3-3zM1411.6 572.5h-25.9c-1.6 0-3 1.3-3 3 0 1.6 1.3 3 3 3h25.9c1.6 0 3-1.3 3-3s-1.4-3-3-3zM1451.3 572.5h-25.9c-1.6 0-3 1.3-3 3 0 1.6 1.3 3 3 3h25.9c1.6 0 3-1.3 3-3s-1.3-3-3-3zM1491.1 572.5h-25.9c-1.6 0-3 1.3-3 3 0 1.6 1.3 3 3 3h25.9c1.6 0 3-1.3 3-3s-1.4-3-3-3zM1344.8 492.8c-1.8 0-3.3 1.5-3.3 3.3v1.2c0 1.8 1.5 3.3 3.3 3.3 1.8 0 3.3-1.5 3.3-3.3v-1.2c0-1.8-1.5-3.3-3.3-3.3zM1351.9 496.7c0 2.1 1.7 3.9 3.9 3.9h13.7c2.1 0 3.9-1.7 3.9-3.9 0-2.1-1.7-3.9-3.9-3.9h-13.7c-2.2 0-3.9 1.8-3.9 3.9z"/><path class="st3" d="M1350.1 535.3h17.7c2.8 0 5.1 2.3 5.1 5.1v15.2c0 2.8-2.3 5.1-5.1 5.1h-17.7c-2.8 0-5.1-2.3-5.1-5.1v-15.2c-.1-2.8 2.2-5.1 5.1-5.1z"/><path class="st10" d="M1436.4 860.5v-12c0-5.5-4.4-9.9-9.9-9.9h-105.1c-5.5 0-9.9 4.4-9.9 9.9v212.3h272V860.5h-147.1z"/><path class="st0" d="M1594.8 867.8h-266.7l-16.5 193h270.6z"/><path d="M1583.5 1060.8h-272l28.9-190.6c.8-5.6 5.6-9.7 11.3-9.7h248.9c7 0 12.3 6.2 11.3 13.1l-28.4 187.2z" style="fill:#3383ff"/><circle transform="rotate(-45.001 1611.979 867.83)" class="st9" cx="1612" cy="867.8" r="62.3"/><path class="st0" d="M1612 932.4c-35.6 0-64.6-29-64.6-64.6 0-35.6 29-64.6 64.6-64.6 35.6 0 64.6 29 64.6 64.6 0 35.6-29 64.6-64.6 64.6zm0-124.6c-33.1 0-60 26.9-60 60s26.9 60 60 60 60-26.9 60-60-26.9-60-60-60z"/><path class="st0" d="M1582 856.5v44.1c0 4.9 60 4.9 60 0v-44.1h-60zm33 23.5v12.5c0 1.7-1.4 3-3 3-1.7 0-3-1.4-3-3V880c-2.6-1.2-4.4-3.8-4.4-6.7 0-4.1 3.3-7.4 7.4-7.4 4.1 0 7.4 3.3 7.4 7.4 0 2.9-1.8 5.5-4.4 6.7zM1636.7 853.4h-6.1v-3c0-10.3-8.4-18.7-18.7-18.7-10.3 0-18.7 8.4-18.7 18.7v3h-6.1v-3c0-13.6 11.1-24.7 24.7-24.7s24.7 11.1 24.7 24.7v3z"/><circle class="st1" cx="1395.6" cy="346.3" r="23.9"/><circle transform="rotate(-80.248 769.158 435.316)" class="st1" cx="769.2" cy="435.3" r="23.9"/><circle class="st0" cx="1562.9" cy="753" r="12.5"/><circle transform="rotate(-76.791 256.783 776.394)" class="st1" cx="256.8" cy="776.4" r="12.5"/><circle transform="rotate(-25.75 451.903 1231.084)" class="st1" cx="452" cy="1231.2" r="23.9"/><path class="st1" d="M834.8 198.5c-2.3 0-4.1-1.9-4.1-4.1v-44.3c0-2.3 1.9-4.1 4.1-4.1 2.3 0 4.1 1.9 4.1 4.1v44.3c.1 2.3-1.8 4.1-4.1 4.1z"/><path class="st1" d="M808.6 172.3c0-2.3 1.9-4.1 4.1-4.1H857c2.3 0 4.1 1.9 4.1 4.1 0 2.3-1.9 4.1-4.1 4.1h-44.3c-2.3 0-4.1-1.9-4.1-4.1z"/><path class="st0" d="M1305.3 766.7c-2.3 0-4.1-1.9-4.1-4.1v-44.3c0-2.3 1.9-4.1 4.1-4.1 2.3 0 4.1 1.9 4.1 4.1v44.3c0 2.3-1.8 4.1-4.1 4.1z"/><path class="st0" d="M1279 740.5c0-2.3 1.9-4.1 4.1-4.1h44.3c2.3 0 4.1 1.9 4.1 4.1 0 2.3-1.9 4.1-4.1 4.1h-44.3c-2.2 0-4.1-1.8-4.1-4.1zM1260.3 1349.6c-2.3 0-4.1-1.9-4.1-4.1v-44.3c0-2.3 1.9-4.1 4.1-4.1 2.3 0 4.1 1.9 4.1 4.1v44.3c0 2.3-1.8 4.1-4.1 4.1z"/><path class="st0" d="M1234 1323.3c0-2.3 1.9-4.1 4.1-4.1h44.3c2.3 0 4.1 1.9 4.1 4.1 0 2.3-1.9 4.1-4.1 4.1h-44.3c-2.2.1-4.1-1.8-4.1-4.1z"/><circle cx="892" cy="1019.3" r="13.2" style="fill:none;stroke:#fff;stroke-width:4.2257;stroke-miterlimit:10"/></g><g id="male"><path class="st4" d="M1217.2 2231.3h-51.8l-5.4-112.6h62.5zM2117 2231.3h-51.7l-5.4-112.6h62.5z"/><path class="st18" d="M2071.9 1923.3c-5.7 17.7-11.9 35.9-18.7 54.5h-859.6s-110.9-451.5 0-534.1c2.8-2.1 6.2-4.2 10.2-6.2 149.4-76.8 748.4-94.8 870 4 .9.7 1.8 1.5 2.6 2.3 44.9 41.1 83.8 205.3-4.5 479.5z"/><path class="st19" d="M1517.7 1977.9h-323.9l31.6-316.5c56.5 24.5 206.8 153.9 292.3 316.5zM2071.9 1923.3c-5.7 17.7-11.9 35.9-18.7 54.5H1741c53.7-99.6 183.9-250.4 310.3-319.8l20.6 265.3z"/><path class="st18" d="M2179.6 1657h-119.2c-20 0-37 14.8-39.6 34.7l-38 287.4h-696.5l-38-287.4c-2.6-19.9-19.6-34.7-39.6-34.7h-119.2c-24.9 0-43.7 22.5-39.3 46.9l66.2 478.6h1036.3l66.2-478.6c4.4-24.4-14.4-46.9-39.3-46.9z"/><path d="M1975.9 1822.1c56.1 18.8 45.1 137.5 0 155.8h-680.3c-50.8-13.1-55.1-170.2 18.2-158.4 448.4 84.3 470.1-50.2 662.1 2.6z" style="fill:#f2b066"/><path class="st21" d="M1457.4 1701.7c-.2 30.7 1.4 59.5 4.7 84.8h319L1800 1475c-19-113.8-70.8-141.3-152.9-141.3-73.5 0-122.4 59.9-152.2 140.2-25.7 69.3-37.1 153.8-37.5 227.8z"/><path d="m1457.4 1707.7 115.4-6.9c-64.1-21-69.2-119.3-4-180.5l-73.9-46.4c-25.7 69.3-37.1 159.8-37.5 233.8z" style="fill:#005459"/><path class="st4" d="M1435.4 1850.9h438.3v-149.2h-394.8z"/><path class="st4" d="M1929.7 1803.6 1812 2231.4h-91.8c29.1-182 22.6-300.4 49.9-451.5 23.9-124.2 188.1-91.3 159.6 23.7z"/><path class="st23" d="M1779 2231.3v-.8c0-31.7 25.7-57.4 57.4-57.4s57.4 25.7 57.4 57.4v.8H1779z"/><path class="st23" d="m1847.4 2174.1-20.9-6.4c-13.8-27.1-72.5-23.7-64.3 9.2-23.1 3.4-35.2-8-35.2-8l-6.9 62.4h124.5l2.8-57.2z"/><path class="st4" d="m1412.7 1803.6 117.7 427.8h91.8c-29.1-182-22.6-300.4-49.9-451.5-23.9-124.2-188.1-91.3-159.6 23.7z"/><path class="st23" d="M1563.4 2231.3v-.8c0-31.7-25.7-57.4-57.4-57.4s-57.4 25.7-57.4 57.4v.8h114.8z"/><path class="st23" d="m1495 2174.1 20.9-6.4c13.8-27.1 72.5-23.7 64.3 9.2 23.1 3.4 35.2-8 35.2-8l6.9 62.4h-124.5l-2.8-57.2z"/><path class="st21" d="M1597.9 1343.7c43.1 26.1 49.2 103.7 27.1 134.6l-122.9 91.5 125.1 64.4-20.3 66.5s-130.6-10.6-194.5-76.2c-61.3-62.8 88.3-247.7 185.5-280.8zM1685.2 1461.4c-36.8-46.2-11.4-117.7 35.6-115.6 152.9 53.8 200.1 203.2 151.6 270.3-41.5 57.5-224 79.6-224 79.6v-62.9l126.8-27.4s-65.4-101.3-90-144z"/><path class="st24" d="M1551.3 1679.8c-2.4-21.1 10-47.4 41.7-53.2 55.4-10.1 75.4 20.3 80.7 42.1 1.4 5.7-3.8 11.6-8.5 11.1-4.8-.5-8.1-3.2-8.9-7.5-1-5.2-3.7-11.6-9.7-15 5.7 11.2 3.3 22.5-12.3 22.5h-83z"/><path d="m1676.3 1679.7 43.6-218.6h9.2c-3 15.1-45.8 233.7-47.2 240.6h-130.6l-14.3-22h139.3z" style="fill:#99c1ff"/><path class="st0" d="M1729.2 1461.2h324.3l-48 240.5H1682z"/><path class="st24" d="M1634.6 1359.4c0 24.9 74.6 41.4 98.9 15.2 3.7-3.9 6.2-8.8 7.2-14.8l14-63-89-33.6-2.7 8.2-28.4 88z"/><path d="m1740.7 1359.8 14-63-84.2-22.7c-21.8 65 56 116.8 70.2 85.7z" style="fill:#f4856d"/><path class="st24" d="M1659.1 1239.1c-4.7 61.9 44.2 116.4 85.3 119.2 41.1 2.8 97.6-43.1 102.3-105 4.7-61.9-33.5-115.3-85.3-119.2-51.8-3.9-97.6 43.1-102.3 105z"/><path class="st4" d="M1727.8 1138.8c56.8-35.9 88-2.1 116.3 33.7 19.8 25.2 33.9 43.2 58.6 47-47.5 59.9-142.5 20.4-172.4-39.6-2.9 34.2-43.2 62.5-71.1 59.2-9.1-38 17.2-114.9 68.6-100.3z"/><circle transform="rotate(-9.213 1669.904 1239.635)" class="st24" cx="1670" cy="1239.9" r="24.7"/></g></svg>