<svg width="73" height="84" fill="none" xmlns="http://www.w3.org/2000/svg"><mask id="a" style="mask-type:alpha" maskUnits="userSpaceOnUse" x="8" y="7" width="63" height="64"><path d="M35.945 8.801 9.637 32.68a4.097 4.097 0 0 0-.282 5.788l27.54 30.33a4.1 4.1 0 0 0 5.79.277l26.307-23.878a4.097 4.097 0 0 0 .282-5.788l-27.54-30.33a4.1 4.1 0 0 0-5.79-.277Z" fill="#fff"/></mask><g filter="url(#b)" mask="url(#a)"><path d="M35.944 8.801 9.637 32.68a4.097 4.097 0 0 0-.282 5.788l27.54 30.33a4.1 4.1 0 0 0 5.79.277l26.307-23.878a4.097 4.097 0 0 0 .282-5.788l-27.54-30.33a4.1 4.1 0 0 0-5.79-.277Z" fill="url(#c)"/><path d="M35.944 8.801 9.637 32.68a4.097 4.097 0 0 0-.282 5.788l27.54 30.33a4.1 4.1 0 0 0 5.79.277l26.307-23.878a4.097 4.097 0 0 0 .282-5.788l-27.54-30.33a4.1 4.1 0 0 0-5.79-.277Z" fill="url(#d)" fill-opacity=".8"/><path d="M35.944 8.801 9.637 32.68a4.097 4.097 0 0 0-.282 5.788l27.54 30.33a4.1 4.1 0 0 0 5.79.277l26.307-23.878a4.097 4.097 0 0 0 .282-5.788l-27.54-30.33a4.1 4.1 0 0 0-5.79-.277Z" fill="url(#e)" fill-opacity=".8"/><path d="M35.944 8.801 9.637 32.68a4.097 4.097 0 0 0-.282 5.788l27.54 30.33a4.1 4.1 0 0 0 5.79.277l26.307-23.878a4.097 4.097 0 0 0 .282-5.788l-27.54-30.33a4.1 4.1 0 0 0-5.79-.277Z" fill="url(#f)" fill-opacity=".8"/></g><g filter="url(#g)"><path fill-rule="evenodd" clip-rule="evenodd" d="M21.177 12.963a4.099 4.099 0 0 1 4.488-.69.347.347 0 0 0 .38-.052 4.098 4.098 0 1 1 5.522 6.056L19.455 29.32a4.098 4.098 0 0 1-5.521-6.056.347.347 0 0 0 .087-.374 4.099 4.099 0 0 1 1.1-4.405l6.056-5.521Z" fill="#FF5C7A"/></g><g filter="url(#h)"><path fill-rule="evenodd" clip-rule="evenodd" d="M32.081 43.907a2.732 2.732 0 1 1 .252-5.457l4.326.2a1.134 1.134 0 0 0 1.184-1.08l.326-7.054a2.732 2.732 0 1 1 5.458.252l-.504 10.915a2.732 2.732 0 0 1-2.651 2.605l-.204-.002-8.187-.379Z" fill="#fff"/></g><defs><radialGradient id="d" cx="0" cy="0" r="1" gradientUnits="userSpaceOnUse" gradientTransform="rotate(53.242 -15.406 17.954) scale(60.1213 89.3589)"><stop stop-color="#52B6FF"/><stop offset="1" stop-color="#8F41EE" stop-opacity="0"/></radialGradient><radialGradient id="e" cx="0" cy="0" r="1" gradientUnits="userSpaceOnUse" gradientTransform="rotate(22.637 -65.609 57.717) scale(24.0032 64.186)"><stop stop-color="#9DD6FF"/><stop offset="1" stop-color="#8F41EE" stop-opacity="0"/></radialGradient><radialGradient id="f" cx="0" cy="0" r="1" gradientUnits="userSpaceOnUse" gradientTransform="matrix(-5.94177 38.10695 -54.0836 -8.4329 79.611 19.923)"><stop stop-color="#5263FF"/><stop offset="1" stop-color="#8F41EE" stop-opacity="0"/></radialGradient><filter id="b" x="-4.816" y="-1.695" width="75.153" height="71.834" filterUnits="userSpaceOnUse" color-interpolation-filters="sRGB"><feFlood flood-opacity="0" result="BackgroundImageFix"/><feBlend in="SourceGraphic" in2="BackgroundImageFix" result="shape"/><feColorMatrix in="SourceAlpha" values="0 0 0 0 0 0 0 0 0 0 0 0 0 0 0 0 0 0 127 0" result="hardAlpha"/><feOffset dx="-13.108"/><feGaussianBlur stdDeviation="13.108"/><feComposite in2="hardAlpha" operator="arithmetic" k2="-1" k3="1"/><feColorMatrix values="0 0 0 0 0.80575 0 0 0 0 0.7375 0 0 0 0 1 0 0 0 0.3 0"/><feBlend in2="shape" result="effect1_innerShadow_8_31"/><feColorMatrix in="SourceAlpha" values="0 0 0 0 0 0 0 0 0 0 0 0 0 0 0 0 0 0 127 0" result="hardAlpha"/><feOffset dy="-9.432"/><feGaussianBlur stdDeviation="6.288"/><feComposite in2="hardAlpha" operator="arithmetic" k2="-1" k3="1"/><feColorMatrix values="0 0 0 0 0.1755 0 0 0 0 0 0 0 0 0 0.675 0 0 0 0.65 0"/><feBlend in2="effect1_innerShadow_8_31" result="effect2_innerShadow_8_31"/></filter><filter id="g" x=".807" y="4.078" width="43.886" height="42.816" filterUnits="userSpaceOnUse" color-interpolation-filters="sRGB"><feFlood flood-opacity="0" result="BackgroundImageFix"/><feColorMatrix in="SourceAlpha" values="0 0 0 0 0 0 0 0 0 0 0 0 0 0 0 0 0 0 127 0" result="hardAlpha"/><feOffset dy="4.716"/><feGaussianBlur stdDeviation="5.895"/><feColorMatrix values="0 0 0 0 0.295167 0 0 0 0 0 0 0 0 0 0.670833 0 0 0 0.75 0"/><feBlend in2="BackgroundImageFix" result="effect1_dropShadow_8_31"/><feColorMatrix in="SourceAlpha" values="0 0 0 0 0 0 0 0 0 0 0 0 0 0 0 0 0 0 127 0" result="hardAlpha"/><feOffset dy="1.179"/><feGaussianBlur stdDeviation=".786"/><feColorMatrix values="0 0 0 0 0.237156 0 0 0 0 0.00444442 0 0 0 0 0.533333 0 0 0 0.25 0"/><feBlend in2="effect1_dropShadow_8_31" result="effect2_dropShadow_8_31"/><feBlend in="SourceGraphic" in2="effect2_dropShadow_8_31" result="shape"/><feColorMatrix in="SourceAlpha" values="0 0 0 0 0 0 0 0 0 0 0 0 0 0 0 0 0 0 127 0" result="hardAlpha"/><feOffset dy="-4.716"/><feGaussianBlur stdDeviation="4.716"/><feComposite in2="hardAlpha" operator="arithmetic" k2="-1" k3="1"/><feColorMatrix values="0 0 0 0 0.525 0 0 0 0 0 0 0 0 0 0.0629999 0 0 0 0.65 0"/><feBlend in2="shape" result="effect3_innerShadow_8_31"/><feColorMatrix in="SourceAlpha" values="0 0 0 0 0 0 0 0 0 0 0 0 0 0 0 0 0 0 127 0" result="hardAlpha"/><feOffset dy="-2.358"/><feGaussianBlur stdDeviation="2.358"/><feComposite in2="hardAlpha" operator="arithmetic" k2="-1" k3="1"/><feColorMatrix values="0 0 0 0 0.553333 0 0 0 0 0.441667 0 0 0 0 1 0 0 0 0.65 0"/><feBlend in2="effect3_innerShadow_8_31" result="effect4_innerShadow_8_31"/></filter><filter id="h" x="5.897" y="20.05" width="61.312" height="63.536" filterUnits="userSpaceOnUse" color-interpolation-filters="sRGB"><feFlood flood-opacity="0" result="BackgroundImageFix"/><feColorMatrix in="SourceAlpha" values="0 0 0 0 0 0 0 0 0 0 0 0 0 0 0 0 0 0 127 0" result="hardAlpha"/><feOffset dy="15.719"/><feGaussianBlur stdDeviation="11.79"/><feColorMatrix values="0 0 0 0 0.227561 0 0 0 0 0.00928819 0 0 0 0 0.445833 0 0 0 0.7 0"/><feBlend in2="BackgroundImageFix" result="effect1_dropShadow_8_31"/><feBlend in="SourceGraphic" in2="effect1_dropShadow_8_31" result="shape"/><feColorMatrix in="SourceAlpha" values="0 0 0 0 0 0 0 0 0 0 0 0 0 0 0 0 0 0 127 0" result="hardAlpha"/><feOffset dy="-6.288"/><feGaussianBlur stdDeviation="3.93"/><feComposite in2="hardAlpha" operator="arithmetic" k2="-1" k3="1"/><feColorMatrix values="0 0 0 0 0.32 0 0 0 0 0 0 0 0 0 1 0 0 0 0.5 0"/><feBlend in2="shape" result="effect2_innerShadow_8_31"/><feColorMatrix in="SourceAlpha" values="0 0 0 0 0 0 0 0 0 0 0 0 0 0 0 0 0 0 127 0" result="hardAlpha"/><feOffset dy="-3.174"/><feGaussianBlur stdDeviation="2.116"/><feComposite in2="hardAlpha" operator="arithmetic" k2="-1" k3="1"/><feColorMatrix values="0 0 0 0 0.975833 0 0 0 0 0.879167 0 0 0 0 1 0 0 0 0.75 0"/><feBlend in2="effect2_innerShadow_8_31" result="effect3_innerShadow_8_31"/></filter><linearGradient id="c" x1="35.508" y1="2.222" x2="36.594" y2="73.142" gradientUnits="userSpaceOnUse"><stop stop-color="#7041EE"/><stop offset=".528" stop-color="#8D41EE"/><stop offset="1" stop-color="#D641EE"/></linearGradient></defs></svg>