<svg width="13" height="13" fill="none" xmlns="http://www.w3.org/2000/svg"><g clip-path="url(#a)" fill="#DC3545"><path d="M11.373 2.956h-1.55a2.505 2.505 0 0 0-2.45-2h-1a2.505 2.505 0 0 0-2.45 2h-1.55a.5.5 0 0 0 0 1h.5v6.5a2.503 2.503 0 0 0 2.5 2.5h3a2.503 2.503 0 0 0 2.5-2.5v-6.5h.5a.5.5 0 1 0 0-1Zm-5-1h1a1.503 1.503 0 0 1 1.415 1h-3.83a1.503 1.503 0 0 1 1.415-1Zm3.5 8.5a1.5 1.5 0 0 1-1.5 1.5h-3a1.5 1.5 0 0 1-1.5-1.5v-6.5h6v6.5Z"/><path d="M5.873 9.956a.5.5 0 0 0 .5-.5v-3a.5.5 0 0 0-1 0v3a.5.5 0 0 0 .5.5Zm2 0a.5.5 0 0 0 .5-.5v-3a.5.5 0 0 0-1 0v3a.5.5 0 0 0 .5.5Z"/></g><defs><clipPath id="a"><path fill="#fff" transform="translate(.873 .956)" d="M0 0h12v12H0z"/></clipPath></defs></svg>