<svg width="94" height="97" fill="none" xmlns="http://www.w3.org/2000/svg"><g filter="url(#a)"><rect x="11" width="71" height="71" rx="15" fill="url(#b)"/></g><g filter="url(#c)"><path fill-rule="evenodd" clip-rule="evenodd" d="M67.982 35.873c.012-.29.018-.58.018-.873 0-11.598-9.402-21-21-21s-21 9.402-21 21 9.402 21 21 21c4.727 0 9.09-1.562 12.6-4.199A4.2 4.2 0 0 0 68 51.8V36.26c0-.13-.006-.26-.018-.387ZM47 47.603c-6.961 0-12.604-5.642-12.604-12.603 0-6.961 5.643-12.604 12.604-12.604 6.96 0 12.604 5.643 12.604 12.604 0 6.96-5.643 12.604-12.604 12.604Z" fill="#fff"/></g><defs><filter id="a" x="8.965" y="-2.035" width="75.07" height="75.07" filterUnits="userSpaceOnUse" color-interpolation-filters="sRGB"><feFlood flood-opacity="0" result="BackgroundImageFix"/><feBlend in="SourceGraphic" in2="BackgroundImageFix" result="shape"/><feColorMatrix in="SourceAlpha" values="0 0 0 0 0 0 0 0 0 0 0 0 0 0 0 0 0 0 127 0" result="hardAlpha"/><feOffset dx="2.035" dy="2.035"/><feGaussianBlur stdDeviation="1.017"/><feComposite in2="hardAlpha" operator="arithmetic" k2="-1" k3="1"/><feColorMatrix values="0 0 0 0 1 0 0 0 0 1 0 0 0 0 1 0 0 0 0.2 0"/><feBlend in2="shape" result="effect1_innerShadow_8_26"/><feColorMatrix in="SourceAlpha" values="0 0 0 0 0 0 0 0 0 0 0 0 0 0 0 0 0 0 127 0" result="hardAlpha"/><feOffset dx="-2.035" dy="-2.035"/><feGaussianBlur stdDeviation="1.017"/><feComposite in2="hardAlpha" operator="arithmetic" k2="-1" k3="1"/><feColorMatrix values="0 0 0 0 0 0 0 0 0 0 0 0 0 0 0 0 0 0 0.05 0"/><feBlend in2="effect1_innerShadow_8_26" result="effect2_innerShadow_8_26"/></filter><filter id="c" x=".049" y="2.204" width="93.902" height="93.902" filterUnits="userSpaceOnUse" color-interpolation-filters="sRGB"><feFlood flood-opacity="0" result="BackgroundImageFix"/><feColorMatrix in="SourceAlpha" values="0 0 0 0 0 0 0 0 0 0 0 0 0 0 0 0 0 0 127 0" result="hardAlpha"/><feOffset dy="14.155"/><feGaussianBlur stdDeviation="12.976"/><feColorMatrix values="0 0 0 0 0.8375 0 0 0 0 0.201 0 0 0 0 0 0 0 0 0.35 0"/><feBlend in2="BackgroundImageFix" result="effect1_dropShadow_8_26"/><feBlend in="SourceGraphic" in2="effect1_dropShadow_8_26" result="shape"/><feColorMatrix in="SourceAlpha" values="0 0 0 0 0 0 0 0 0 0 0 0 0 0 0 0 0 0 127 0" result="hardAlpha"/><feOffset dy="-9.437"/><feGaussianBlur stdDeviation="5.898"/><feComposite in2="hardAlpha" operator="arithmetic" k2="-1" k3="1"/><feColorMatrix values="0 0 0 0 0.8125 0 0 0 0 0.423448 0 0 0 0 0.0643229 0 0 0 0.45 0"/><feBlend in2="shape" result="effect2_innerShadow_8_26"/><feColorMatrix in="SourceAlpha" values="0 0 0 0 0 0 0 0 0 0 0 0 0 0 0 0 0 0 127 0" result="hardAlpha"/><feOffset dy="-3.539"/><feGaussianBlur stdDeviation="2.359"/><feComposite in2="hardAlpha" operator="arithmetic" k2="-1" k3="1"/><feColorMatrix values="0 0 0 0 1 0 0 0 0 1 0 0 0 0 1 0 0 0 0.25 0"/><feBlend in2="effect2_innerShadow_8_26" result="effect3_innerShadow_8_26"/></filter><linearGradient id="b" x1="46.5" y1="0" x2="46.5" y2="71" gradientUnits="userSpaceOnUse"><stop stop-color="#5FD8FF"/><stop offset="1" stop-color="#44B9DE"/></linearGradient></defs></svg>