<svg width="21" height="20" fill="none" xmlns="http://www.w3.org/2000/svg"><g clip-path="url(#a)"><path d="M10.752 0h-.005C5.235 0 .75 4.485.75 10c0 2.188.705 4.215 1.904 5.861l-1.246 3.715 3.843-1.229A9.913 9.913 0 0 0 10.752 20c5.514 0 9.998-4.486 9.998-10S16.266 0 10.752 0Z" fill="#4CAF50"/><path d="M16.571 14.121c-.241.681-1.199 1.246-1.962 1.412-.523.11-1.205.2-3.503-.753-2.939-1.217-4.831-4.204-4.979-4.397-.14-.194-1.187-1.582-1.187-3.017 0-1.435.729-2.134 1.022-2.434.242-.246.64-.358 1.023-.358.124 0 .235.006.335.011.294.012.441.03.635.494.241.581.829 2.016.899 2.163.07.148.142.348.042.542-.094.2-.176.288-.324.458-.147.17-.287.3-.435.483-.135.159-.287.329-.117.622.17.288.757 1.247 1.622 2.017 1.117.993 2.022 1.311 2.345 1.446.242.1.53.076.705-.111.224-.242.5-.642.782-1.035.2-.283.452-.318.717-.218.27.094 1.699.8 1.993.947.293.147.487.217.558.34.07.124.07.706-.17 1.388Z" fill="#FAFAFA"/></g><defs><clipPath id="a"><path fill="#fff" transform="translate(.75)" d="M0 0h20v20H0z"/></clipPath></defs></svg>